<?xml version="1.0" encoding="utf-8"?>
<!-- Generator: Adobe Illustrator 27.5.0, SVG Export Plug-In . SVG Version: 6.00 Build 0)  -->
<svg version="1.1" xmlns="http://www.w3.org/2000/svg" xmlns:xlink="http://www.w3.org/1999/xlink" x="0px" y="0px"
	 viewBox="0 0 2200 2200" style="enable-background:new 0 0 2200 2200;" xml:space="preserve">
<g id="background">
	<rect x="0" style="fill:#FFFFFF;" width="2200" height="2200"/>
</g>
<g id="Objects">
	<path d="M1876.186,1659.286c-5.22-10.492-9.263-22.086-10.52-33.785c-1.393-12.957,0.43-26.313,3.317-38.943
		c6.244-27.311,16.714-53.876,18.376-82.086c2.928-49.729-27.782-95.916-70.207-119.917c-10.398-5.883-21.328-10.323-32.705-13.884
		c-10.139-3.173-19.55-8.64-27.148-16.128c-8.054-7.938-14.168-18.07-17.558-28.83c-3.427-10.879-4.896-22.312-8.103-33.271
		c-13.828-47.252-56.669-77.627-102.851-89.056c-49.246-12.187-103.526-8.309-151.621,6.905
		c-54.4,17.208-103.207,48.05-148.007,82.84c-40.453,31.414-80.791,69.142-130.904,83.254
		c-51.932,14.624-106.604-4.825-158.492,9.648c-27.425,7.649-50.027,23.918-66.425,47.12c-14.761,20.885-21.056,45.04-30.641,68.328
		c-8.577,20.837-21.014,38.856-36.714,54.658c-15.13,15.229-33.368,27.52-53.686,36.163c-21.399,9.103-45.396,11.899-67.5,21.622
		c-22.598,9.941-44.409,24.573-60.023,43.907c-15.094,18.689-25.289,41.824-23.362,66.275c1.94,24.608,14.276,45.586,32.511,61.815
		c44.612,39.706,107.621,35.173,161.907,22.977c30.25-6.796,60.055-15.8,90.859-19.9c28.261-3.761,56.194-1.751,82.834,8.738
		c48.329,19.027,88.056,57.086,140.256,66.79c55.873,10.387,109.73-9.508,162.508-25.285c25.516-7.627,51.822-14.895,78.554-16.223
		c29.609-1.472,58.733,3.761,87.098,11.897c59.108,16.955,114.609,45.628,175.5,56.438c29.811,5.293,60.037,6.436,89.82,0.248
		c48.864-10.829,95.494-46.476,111.687-94.925c7.776-23.264,6.669-48.11-2.532-70.777
		C1902.85,1702.341,1887.462,1681.951,1876.186,1659.286z M1891.074,1786.466c-4.583,21.387-16.574,38.721-32.661,53.083
		c-14.329,12.792-33.992,23.008-54.025,27.448c-58.479,12.15-117.393-7.984-171.636-28.291
		c-54.925-20.562-111.845-43.417-171.604-41.028c-54.519,2.179-104.683,24.505-157.055,37.194
		c-24.635,5.969-49.953,9.578-75.26,6.139c-24.492-3.328-47.093-14.373-68.321-26.483c-22.182-12.655-43.652-26.5-66.98-37.032
		c-25.939-11.711-53.739-16.784-82.172-15.313c-30.574,1.581-60.237,8.857-89.825,16.22c-29.059,7.232-58.691,14.564-88.834,14.214
		c-43.393-0.504-94.692-23.345-103.055-70.667c-1.715-9.703-0.754-19.669,2.188-28.814c2.971-9.237,8.161-17.828,14.074-24.712
		c14.024-16.327,31.441-27.153,52.087-35.145c10.225-3.958,21.216-5.96,32.546-9.076c11.624-3.197,23.058-7.235,33.978-12.353
		c21.738-10.188,41.593-24.031,58.728-40.839c16.47-16.156,30.384-35.392,40.321-56.223c10.268-21.523,15.462-45.074,27.654-65.71
		c11.083-18.759,26.509-32.798,48.304-38.687c24.683-6.669,50.651-4.593,75.883-3.458c26.432,1.188,53.179,1.607,78.971-5.195
		c26.253-6.923,50.458-19.275,73.139-34.018c44.415-28.871,83.007-65.637,127.919-93.891c43.522-27.38,91.994-47.596,143.597-51.321
		c43.307-3.126,90.321,1.864,126.412,28.055c18.195,13.204,32.384,31.168,38.862,52.817c3.204,10.706,4.728,21.821,7.865,32.525
		c3.267,11.148,8.786,22.014,16.179,30.995c7.376,8.96,16.456,16.676,26.831,21.927c10.395,5.262,21.737,7.723,32.337,12.474
		c19.964,8.946,37.74,23.425,50.748,40.968c12.82,17.289,21.313,38.173,21.58,59.886c0.329,26.801-9.552,52.157-15.962,77.8
		c-6.581,26.328-9.415,53.28,0.141,79.279c8.563,23.297,23.359,43.396,34.964,65.146
		C1889.153,1743.424,1895.711,1764.828,1891.074,1786.466z"/>
	<path d="M806.966,1184.932c23.129,7.746,47.375,12.524,71.716,14.128c44.472,2.931,89.521-5.45,130.385-23.084
		c18.756-8.094,36.733-18.22,53.493-29.891c34.222-24.125,55.825-64.032,63.369-104.621c8.133-43.754-3.406-88.807-35.432-120.375
		c-19.398-19.121-44.43-31.681-70.308-39.558c-17.065-5.195-34.74-8.39-52.444-10.428c-20.652-2.377-41.451-2.433-62.016-5.727
		c-17.192-2.754-35.916-7.611-53.011-13.657c-8.079-2.857-16.04-6.042-23.878-9.505c-8.038-3.552-12.504-5.734-20.421-9.839
		c-27.089-14.047-52.639-30.839-79.697-44.935c-28.544-14.871-58.301-25.8-90.44-29.403c-41.628-4.666-85.11,4.714-121.812,24.67
		c-19.362,10.527-37.14,23.536-52.559,39.336c-15.52,15.903-27.745,34.587-38.881,53.716c-11.049,18.98-21.318,38.537-34.503,56.169
		c-4.869,6.511-12.954,15.289-20.262,21.819c-0.122,0.095-1.543,1.325-1.832,1.564c-1.039,0.86-2.087,1.711-3.144,2.548
		c-2.116,1.676-4.266,3.31-6.443,4.905c-4.367,3.2-8.847,6.242-13.391,9.184c-36.763,23.797-77.647,41.581-104.537,77.618
		c-22.796,30.551-36.285,76.834-10.51,109.828c28.446,36.413,83.146,36.908,124.161,27.557
		c47.652-10.864,89.69-36.034,133.344-56.865c41.213-19.666,88.227-37.671,134.542-26.649c42.808,10.187,81.835,33.27,120.675,53.11
		C763.87,1167.142,784.838,1177.52,806.966,1184.932z M635.389,1078.862c-23.813-5.369-48.421-4.759-72.284,0.021
		c-47.245,9.463-89.215,33.3-131.97,54.315c-39.464,19.398-81.578,37.544-126.569,32.883c-16.697-1.73-36.102-8.247-47.695-21.602
		c-11.558-13.315-14.655-28.997-11.806-46.167c0.371-2.235,1.53-6.716,2.681-10.277c1.301-4.025,3.384-9.229,4.463-11.366
		c2.082-4.125,4.322-8.152,6.818-12.044c1.188-1.852,2.421-3.675,3.701-5.465c-0.17,0.238,1.251-1.675,1.648-2.229
		c0.55-0.672,2.008-2.48,2.358-2.898c2.807-3.344,5.778-6.551,8.905-9.598c0.688-0.67,1.383-1.333,2.086-1.987
		c-0.085,0.079,0.88-0.795,1.536-1.396c0.612-0.508,1.977-1.671,1.882-1.594c1.266-1.027,2.55-2.034,3.842-3.028
		c8.417-6.474,17.31-12.301,26.359-17.848c17.888-10.966,36.457-20.844,53.785-32.707c18.931-12.96,35.215-28.352,48.943-46.724
		c25.058-33.536,40.219-74.589,68.816-103.915c3.191-3.273,6.514-6.404,9.919-9.453c0.194-0.174,0.352-0.316,0.5-0.449
		c0.092-0.072,0.246-0.197,0.503-0.411c0.975-0.812,1.953-1.621,2.942-2.417c1.978-1.591,3.988-3.143,6.027-4.655
		c3.876-2.874,7.859-5.603,11.936-8.185c4.854-3.074,7.548-4.591,11.033-6.408c18.259-9.518,34.278-15.004,53.918-18.492
		c18.095-3.214,36.162-3.533,55.271-0.918c1.009,0.138,2.016,0.285,3.023,0.437c0.188,0.029,0.311,0.046,0.408,0.06
		c0.159,0.029,0.334,0.061,0.545,0.1c1.764,0.321,3.529,0.636,5.287,0.989c4.022,0.806,8.02,1.733,11.987,2.777
		c6.973,1.835,13.848,4.032,20.609,6.536c6.794,2.517,13.469,5.344,20.037,8.4c0.75,0.349,1.497,0.701,2.244,1.056
		c0.136,0.066,0.288,0.141,0.478,0.234c1.658,0.812,3.312,1.634,4.96,2.469c3.298,1.672,6.571,3.392,9.825,5.148
		c12.871,6.944,25.433,14.439,38.053,21.823c27.471,16.075,55.533,31.363,85.622,42.003c17.305,6.12,35.123,10.669,53.226,13.691
		c20.794,3.472,41.637,4.06,62.563,6.123c9.005,0.888,17.101,2.002,24.663,3.426c7.955,1.498,15.849,3.329,23.629,5.567
		c6.911,1.988,13.734,4.295,20.408,6.977c3.126,1.256,6.209,2.606,9.268,4.017c0.118,0.054,0.209,0.096,0.281,0.128
		c0.069,0.035,0.122,0.062,0.201,0.101c0.608,0.306,1.22,0.605,1.827,0.913c1.791,0.909,3.565,1.849,5.322,2.823
		c10.358,5.745,20.09,12.659,28.676,20.833c0.365,0.348,0.726,0.7,1.087,1.052c0.038,0.041,0.07,0.076,0.114,0.123
		c0.958,1.034,1.947,2.036,2.894,3.081c1.858,2.048,3.645,4.162,5.354,6.336c3.151,4.007,6.036,8.223,8.625,12.615
		c1.264,2.145,2.456,4.331,3.576,6.555c0.405,0.803,1.167,2.453,1.053,2.178c0.468,1.057,0.931,2.115,1.369,3.186
		c1.837,4.491,3.388,9.098,4.652,13.782c1.286,4.763,2.274,9.605,2.978,14.487c0.162,1.124,0.3,2.25,0.441,3.376
		c0.041,0.327,0.071,0.552,0.096,0.733c0.011,0.179,0.026,0.398,0.049,0.713c0.186,2.513,0.338,5.025,0.402,7.544
		c0.247,9.833-0.777,19.468-2.278,29.164c0.05-0.241,0.108-0.516,0.179-0.852c-0.072,0.338-0.138,0.678-0.205,1.018
		c-0.062,0.388-0.188,0.965-0.203,0.998c-0.224,1.048-0.445,2.097-0.685,3.141c-0.561,2.442-1.179,4.871-1.854,7.284
		c-1.31,4.682-2.832,9.303-4.554,13.849c-0.833,2.198-1.714,4.379-2.641,6.54c-0.404,0.942-0.852,1.871-1.245,2.817
		c-0.219,0.458-0.436,0.916-0.659,1.371c-2.078,4.248-4.341,8.405-6.788,12.451c-2.394,3.958-4.961,7.811-7.708,11.533
		c-0.099,0.134-0.199,0.268-0.299,0.401c-0.571,0.701-1.119,1.421-1.691,2.121c-1.447,1.771-2.937,3.507-4.472,5.203
		c-2.848,3.146-5.87,6.098-8.988,8.973c-0.018,0.016-0.037,0.032-0.055,0.048c-0.63,0.504-1.241,1.035-1.871,1.538
		c-1.661,1.324-3.365,2.593-5.101,3.817c-3.854,2.683-7.759,5.288-11.735,7.787c-1.901,1.194-3.815,2.367-5.743,3.516
		c-1.076,0.641-2.157,1.275-3.242,1.902c-0.513,0.298-1.028,0.591-1.543,0.885c-0.217,0.12-0.506,0.279-0.882,0.487
		c-8.546,4.598-17.248,8.855-26.2,12.607c-18.865,7.906-36.251,12.959-57.122,16.389c-43.07,7.078-88.118,1.954-129.591-13.295
		c-41.3-15.186-79.058-38.947-118.909-57.402C675.634,1091.708,655.932,1083.494,635.389,1078.862z"/>
	<path d="M1943.954,423.394c-12.87-12.727-27.609-23.328-44.162-30.773c-17.198-7.735-36.256-10.136-54.959-10.557
		c-11.497-0.259-22.954,0.49-34.383,1.698c-10.432,1.102-20.646,3.433-31.037,4.695c-0.29,0.035-0.484,0.062-0.609,0.082
		c-0.245,0.01-0.533,0.023-0.882,0.039c-1.044,0.049-2.084,0.123-3.129,0.16c-2.08,0.075-4.163,0.083-6.244,0.025
		c-1.798-0.05-3.602-0.143-5.396-0.301c-0.371-0.06-1.842-0.244-2.214-0.298c-1.277-0.186-2.55-0.393-3.818-0.629
		c-9.302-1.726-15.216-3.781-24.07-8.397c-15.2-7.924-27.705-23.806-42.106-35.113c-15.648-12.286-33.392-23.001-52.301-29.402
		c-37.858-12.817-80.763-12-118.772-0.224c-19.473,6.034-37.889,14.631-54.729,26.183c-15.367,10.542-28.888,23.481-42.122,36.526
		c-24.276,23.928-48.444,50.467-80.288,62.235c-18.703,6.912-38.25,7.783-58.365,7.99c-20.122,0.207-40.311-0.731-60.379,1.147
		c-35.632,3.334-74.714,14.195-96.638,44.794c-21.615,30.168-18.727,70.105-3.005,102.212
		c17.146,35.016,47.855,61.401,83.321,76.906c9.308,4.069,19,7.341,28.806,9.979c9.26,2.491,18.777,3.661,28.05,6.049
		c6.726,1.732,15.036,4.942,22.807,8.974c6.341,3.29,13.874,8.434,20.341,13.887c13.428,11.324,22.611,27.385,34.789,40.648
		c13.762,14.989,29.733,27.492,47.84,36.812c36.627,18.854,80.773,21.197,119.845,8.995c10.288-3.213,20.244-7.169,29.727-12.317
		c4.278-2.323,7.771-4.6,11.385-6.347c2.101-1.015,4.251-1.909,6.441-2.711c0.42-0.154,0.628-0.24,0.701-0.282
		c0.235-0.061,0.512-0.134,0.849-0.223c1.234-0.329,2.471-0.64,3.72-0.91c2.022-0.438,4.083-0.817,6.144-1.048
		c-0.512,0.101,3.814-0.122,4.235-0.125c1.789-0.009,3.585,0.05,5.37,0.187c0.397,0.047,1.077,0.124,1.261,0.157
		c1.503,0.268,3.011,0.488,4.505,0.807c7.51,1.6,14.643,4.859,21.431,9.777c33.631,24.366,69.472,46.867,110.371,56.545
		c70.385,16.656,154.435-8.373,187.636-76.462c7.775-15.945,12.093-33.317,14.348-50.856c1.919-14.922,1.028-29.468,1.002-44.414
		c-0.017-9.655,1.772-18.933,5.382-27.891c3.295-8.176,8.275-14.812,13.662-21.703c11.742-15.022,22.374-30.948,31.101-47.918
		c8.345-16.225,14.675-33.929,15.369-52.318C1985.522,483.556,1969.441,448.596,1943.954,423.394z M1939.352,568.195
		c-8.096,15.297-18.316,29.557-29.08,43.076c-12.429,15.611-19.931,34.018-20.902,54.05c-0.359,7.415,0.461,14.847,0.485,22.269
		c0.024,7.222-0.309,14.446-1.048,21.631c-1.608,15.647-5.483,31.278-12.201,46.144c-6.734,14.903-17.285,28.725-28.933,38.431
		c-12.599,10.498-24.53,16.826-40.478,22.314c-0.69,0.237-1.384,0.467-2.079,0.694c-0.355,0.106-1.034,0.313-1.2,0.36
		c-1.852,0.521-3.7,1.053-5.565,1.529c-4.2,1.073-8.442,1.985-12.713,2.73c-3.546,0.619-7.114,1.136-10.694,1.524
		c0.136-0.034-3.19,0.253-3.959,0.304c-2.396,0.157-4.795,0.266-7.195,0.325c-3.823,0.094-7.65,0.067-11.471-0.087
		c-2.137-0.086-4.273-0.212-6.406-0.376c-0.167-0.013-0.777-0.063-1.302-0.104c-0.648-0.073-2.246-0.237-2.469-0.265
		c-7.834-0.963-15.607-2.46-23.219-4.551c-17.283-4.747-35.721-13.252-51.966-22.693c-8.419-4.892-16.587-10.236-24.595-15.77
		c-8.478-5.859-16.513-12.365-25.515-17.419c-17.342-9.737-37.79-12.771-57.349-9.877c-19.879,2.941-34.811,14.999-53.038,21.975
		c-16.253,6.221-33.369,8.949-50.97,8.315c-8.618-0.31-15.894-1.384-25.436-3.82c-7.98-2.037-15.75-5.084-23.909-9.22
		c-14.362-7.28-28.707-18.773-39.974-31.534c-6.1-6.909-11.121-14.548-16.819-21.76c-5.746-7.272-12.295-13.966-19.308-20.018
		c-13.519-11.667-29.616-20.786-46.58-26.356c-9.233-3.031-18.472-4.786-27.959-6.72c-9.557-1.948-16.865-4.05-25.205-7.25
		c-17.075-6.553-31.583-14.947-45.561-26.774c-24.667-20.872-42.721-52.223-43.09-84.827c-0.173-15.305,3.955-30.046,13.32-42.108
		c4.799-6.18,9.352-10.227,16.274-14.843c0.783-0.522,1.581-1.018,2.373-1.526c0.104-0.067,0.808-0.484,1.097-0.66
		c1.496-0.84,3.023-1.628,4.564-2.38c3.882-1.896,7.877-3.552,11.945-5.003c0.913-0.326,1.831-0.639,2.751-0.945
		c-0.611,0.203-2.22,0.637,0.598-0.176c1.882-0.542,3.766-1.072,5.665-1.552c4.303-1.087,8.652-1.989,13.027-2.734
		c3.69-0.628,7.401-1.132,11.12-1.553c0.259-0.01,3.275-0.301,4.013-0.357c2.44-0.185,4.882-0.332,7.326-0.443
		c20.107-0.911,40.247,0.161,60.359-0.588c21.609-0.805,43.19-3.567,63.46-11.433c16.546-6.42,31.704-16.393,45.305-27.699
		c26.812-22.288,47.97-49.14,75.793-69.857c14.557-10.839,30.121-18.718,47.688-24.619c0.027-0.009,1.074-0.34,1.429-0.455
		c0.916-0.279,1.835-0.549,2.756-0.812c2.085-0.596,4.182-1.153,6.286-1.676c4.736-1.177,9.519-2.164,14.332-2.968
		c8.977-1.5,15.156-2.052,25.145-2.135c16.554-0.139,34.423,2.046,48.83,7.416c17.328,6.459,32.34,16.001,46.616,27.824
		c7.333,6.073,13.707,13.013,20.736,19.4c7.035,6.393,15.025,11.618,23.443,16.007c16.824,8.771,36.376,13.103,55.321,12.717
		c10.642-0.216,20.879-2.394,31.341-4.026c9.989-1.558,18.53-2.363,28.914-2.652c4.633-0.129,9.268-0.126,13.9,0.035
		c2.494,0.087,4.987,0.216,7.476,0.401c0.858,0.063,1.716,0.136,2.573,0.214c0.301,0.041,1.681,0.195,2.149,0.255
		c3.917,0.5,7.815,1.15,11.67,2.011c1.848,0.413,3.671,0.898,5.495,1.398c-1.55-0.402,2.842,0.993,3.472,1.242
		c14.266,5.64,26.602,13.891,37.96,24.717c11.15,10.628,21.091,24.622,27.358,38.947c6.454,14.753,9.58,29.809,9.251,45.858
		C1954.139,536.73,1947.307,553.164,1939.352,568.195z"/>
</g>
</svg>
