<?xml version="1.0" encoding="utf-8"?>
<!-- Generator: Adobe Illustrator 27.5.0, SVG Export Plug-In . SVG Version: 6.00 Build 0)  -->
<svg version="1.1" id="Layer_1" xmlns="http://www.w3.org/2000/svg" xmlns:xlink="http://www.w3.org/1999/xlink" x="0px" y="0px"
	 viewBox="0 0 4000 4000" style="enable-background:new 0 0 4000 4000;" xml:space="preserve">
<g>
	<g>
		<rect style="fill:#FFFFFF;" width="4000" height="4000"/>
	</g>
</g>
<g>
	<g>
		<g>
			<path style="fill:none;stroke:#000000;stroke-width:22;stroke-miterlimit:10;" d="M2761.101,1522.566
				c0-53.73-43.313-97.287-96.743-97.287c-0.085,0-0.17,0.003-0.255,0.003c-3.598-50.432-45.42-90.224-96.488-90.224
				c-20.971,0-40.383,6.713-56.229,18.115c-9.03-9.793-20.038-17.711-32.387-23.115c-13.66-37.064-49.13-63.481-90.738-63.481
				c-43.512,0-80.311,28.888-92.475,68.632c-1.773-0.097-3.558-0.151-5.355-0.151c-53.43,0-96.743,43.557-96.743,97.287
				c0,6.456,0.632,12.763,1.825,18.868c-47.09,6.559-83.35,47.195-83.35,96.354c0,53.73,43.313,97.287,96.743,97.287
				c1.028,0,2.05-0.022,3.07-0.054c10.768,41.918,48.624,72.883,93.673,72.883c14.477,0,28.209-3.204,40.54-8.935
				c9.931,43.111,48.358,75.242,94.248,75.242c51.177,0,93.065-39.962,96.508-90.547c15.744,11.16,34.946,17.718,55.672,17.718
				c52.531,0,95.281-42.104,96.704-94.584C2730.65,1605.506,2761.101,1567.615,2761.101,1522.566z"/>
		</g>
	</g>
	<g>
		<g>
			<path style="fill:none;stroke:#000000;stroke-width:22;stroke-miterlimit:10;" d="M2748.04,536.71
				c0.441-3.704,0.674-7.472,0.674-11.296c0-51.94-41.87-94.045-93.52-94.045c-19.972,0-38.48,6.3-53.672,17.027
				c-16.923-17.012-40.298-27.534-66.117-27.534c-23.792,0-45.504,8.939-62.009,23.654c0.004-0.354,0.013-0.707,0.013-1.062
				c0-51.94-41.87-94.045-93.52-94.045c-51.65,0-93.52,42.105-93.52,94.045c0,0.355,0.01,0.708,0.013,1.062
				c-16.505-14.715-38.217-23.654-62.009-23.654c-51.649,0-93.52,42.105-93.52,94.045c0,15.636,3.799,30.379,10.513,43.352
				c-40.471,10.346-70.408,47.23-70.408,91.148c0,51.94,41.87,94.045,93.52,94.045c4.606,0,9.132-0.341,13.559-0.987
				c-8.604,14.227-13.559,30.93-13.559,48.798c0,51.94,41.87,94.045,93.52,94.045c27.268,0,51.807-11.739,68.901-30.462
				c16.427,14.39,37.899,23.106,61.396,23.106c49.471,0,89.964-38.631,93.292-87.53c15.219,10.788,33.781,17.128,53.817,17.128
				c41.282,0,76.314-26.9,88.715-64.22c1.591,0.081,3.193,0.122,4.805,0.122c26.171,0,49.826-10.815,66.801-28.237
				c4.268,0.6,8.626,0.917,13.059,0.917c51.649,0,93.52-42.105,93.52-94.045C2802.303,584.247,2780.077,551.632,2748.04,536.71z"/>
		</g>
	</g>
	<path style="fill:none;stroke:#000000;stroke-width:22;stroke-miterlimit:10;" d="M3730.454,2557.367
		c-1.652-27.218-14.855-51.001-34.579-66.929c13.368-17.269,20.768-39.229,19.344-62.683c-2.997-49.38-44.009-87.459-93.021-87.819
		c9.847-15.845,15.05-34.757,13.836-54.756c-2.501-41.206-31.474-74.544-69.476-84.662c-0.015-1.593-0.072-3.195-0.169-4.803
		c-3.129-51.554-47.693-90.797-99.537-87.651s-91.336,47.49-88.207,99.045c0.19,3.131,0.536,6.215,1.024,9.248
		c-1.089-0.445-2.191-0.863-3.299-1.267c-16.044-28.586-46.525-47.89-81.494-47.89c-51.649,0-93.52,42.105-93.52,94.045
		c0,0.355,0.009,0.708,0.013,1.062c-16.505-14.715-38.217-23.654-62.009-23.654c-51.65,0-93.52,42.105-93.52,94.045
		c0,15.636,3.799,30.379,10.513,43.352c-40.471,10.346-70.408,47.23-70.408,91.148c0,51.939,41.87,94.045,93.52,94.045
		c4.606,0,9.132-0.341,13.559-0.988c-8.604,14.227-13.559,30.93-13.559,48.798c0,51.939,41.87,94.045,93.52,94.045
		c27.268,0,51.807-11.739,68.901-30.462c16.427,14.39,37.899,23.106,61.396,23.106c4.478,0,8.88-0.324,13.189-0.935
		c15.271,8.598,33.136,13.05,51.964,11.907c15.608-0.947,30.093-5.633,42.635-13.12c12.779,39.77,51.409,67.417,95.246,64.757
		c51.844-3.146,91.336-47.49,88.207-99.045c-0.279-4.597-0.893-9.094-1.807-13.474c14.721,7.726,31.695,11.661,49.53,10.578
		C3694.092,2653.265,3733.583,2608.921,3730.454,2557.367z"/>
	<path style="fill:none;stroke:#000000;stroke-width:22;stroke-miterlimit:10;" d="M927.378,2529.533
		c-0.802-16.031-8.87-29.975-20.854-38.813c7.72-14.595,11.746-31.385,10.861-49.072c-1.849-36.932-24.569-67.854-56.162-81.981
		c4.903-8.347,7.515-18.165,6.995-28.556c-1.419-28.353-25.553-50.186-53.906-48.767c-8.67,0.434-16.725,3.001-23.697,7.154
		c-17.691-26.228-48.063-42.958-81.852-41.861c0.184-3.333,0.205-6.706,0.034-10.114c-2.622-52.39-47.219-92.734-99.608-90.112
		c-36.026,1.803-66.356,23.455-80.935,53.84c-15.988-10.12-35.133-15.597-55.467-14.579c-36.502,1.827-67.136,24.041-81.485,55.06
		c-3.576-0.226-7.197-0.275-10.861-0.091c-52.39,2.622-92.734,47.219-90.112,99.608c0.613,12.249,3.545,23.824,8.31,34.361
		c-8.439,9.677-13.296,22.501-12.603,36.338c0.62,12.389,5.578,23.533,13.33,32.036c-25.635,18.154-41.739,48.604-40.052,82.3
		c2.268,45.307,35.935,81.58,78.879,88.871c-1.556,5.351-2.275,11.043-1.981,16.922c1.419,28.352,25.554,50.186,53.906,48.766
		c8.616-0.431,16.624-2.97,23.566-7.079c17.576,28.633,49.828,47.038,85.749,45.24c36.255-1.815,66.729-23.737,81.199-54.426
		c18.456,20.27,45.496,32.433,75.013,30.956c38.171-1.911,69.926-26.114,83.349-59.369c16.484,11.193,36.608,17.319,58.041,16.246
		c41.95-2.1,76.151-31.122,86.78-69.498C909.587,2579.004,928.709,2556.124,927.378,2529.533z"/>
	<path style="fill:none;stroke:#000000;stroke-width:22;stroke-miterlimit:10;" d="M1879.743,2550.912
		c-0.637-12.721-7.039-23.785-16.547-30.798c6.125-11.581,9.321-24.904,8.618-38.939c-1.466-29.306-19.495-53.842-44.565-65.053
		c3.891-6.624,5.964-14.414,5.551-22.659c-1.126-22.498-20.277-39.823-42.775-38.697c-4.806,0.24-9.372,1.31-13.576,3.052
		c-9.716-32.472-40.591-55.383-75.956-53.612c-15.103,0.756-28.932,5.924-40.336,14.172c-13.091-13.844-31.319-22.676-51.446-23.542
		c-0.005-0.115-0.002-0.227-0.008-0.342c-2.081-41.572-37.468-73.585-79.04-71.504c-28.964,1.45-53.273,19.077-64.659,43.69
		c-2.838-0.18-5.711-0.218-8.619-0.073c-15.427,0.772-29.53,6.138-41.07,14.696c-5.341-1.466-10.902-2.377-16.625-2.623
		c-0.005-0.115-0.002-0.227-0.008-0.342c-2.081-41.572-37.468-73.585-79.04-71.504c-28.965,1.45-53.273,19.077-64.659,43.69
		c-2.838-0.18-5.711-0.218-8.619-0.073c-41.572,2.081-73.585,37.468-71.504,79.04c0.487,9.719,2.813,18.905,6.594,27.266
		c-6.697,7.679-10.55,17.855-10,28.835c0.491,9.831,4.426,18.673,10.577,25.421c-20.341,14.405-33.119,38.568-31.782,65.305
		c1.8,35.951,28.515,64.734,62.591,70.52c-1.235,4.246-1.805,8.763-1.571,13.428c1.126,22.498,20.277,39.823,42.775,38.696
		c6.837-0.342,13.191-2.357,18.699-5.617c13.947,22.721,39.539,37.325,68.042,35.898c16.763-0.839,31.966-7.099,44.012-16.99
		c14.454,19.987,38.401,32.497,64.871,31.172c17.562-0.879,33.395-7.724,45.693-18.448c14.41,13.574,34.111,21.488,55.444,20.42
		c16.763-0.839,31.966-7.099,44.012-16.99c14.454,19.987,38.401,32.497,64.871,31.173c24.859-1.244,46.291-14.404,59.069-33.669
		c14.566,14.837,35.159,23.625,57.558,22.504c33.287-1.666,60.427-24.695,68.86-55.147
		C1865.625,2590.167,1880.799,2572.012,1879.743,2550.912z"/>
	<g>
		<g>
			<path style="fill:none;stroke:#000000;stroke-width:22;stroke-miterlimit:10;" d="M2713.96,2415.328
				c11.436-14.313,18.277-32.457,18.277-52.201c0-46.225-37.473-83.698-83.698-83.698c-26.785,0-50.63,12.583-65.95,32.159
				c0.553-3.887,0.846-7.858,0.846-11.899c0-46.225-37.473-83.698-83.698-83.698c-39.716,0-72.971,27.663-81.549,64.772
				c-2.778-1.563-5.651-2.974-8.614-4.217c-13.057-30.898-43.498-51.125-77.088-51.125c-40.565,0-74.775,29.492-82.199,68.026
				c-14.447,3.626-27.402,11.007-37.77,21.045c-1.039-0.038-2.08-0.064-3.128-0.064c-46.225,0-83.698,37.473-83.698,83.698
				c0,15.452,4.192,29.924,11.494,42.347c-7.301,12.423-11.492,26.892-11.492,42.343c0,46.225,37.473,83.698,83.698,83.698
				c4.382,0,8.685-0.338,12.885-0.987c14.787,23.663,41.066,39.408,71.026,39.408c22.412,0,42.766-8.81,57.79-23.154
				c7.091,39.04,41.26,68.645,82.345,68.645c32.506,0,60.683-18.53,74.546-45.603c8.151-0.204,16.01-1.579,23.421-3.953
				c8.057,2.581,16.643,3.979,25.557,3.979c32.389,0,60.478-18.399,74.393-45.313c9.997,4.219,20.985,6.553,32.519,6.553
				c46.225,0,83.698-37.473,83.698-83.698C2747.571,2454.949,2734.364,2430.592,2713.96,2415.328z"/>
		</g>
	</g>
	<g>
		<g>
			<path style="fill:none;stroke:#000000;stroke-width:22;stroke-miterlimit:10;" d="M2796.131,3328.49
				c0-36.94-23.933-68.289-57.138-79.393c0.275-2.765,0.419-5.568,0.419-8.405c0-46.225-37.473-83.698-83.698-83.698
				c-7.424,0-14.62,0.971-21.473,2.785c-13.429-28.288-42.253-47.85-75.649-47.85c-25.277,0-47.937,11.205-63.284,28.919
				c-14.198-11.089-32.064-17.699-51.475-17.699c-22.609,0-43.12,8.968-58.181,23.536c-15.346-18.902-38.765-30.984-65.009-30.984
				c-46.225,0-83.698,37.473-83.698,83.698c0,4.399,0.341,8.718,0.995,12.933c-5.11-0.975-10.382-1.491-15.776-1.491
				c-38.357,0-70.686,25.803-80.58,60.997c-29.716,12.849-50.513,42.421-50.513,76.855c0,2.457,0.112,4.887,0.32,7.291
				c-9.003,13.348-14.26,29.432-14.26,46.744c0,46.225,37.473,83.698,83.698,83.698c0.072,0,0.144-0.002,0.216-0.003
				c0.114,46.128,37.54,83.488,83.695,83.488c29.232,0,54.959-14.989,69.927-37.698c14.926,22.947,40.793,38.124,70.208,38.124
				c32.506,0,60.683-18.53,74.546-45.603c8.151-0.204,16.01-1.578,23.421-3.953c8.057,2.581,16.643,3.979,25.557,3.979
				c41.162,0,75.384-29.713,82.386-68.861c15.352,18.591,38.577,30.44,64.571,30.44c44.452,0,80.805-34.656,83.528-78.423
				C2772.145,3396.846,2796.131,3365.47,2796.131,3328.49z"/>
		</g>
	</g>
	<path style="fill:none;stroke:#000000;stroke-width:22;stroke-miterlimit:10;" d="M1221.378,1523.364
		c-4.203,11.685-6.492,24.282-6.492,37.413c0,55.552,40.963,101.531,94.333,109.387c20.234,22.389,49.507,36.462,82.063,36.462
		c23.568,0,45.416-7.374,63.361-19.941c11.096,49.339,55.178,86.198,107.873,86.198c52.88,0,97.087-37.116,107.993-86.718
		c18.083,12.885,40.206,20.462,64.101,20.462c61.068,0,110.57-49.503,110.57-110.57c0-40.7-21.989-76.268-54.739-95.461
		c10.958-17.162,17.308-37.551,17.308-59.424c0-61.067-49.503-110.57-110.57-110.57c-8.14,0-16.078,0.878-23.719,2.551
		c-20.247-25.663-51.624-42.133-86.852-42.133c-25.724,0-49.391,8.781-68.175,23.512c-20.242-22.617-49.662-36.85-82.407-36.85
		c-43.277,0-80.747,24.863-98.907,61.085c-12.89-5.266-26.997-8.166-41.78-8.166c-61.068,0-110.57,49.503-110.57,110.57
		C1184.77,1473.801,1198.903,1503.126,1221.378,1523.364z"/>
	<g>
		<path style="fill:none;stroke:#000000;stroke-width:22;stroke-miterlimit:10;" d="M865.805,3417.617
			c3.058,10.666,4.696,21.933,4.696,33.584c0,67.196-54.471,121.667-121.667,121.667c-13.147,0-25.806-2.083-37.665-5.941
			c-15.409,49.519-61.6,85.474-116.194,85.474c-53.316,0-98.616-34.289-115.058-82.018c-15.419,7.068-32.566,11.007-50.636,11.007
			c-67.196,0-121.667-54.471-121.667-121.667c0-11.158,1.501-21.971,4.318-32.235c-38.862-20.314-65.388-61.004-65.388-107.895
			c0-62.069,46.475-113.278,106.522-120.734c-0.005-0.308-0.005-0.62-0.005-0.933c0-54.646,44.297-98.943,98.943-98.943
			c10.699,0,20.996,1.695,30.644,4.833c11.068-42.545,49.746-73.952,95.757-73.952c47.28,0,86.814,33.163,96.614,77.493
			c15.533-7.2,32.841-11.215,51.09-11.215c67.196,0,121.667,54.471,121.667,121.667c0,0.147,0,0.289-0.005,0.436
			c51.777,4.772,92.32,48.326,92.32,101.348C940.092,3366.276,908.663,3405.621,865.805,3417.617z"/>
	</g>
	<path style="fill:none;stroke:#000000;stroke-width:22;stroke-miterlimit:10;" d="M1891.192,3347.448
		c0-38.078-25.181-70.279-59.801-80.849c0.034-1.219,0.053-2.443,0.053-3.672c0-68.948-55.891-124.839-124.839-124.839
		c-30.544,0-58.524,10.968-80.222,29.184c-19.916-42.499-63.075-71.93-113.108-71.93c-50.266,0-93.59,29.704-113.38,72.518
		c-21.791-18.566-50.047-29.772-80.922-29.772c-65.834,0-119.768,50.96-124.499,115.59c-33.585,22.374-55.716,60.588-55.716,103.971
		c0,62.303,45.632,113.944,105.302,123.319c17.57,47.672,63.401,81.67,117.174,81.67c16.972,0,33.153-3.385,47.905-9.521
		c19.09,20.781,46.492,33.809,76.934,33.809c25.643,0,49.124-9.239,67.301-24.574c22.923-1.545,44.15-9.278,62.021-21.543
		c22.053,19.624,51.111,31.545,82.952,31.545c68.948,0,124.839-55.891,124.839-124.839c0-5.747-0.389-11.406-1.142-16.943
		C1861.386,3423.347,1891.192,3388.878,1891.192,3347.448z"/>
	<g>
		<path style="fill:none;stroke:#000000;stroke-width:22;stroke-miterlimit:10;" d="M3752.428,3377.55
			c7.673,16.232,11.89,33.951,11.89,52.507c0,78.013-74.563,141.258-166.537,141.258c-7.704,0-15.288-0.444-22.717-1.304
			c-16.343,31.915-53.837,54.237-97.474,54.237c-25.098,0-48.161-7.384-66.336-19.727c-25.719,13.802-56.206,21.79-88.892,21.79
			c-63.568,0-118.82-30.212-146.881-74.629c-28.242,18.698-63.772,29.835-102.371,29.835c-91.974,0-166.537-63.244-166.537-141.257
			c0-60.268,44.501-111.724,107.156-132.01c-1.056-6.427-1.601-12.995-1.601-19.67c0-64.353,50.742-118.66,120.137-135.7
			c21.918-56.295,84.448-96.92,158.164-96.92c70.629,0,130.99,37.294,155.201,89.93c28.185-18.561,63.586-29.613,102.033-29.613
			c71.139,0,131.86,37.831,155.72,91.07c0.133-0.004,0.262-0.004,0.395-0.004c58.663,0,106.22,40.337,106.22,90.094
			C3810,3332.325,3786.623,3362.581,3752.428,3377.55z"/>
	</g>
	<g>
		<g>
			<path style="fill:none;stroke:#000000;stroke-width:22;stroke-miterlimit:10;" d="M1821.155,678.299
				c2.829,8.994,4.352,18.572,4.352,28.501c0,52.449-42.52,94.969-94.969,94.969c-23.843,0-45.635-8.788-62.307-23.3
				c-16.07,53.032-65.327,91.637-123.61,91.637c-43.851,0-82.597-21.858-105.938-55.268c0.985-0.432,1.96-0.884,2.93-1.347
				c-1.96-0.924-3.889-1.899-5.794-2.929c0.925,1.447,1.879,2.869,2.864,4.276c-15.999,7.105-33.711,11.049-52.343,11.049
				c-68.121,0-123.916-52.74-128.79-119.615c-65.835-5.914-117.424-61.237-117.424-128.609c0-71.322,57.815-129.137,129.137-129.137
				c8.818,0,17.426,0.884,25.747,2.568c8.758-49.157,51.715-86.482,103.39-86.482c47.7,0,87.969,31.802,100.767,75.357
				c23.616-30.556,60.629-50.233,102.234-50.233c59.629,0,109.822,40.415,124.675,95.35c16.27-9.813,35.334-15.456,55.715-15.456
				c59.664,0,108.033,48.368,108.033,108.033C1889.824,623.438,1861.354,662.561,1821.155,678.299z"/>
		</g>
	</g>
	<path style="fill:none;stroke:#000000;stroke-width:22;stroke-miterlimit:10;" d="M3698.719,1455.187
		c0-37.576-19.185-70.674-48.294-90.025c-13.974-63.901-67.368-111.471-131.093-111.471c-30.274,0-58.218,10.738-80.709,28.863
		c-19.26-24.752-47.771-40.42-79.583-40.42c-22.808,0-43.917,8.055-61.137,21.733c-17.718-13.627-39.897-21.733-63.981-21.733
		c-57.67,0-104.476,46.48-105.014,104.019c-61.429,0.518-111.054,48.796-111.054,108.28c0,35.923,18.104,67.765,45.972,87.462
		c-1.156,6.934-1.754,14.059-1.754,21.325c0,67.589,51.922,123.048,118.059,128.666c9.451,62.006,63.006,109.511,127.656,109.511
		c37.415,0,71.111-15.909,94.693-41.334c23.672,29.491,60.017,48.369,100.773,48.369c71.323,0,129.138-57.816,129.138-129.138
		c0-2.105-0.05-4.196-0.151-6.276c35.646-13.677,60.951-48.233,60.951-88.693c0-22.24-7.643-42.691-20.446-58.871
		C3688.941,1506.56,3698.719,1482.014,3698.719,1455.187z"/>
	<path style="fill:none;stroke:#000000;stroke-width:22;stroke-miterlimit:10;" d="M960.134,1531.44
		c0-37.127-24.552-68.523-58.307-78.829c0.033-1.189,0.052-2.382,0.052-3.581c0-67.225-54.494-121.719-121.719-121.719
		c-29.781,0-57.061,10.694-78.218,28.455c-19.418-41.437-61.499-70.133-110.281-70.133c-49.01,0-91.252,28.962-110.547,70.706
		c-21.246-18.102-48.797-29.028-78.9-29.028c-64.189,0-116.775,49.687-121.388,112.702c-32.746,21.815-54.324,59.074-54.324,101.373
		c0,60.746,44.492,111.096,102.67,120.237c17.131,46.481,61.816,79.629,114.246,79.629c16.548,0,32.324-3.301,46.708-9.283
		c18.613,20.261,45.33,32.964,75.011,32.964c25.002,0,47.897-9.008,65.619-23.96c22.35-1.506,43.047-9.046,60.471-21.005
		c21.502,19.134,49.834,30.757,80.88,30.757c67.225,0,121.719-54.494,121.719-121.719c0-5.603-0.379-11.12-1.113-16.52
		C931.073,1605.443,960.134,1571.835,960.134,1531.44z"/>
	<path style="fill:none;stroke:#000000;stroke-width:22;stroke-miterlimit:10;" d="M883.848,545.164
		c-5.516,0-10.941,0.395-16.247,1.163c0.009-0.386,0.009-0.772,0.009-1.163c0-62.293-50.496-112.789-112.789-112.789
		c-24.041,0-46.327,7.522-64.632,20.341c-11.318-50.329-56.285-87.927-110.037-87.927c-53.941,0-99.035,37.861-110.16,88.458
		c-18.446-13.144-41.012-20.872-65.387-20.872c-53.007,0-97.468,36.562-109.546,85.842C236.371,522.185,190,571.049,190,630.743
		c0,62.293,50.496,112.789,112.789,112.789c11.45,0,22.501-1.707,32.911-4.876c13.864,41.841,51.562,72.821,97.007,76.841
		c19.766,32.625,55.604,54.428,96.538,54.428c36.737,0,69.376-17.563,89.968-44.756c20.592,27.192,53.23,44.756,89.968,44.756
		c62.293,0,112.789-50.496,112.789-112.789c0-1.655-0.035-3.3-0.11-4.937c17.787,11.722,39.094,18.542,61.99,18.542
		c62.293,0,112.789-50.496,112.789-112.789C996.637,595.66,946.141,545.164,883.848,545.164z"/>
	<g>
		<path style="fill:none;stroke:#000000;stroke-width:22;stroke-miterlimit:10;" d="M3717.696,639.039
			c12.903,19.044,20.28,41.123,20.28,64.659c0,71.776-68.601,129.963-153.222,129.963c-15.179,0-29.841-1.873-43.686-5.362
			c-17.595,21.863-47.207,36.214-80.769,36.214c-15.542,0-30.236-3.077-43.282-8.557c-26.776,19.427-61.542,31.159-99.535,31.159
			c-54.148,0-101.735-23.826-128.984-59.787c-19.056,7.218-40.172,11.23-62.39,11.23c-84.621,0-153.222-58.188-153.222-129.964
			c0-31.856,13.515-61.036,35.945-83.638c-5.317-13.184-8.198-27.327-8.198-42.042c0-68.707,62.86-124.965,142.462-129.645
			c22.357-56.658,89.689-92.219,163.007-81.981c18.546,2.587,35.925,7.892,51.63,15.355c13.278-23.12,41.246-39.046,73.596-39.046
			c45.183,0,81.814,31.069,81.814,69.397c0,0.388-0.004,0.775-0.012,1.163c60.134,3.411,110.769,36.259,132.053,81.7
			c0.261-0.004,0.518-0.004,0.779-0.004c53.973,0,97.728,37.112,97.728,82.895C3743.689,604.478,3733.826,624.26,3717.696,639.039z"
			/>
	</g>
</g>
</svg>
