<svg width="866" height="359" viewBox="0 0 866 359" fill="none" xmlns="http://www.w3.org/2000/svg">
<g id="gear-with-motor">
<g id="small-gear-2">
<path id="cogs-rim" fill-rule="evenodd" clip-rule="evenodd" d="M311.065 186.386C310.473 191.169 310.698 195.781 308.988 200.547C307.337 201.198 305.671 202.063 303.899 202.517C296.915 204.31 289.841 205.603 282.599 205.674C279.7 205.703 276.8 205.679 274.072 205.679C272.042 208.045 271.709 210.567 271.083 213.397C280.552 220.719 289.692 228.42 296.612 238.138C294.929 243.366 291.98 248.22 288.475 251.511C282.647 251.15 276.843 249.704 271.166 247.839C265.649 246.028 260.244 243.87 254.429 241.731C253.624 242.484 252.595 243.338 251.703 244.316C250.908 245.187 250.266 246.196 249.357 247.411C255.294 257.653 260.375 268.265 262.924 280.315C259.557 284.122 255.366 286.948 250.82 289.64C239.917 283.907 231.634 275.229 223.111 266.394C220.705 267.48 218.418 268.51 216.119 269.55C216.884 281.608 217.574 293.372 214.901 305.137C210.444 308.021 205.457 308.169 200.276 309.066C199.03 307.439 197.689 305.915 196.603 304.227C191.942 296.988 188.376 289.213 185.522 281.101C185.02 279.674 184.441 278.275 183.848 276.736H176.247C175.666 278.302 175.047 279.866 174.501 281.455C171.646 289.762 167.794 297.586 163.076 304.98C162.175 306.391 161.022 307.64 159.998 308.947C154.902 308.451 150.218 307.798 145.627 305.528C142.375 293.713 142.95 281.806 144.188 269.686C141.817 268.547 139.69 267.526 137.201 266.331C134.451 269.15 131.827 272.031 128.994 274.69C125.999 277.503 122.899 280.224 119.672 282.765C116.589 285.192 113.281 287.338 110.271 289.467C105.788 287.888 101.137 284.53 97.3342 280.139C99.5181 268.463 104.871 257.804 111.004 247.073C109.244 245.205 107.528 243.383 105.699 241.439C94.7841 246.349 83.8249 250.156 71.8028 251.604C67.6189 248.476 65.9831 243.525 63.6486 239.456C63.7481 236.931 65.2992 235.677 66.4879 234.275C72.2663 227.447 78.6972 221.299 85.8895 215.961C86.9707 215.158 87.9847 214.262 89.243 213.235C88.5112 210.904 87.8051 208.66 87.2041 206.747C85.1229 205.262 83.1705 205.748 81.3443 205.772C72.7098 205.884 64.2688 204.594 55.939 202.449C54.7835 202.151 53.6358 201.763 52.5532 201.268C51.9589 200.998 51.5063 200.419 50.9831 199.972C49.5659 195.625 49.3461 191.217 49.5829 186.954C50.5829 184.658 52.5673 183.906 54.39 183.005C62.258 179.111 70.4862 176.234 79.058 174.335C80.3792 174.042 81.6795 173.659 83.249 173.25C83.5967 170.798 83.9256 168.466 84.3098 165.756C82.2271 164.744 80.2685 163.759 78.2802 162.835C70.6209 159.276 63.6203 154.67 57.024 149.425C55.8236 148.471 54.6057 147.535 53.4037 146.597C54.7877 141.189 55.831 136.4 58.7994 131.929C70.6875 130.169 82.3004 132.258 93.8028 134.394C96.2131 132.662 97.0277 130.229 98.1006 127.843C94.3455 123.083 90.494 118.505 86.9906 113.676C83.4839 108.841 80.363 103.734 78.0749 98.0206C81.1131 93.8118 84.377 90.1478 88.4103 86.6858C94.1967 88.3548 99.5902 90.9288 104.761 93.8974C109.94 96.871 114.909 100.212 120.354 103.633C122.179 102.31 124.082 100.929 126.145 99.4322C125.997 98.5233 125.974 97.6764 125.718 96.9065C122.898 88.4226 120.869 79.7792 120.241 70.8333C120.154 69.5804 119.883 68.3389 119.591 66.576L122.167 61.9402C126.445 60.3004 129.818 58.1755 133.67 57.4856C136.951 59.6678 139.169 62.3671 142.508 65.6252L148.276 73.1294C148.965 74.147 153.523 81.149 154.118 82.2036C154.712 83.2583 155.341 84.3727 156.183 85.8644C158.966 85.1756 161.21 84.6186 163.603 84.0259V80.3409L168.145 63.1949L173.603 48.5002H185.386L191.325 62.3671C192.952 67.3155 194.636 70.6458 196.033 78.931C196.116 80.6694 196.178 81.9817 196.278 84.0777C198.94 84.6803 201.347 85.2251 203.596 85.7334C205.173 83.7671 205.331 83.1876 206.015 82.0703L208.366 78.233L212.971 71.6724C213.642 70.6121 216.657 66.9394 216.632 67.0562C220.261 63.359 223.234 60.3327 226.34 57.1686C228.547 58.0179 230.443 58.7442 232.335 59.476C234.035 60.1319 235.577 61.2885 237.749 61.675L240.386 66.4223C239.677 77.8072 237.336 88.5248 233.786 99.2608C235.933 100.81 237.831 102.179 239.838 103.628C245.103 100.304 250.073 97 255.205 93.9702C260.224 91.0064 265.563 88.681 271.507 86.6842C275.661 89.6263 278.672 93.723 282.069 97.9333C277.358 109.207 269.996 118.59 261.958 127.526C262.65 130.086 264.182 131.917 265.317 133.768C267.248 134.665 268.884 133.966 270.543 133.635C278.802 131.988 287.132 131.076 295.562 131.341C297.418 131.399 299.268 131.69 301.202 131.881C304.418 136.131 305.185 141.031 306.62 146.024C297.903 154.79 287.294 160.275 276.233 165.684C276.338 168.034 276.441 170.374 276.56 173.046C278.376 173.55 279.976 174.046 281.6 174.437C290.127 176.487 298.41 179.222 306.205 183.285C307.832 184.132 309.314 185.259 311.065 186.386ZM306.299 198.775C307.868 194.27 308.028 192.597 307.45 186.946C305.687 186.035 303.773 184.918 301.76 184.03C294.529 180.841 287.055 178.377 279.291 176.859C277.248 176.46 275.191 176.193 273.999 173.701C273.706 170.996 273.378 167.967 273.095 165.347C274.519 162.721 276.839 162.23 278.822 161.343C286.049 158.113 292.871 154.207 299.196 149.452C300.803 148.243 302.628 147.204 303.728 145.02C302.278 141.687 302.074 137.815 299.63 134.696C287.999 133.729 276.648 134.936 265.701 137.545C262.613 134.884 260.769 131.96 259.251 127.549C262.956 122.875 266.835 118.308 270.338 113.472C273.827 108.657 277.05 103.628 279.188 97.7489C276.651 94.9244 274.277 92.2836 271.797 89.522C259.97 93.2888 249.874 99.6253 240.017 106.841C236.873 104.298 233.407 102.732 230.854 99.4225C234.505 88.2928 237.348 76.9077 237.349 64.9849C233.722 63.0082 230.378 60.9815 226.246 60.569C225.09 61.69 223.952 62.7178 222.899 63.8288C217.091 69.9549 212.252 76.7909 208.017 84.0793C207.096 85.6636 205.98 87.1373 204.959 88.6537C200.783 87.912 196.763 88.0926 193.917 85.3874C191.336 67.2359 189.162 58.7785 185.192 51.5563C183.681 51.4966 181.991 51.3818 180.301 51.3768C178.436 51.3718 176.571 51.4661 174.751 51.5174C174.268 52.3469 173.832 52.8918 173.603 53.5144C170.413 62.2135 167.677 71.0156 167.05 80.3555C166.904 82.5162 166.866 84.8706 164.692 86.7052C161.676 87.3394 158.525 88.8273 154.714 88.2381C153.761 86.7399 152.692 85.2052 151.77 83.5861C147.763 76.5559 143.022 70.0663 137.5 64.157C136.241 62.8079 134.83 61.5971 133.528 60.3572C129.584 61.5658 126.053 62.7054 123.05 65.1175C123.05 67.4917 122.899 69.7179 123.076 71.9199C123.832 81.3441 126.36 90.4008 129.256 99.3465C126.661 102.752 123.198 104.518 120.06 106.505C114.726 103.104 109.789 99.6941 104.604 96.7254C99.4484 93.7752 94.1503 90.9935 87.9915 89.7451C87.7789 89.9885 87.5669 90.2311 87.3556 90.4731C85.1444 93.0042 82.9971 95.4621 80.7816 97.9996C85.8928 109.29 93.1683 118.744 101.276 127.619C99.1205 131.273 98.0391 135.181 94.7309 137.335C88.8531 136.424 83.3059 135.32 77.7046 134.762C71.9345 134.186 66.1127 134.155 60.2417 134.73C59.6275 135.988 58.9825 137.005 58.6199 138.114C57.8285 140.535 57.1798 143.003 56.395 145.72C57.792 146.897 59.0352 148.04 60.3727 149.056C67.0883 154.16 74.3762 158.295 82.0703 161.731C83.9129 162.554 86.0495 163.027 87.0246 165.702C86.9352 166.808 86.8791 168.348 86.6689 169.864C86.4354 171.539 86.0601 173.193 85.6761 175.226C84.0569 175.767 82.5187 176.463 80.9061 176.794C72.1327 178.594 63.7409 181.506 55.6496 185.303C54.4459 185.867 53.361 186.683 52.2799 187.345C51.8313 191.426 52.7489 195.046 53.5735 198.71C54.8579 199.152 55.9641 199.624 57.1145 199.912C67.1348 202.408 77.3524 203.223 87.5647 203.152C90.6923 206.122 90.8422 210.028 92.0872 213.361C91.0459 215.59 89.1682 216.537 87.5226 217.729C80.2705 222.979 73.6585 228.921 68.0919 235.963C67.3785 236.867 66.8963 237.954 66.2971 238.975C66.314 239.011 66.3309 239.046 66.3477 239.081C67.963 242.456 69.4868 245.639 72.1019 248.514C73.7609 248.323 75.4587 248.231 77.1144 247.92C85.393 246.364 93.3838 243.867 101.123 240.529C102.795 239.809 104.355 238.483 106.788 239.056C108.191 240.611 109.814 242.367 111.382 244.169C112.158 245.063 112.835 246.043 113.71 247.184C112.982 248.565 112.325 249.932 111.56 251.236C107.035 258.967 103.581 267.153 101.127 275.759C100.719 277.196 100.55 278.702 100.292 280.065C103.402 282.817 106.128 285.379 109.893 286.5C111.302 285.661 112.675 284.951 113.932 284.076C120.846 279.26 127.244 273.852 132.834 267.517C134.056 266.133 134.975 264.364 137.263 263.758C140.435 265.144 144.237 265.772 146.992 268.986C146.174 280.506 144.993 292.11 147.996 303.546C151.781 304.942 155.358 305.91 159.502 305.857C160.919 303.585 162.429 301.323 163.78 298.97C167.552 292.408 170.393 285.432 172.685 278.233C173.268 276.405 173.765 274.595 176.042 273.612C178.946 273.486 182.178 272.924 185.766 274.342C186.383 275.829 187.116 277.525 187.795 279.242C189.555 283.697 191.104 288.25 193.089 292.603C195.21 297.25 197.542 301.829 200.883 305.903C204.922 305.728 208.732 305.181 212.096 303.299C212.399 302.592 212.715 302.138 212.783 301.649C214.03 292.634 214.753 283.607 213.513 274.512C213.243 272.526 213.472 270.471 213.472 268.428C216.366 265.989 219.702 264.788 223.499 263.609C224.886 265.036 226.362 266.423 227.688 267.943C233.594 274.715 240.525 280.275 247.973 285.228C248.807 285.782 249.787 286.121 250.742 286.581C254.193 284.808 257.235 282.692 259.988 279.926C257.541 268.104 252.263 257.573 246.281 247.075C248.501 244.566 250.63 242.161 252.813 239.696C253.173 239.289 253.535 238.88 253.899 238.469C255.427 239.052 256.711 239.464 257.928 240.02C265.912 243.672 274.225 246.29 282.847 247.907C284.653 248.247 286.511 248.313 288.349 248.505C290.599 245.06 292.719 242.009 293.874 238.398C290.352 233.434 286.393 229.165 281.977 225.364C277.46 221.473 272.728 217.832 268.036 214.037C269.016 210.209 269.542 206.477 272.277 203.205C283.799 203.015 295.399 202.545 306.299 198.775Z" fill="rgba(255,255,255,0.04)"/>
<path id="inner-body" fill-rule="evenodd" clip-rule="evenodd" d="M306.298 198.775C307.868 194.27 308.027 192.597 307.45 186.946C306.908 186.666 306.352 186.366 305.783 186.06C304.501 185.37 303.154 184.645 301.76 184.03C294.529 180.841 287.054 178.378 279.291 176.859C279.182 176.838 279.073 176.817 278.965 176.796C277.031 176.426 275.127 176.06 273.998 173.701C273.705 170.996 273.378 167.968 273.095 165.347C274.268 163.182 276.051 162.469 277.752 161.788C278.114 161.643 278.473 161.499 278.822 161.343C286.049 158.113 292.87 154.207 299.195 149.452C299.458 149.255 299.727 149.062 299.997 148.867C301.38 147.873 302.808 146.847 303.727 145.02C303.201 143.81 302.838 142.528 302.474 141.237C301.834 138.974 301.186 136.682 299.63 134.696C287.999 133.729 276.648 134.936 265.7 137.545C262.613 134.884 260.769 131.96 259.25 127.549C260.379 126.126 261.523 124.712 262.668 123.298C265.283 120.069 267.901 116.835 270.338 113.472C273.826 108.657 277.05 103.628 279.187 97.7491C277.885 96.2993 276.626 94.898 275.373 93.5039L275.318 93.4427L275.26 93.3778L275.225 93.339C274.087 92.0724 272.953 90.8104 271.796 89.5221C259.969 93.2889 249.874 99.6254 240.017 106.841C238.961 105.987 237.869 105.243 236.787 104.506C234.648 103.05 232.549 101.621 230.854 99.4226C234.505 88.2929 237.347 76.9078 237.349 64.985C237.019 64.8049 236.69 64.6245 236.364 64.4448C233.107 62.6529 230 60.9439 226.246 60.5692C225.878 60.9258 225.512 61.273 225.15 61.6165C224.374 62.3523 223.616 63.0716 222.898 63.8289C217.09 69.955 212.251 76.791 208.016 84.0794C207.384 85.168 206.659 86.2044 205.936 87.2384C205.607 87.709 205.278 88.1796 204.959 88.6538C204.002 88.4839 203.053 88.3624 202.125 88.2434C199.002 87.8434 196.111 87.4729 193.917 85.3875C191.335 67.236 189.162 58.7786 185.192 51.5564C184.742 51.5386 184.276 51.516 183.799 51.4928C182.674 51.4381 181.487 51.3804 180.3 51.3769C178.985 51.3734 177.669 51.4193 176.368 51.4647C175.826 51.4836 175.287 51.5025 174.751 51.5176C174.585 51.8021 174.425 52.0532 174.277 52.2854C173.993 52.7301 173.753 53.1055 173.603 53.5145C170.412 62.2136 167.677 71.0157 167.05 80.3556C167.042 80.4692 167.035 80.5833 167.027 80.6979C166.894 82.7625 166.752 84.9672 164.692 86.7053C163.893 86.8734 163.084 87.1013 162.256 87.3347C159.96 87.9822 157.515 88.6713 154.714 88.2383C154.418 87.7726 154.11 87.3035 153.799 86.8293C153.111 85.7786 152.405 84.7014 151.77 83.5862C147.763 76.5561 143.022 70.0664 137.5 64.1572C136.639 63.2346 135.707 62.3768 134.787 61.5301C134.363 61.1392 133.939 60.7488 133.527 60.3574C129.584 61.566 126.053 62.7056 123.05 65.1176C123.05 65.8769 123.034 66.621 123.019 67.354C122.986 68.9123 122.955 70.423 123.075 71.9201C123.832 81.3442 126.36 90.4009 129.255 99.3466C127.082 102.2 124.298 103.902 121.608 105.547C121.087 105.866 120.569 106.182 120.06 106.505C118.416 105.457 116.81 104.408 115.222 103.371C111.66 101.045 108.19 98.779 104.604 96.7256C99.448 93.7753 94.1499 90.9937 87.9911 89.7452L87.3552 90.4732C85.144 93.0043 82.9968 95.4623 80.7812 97.9997C85.8924 109.29 93.1679 118.744 101.276 127.619C100.674 128.639 100.156 129.678 99.6501 130.694C98.343 133.318 97.1151 135.782 94.7305 137.335C92.9112 137.053 91.1235 136.753 89.3561 136.456C85.4138 135.793 81.5714 135.148 77.7042 134.762C71.9341 134.186 66.1124 134.155 60.2413 134.73C60.0429 135.136 59.8413 135.518 59.647 135.885C59.2402 136.654 58.8648 137.364 58.6195 138.114C58.0636 139.815 57.5781 141.538 57.0664 143.355L57.0634 143.366C56.8476 144.133 56.6271 144.916 56.3946 145.72C56.8445 146.099 57.2785 146.475 57.7048 146.844C58.6016 147.619 59.4661 148.367 60.3723 149.056C67.0879 154.161 74.3758 158.296 82.0699 161.731C82.3447 161.854 82.626 161.969 82.9091 162.084C84.5238 162.744 86.1946 163.426 87.0242 165.702C86.9989 166.016 86.9762 166.364 86.952 166.737C86.8907 167.679 86.8191 168.778 86.6685 169.864C86.5082 171.014 86.2812 172.154 86.0303 173.413C85.9159 173.987 85.7958 174.59 85.6757 175.226C85.1577 175.399 84.648 175.588 84.1415 175.776C83.0647 176.175 82.0024 176.569 80.9057 176.795C72.1323 178.594 63.7405 181.506 55.6492 185.303C54.8239 185.69 54.0545 186.195 53.3038 186.688C52.9598 186.913 52.6192 187.137 52.2795 187.345C51.8603 191.159 52.6342 194.57 53.4103 197.991C53.4647 198.231 53.5191 198.471 53.5731 198.71C53.9844 198.852 54.3774 198.997 54.7596 199.137C55.5676 199.434 56.3347 199.717 57.1142 199.912C67.1344 202.409 77.352 203.223 87.5643 203.152C89.8195 205.294 90.5265 207.922 91.2122 210.471C91.4774 211.458 91.7395 212.432 92.0868 213.362C91.2316 215.192 89.8123 216.158 88.4207 217.105C88.1178 217.311 87.8163 217.516 87.5222 217.729C80.2701 222.979 73.6581 228.921 68.0915 235.963C67.6036 236.581 67.2238 237.285 66.8407 237.995C66.664 238.323 66.4858 238.653 66.2967 238.975L66.3474 239.081C67.9626 242.456 69.4864 245.64 72.1015 248.514C72.6226 248.454 73.1475 248.404 73.6737 248.354C74.8225 248.244 75.9787 248.134 77.114 247.92C85.3926 246.364 93.3835 243.867 101.122 240.529C101.49 240.371 101.853 240.183 102.221 239.992C103.523 239.317 104.89 238.61 106.788 239.056C107.18 239.491 107.59 239.941 108.01 240.404L108.018 240.413C109.1 241.603 110.255 242.875 111.382 244.169C111.907 244.774 112.387 245.418 112.914 246.126C113.165 246.464 113.427 246.816 113.71 247.185C113.481 247.619 113.259 248.052 113.038 248.482C112.557 249.419 112.084 250.343 111.56 251.237C107.035 258.967 103.581 267.153 101.127 275.759C100.845 276.75 100.677 277.775 100.515 278.762C100.443 279.206 100.371 279.642 100.291 280.065C100.48 280.232 100.668 280.399 100.855 280.565C103.738 283.123 106.357 285.448 109.893 286.5C110.344 286.231 110.793 285.975 111.235 285.723C112.17 285.189 113.078 284.67 113.932 284.077C120.846 279.26 127.244 273.852 132.834 267.518C133.089 267.228 133.332 266.921 133.577 266.611C134.5 265.444 135.454 264.237 137.262 263.758C138.053 264.104 138.883 264.402 139.726 264.705C142.265 265.618 144.923 266.573 146.991 268.986C146.927 269.89 146.861 270.794 146.794 271.699L146.793 271.713C146.013 282.335 145.229 293.012 147.996 303.546C151.781 304.942 155.357 305.91 159.502 305.857C159.945 305.145 160.398 304.435 160.853 303.723C161.849 302.16 162.852 300.586 163.78 298.97C167.552 292.408 170.393 285.432 172.685 278.233L172.75 278.028C173.307 276.271 173.85 274.558 176.041 273.612C176.538 273.59 177.043 273.556 177.559 273.521C180.06 273.352 182.792 273.167 185.766 274.343C185.952 274.793 186.15 275.262 186.353 275.745C186.821 276.857 187.322 278.045 187.795 279.242C188.369 280.696 188.921 282.16 189.473 283.624C190.612 286.647 191.751 289.67 193.089 292.603C195.209 297.25 197.541 301.829 200.882 305.904C204.922 305.728 208.732 305.181 212.096 303.299C212.2 303.056 212.305 302.843 212.402 302.649C212.586 302.276 212.738 301.97 212.783 301.649C214.03 292.634 214.752 283.607 213.512 274.512C213.328 273.152 213.377 271.761 213.426 270.362C213.449 269.718 213.472 269.072 213.472 268.428C216.366 265.989 219.702 264.788 223.498 263.609C223.933 264.057 224.376 264.5 224.821 264.944C225.796 265.918 226.778 266.9 227.688 267.943C233.594 274.715 240.525 280.276 247.972 285.228C248.538 285.604 249.172 285.881 249.819 286.164C250.125 286.298 250.436 286.434 250.742 286.581C254.192 284.808 257.234 282.692 259.988 279.926C257.541 268.104 252.263 257.573 246.281 247.075C248.501 244.567 250.63 242.162 252.812 239.696L253.898 238.469C254.399 238.66 254.873 238.833 255.328 238.998C256.26 239.337 257.11 239.646 257.928 240.02C265.912 243.672 274.225 246.29 282.846 247.907C284.085 248.14 285.348 248.245 286.612 248.349C287.191 248.397 287.771 248.445 288.349 248.506C288.546 248.203 288.743 247.904 288.938 247.607C290.963 244.521 292.82 241.692 293.874 238.398C290.352 233.434 286.392 229.166 281.976 225.364C278.841 222.663 275.602 220.083 272.345 217.488C270.91 216.345 269.47 215.198 268.035 214.037C268.189 213.437 268.331 212.839 268.473 212.245C269.234 209.051 269.97 205.964 272.276 203.206C283.798 203.015 295.399 202.545 306.298 198.775ZM117.565 189.5C111.214 189.5 106.065 184.351 106.065 178C106.065 171.649 111.214 166.5 117.565 166.5C123.916 166.5 129.065 171.649 129.065 178C129.065 184.351 123.916 189.5 117.565 189.5ZM191.666 240.999C191.666 247.35 186.517 252 180.166 252C173.815 252 169.565 247.351 169.565 241C169.565 234.649 173.815 230 180.166 230C186.517 230 191.666 234.648 191.666 240.999ZM191.565 115C191.565 121.351 187.416 126 181.065 126C174.714 126 169.464 121.353 169.464 115.002C169.464 108.651 174.714 104 181.065 104C187.416 104 191.565 108.648 191.565 115ZM243.565 189.5C237.214 189.5 232.065 184.351 232.065 178C232.065 171.649 237.214 166.5 243.565 166.5C249.916 166.5 255.065 171.649 255.065 178C255.065 184.351 249.916 189.5 243.565 189.5Z" fill="#35383B"/>
<circle id="center" cx="180.565" cy="178" r="10.5" transform="rotate(90 180.565 178)" fill="rgba(255,255,255,0.04)" stroke="rgba(255,255,255,0.04)" stroke-width="2"/>
<circle id="inner-ring" cx="180.065" cy="177.5" r="19" transform="rotate(90 180.065 177.5)" stroke="rgba(255,255,255,0.04)" stroke-width="2"/>
<circle id="outer-inner-ring" cx="180.565" cy="178" r="41.5" transform="rotate(90 180.565 178)" stroke="rgba(255,255,255,0.04)" stroke-width="2"/>
<g id="holes">
<g id="attached-hole">
<path id="Ellipse 29" d="M254.565 178C254.565 184.075 249.641 189 243.565 189C237.49 189 232.565 184.075 232.565 178C232.565 171.925 237.49 167 243.565 167C249.641 167 254.565 171.925 254.565 178ZM250.565 178C250.565 174.134 247.431 171 243.565 171C239.699 171 236.565 174.134 236.565 178C236.565 181.866 239.699 185 243.565 185C247.431 185 250.565 181.866 250.565 178Z" fill="#35383B" stroke="rgba(255,255,255,0.04)"/>
</g>
<g id="hole">
<path id="Ellipse 29_2" d="M191.565 115C191.565 121.075 186.641 126 180.565 126C174.49 126 169.565 121.075 169.565 115C169.565 108.925 174.49 104 180.565 104C186.641 104 191.565 108.925 191.565 115ZM187.565 115C187.565 111.134 184.431 108 180.565 108C176.699 108 173.565 111.134 173.565 115C173.565 118.866 176.699 122 180.565 122C184.431 122 187.565 118.866 187.565 115Z" fill="#35383B" stroke="rgba(255,255,255,0.04)"/>
</g>
<g id="hole_2">
<path id="Ellipse 29_3" d="M191.565 241C191.565 247.075 186.641 252 180.565 252C174.49 252 169.565 247.075 169.565 241C169.565 234.925 174.49 230 180.565 230C186.641 230 191.565 234.925 191.565 241ZM187.565 241C187.565 237.134 184.431 234 180.565 234C176.699 234 173.565 237.134 173.565 241C173.565 244.866 176.699 248 180.565 248C184.431 248 187.565 244.866 187.565 241Z" fill="#35383B" stroke="rgba(255,255,255,0.04)"/>
</g>
<g id="hole_3">
<path id="Ellipse 29_4" d="M128.565 178C128.565 184.075 123.641 189 117.565 189C111.49 189 106.565 184.075 106.565 178C106.565 171.925 111.49 167 117.565 167C123.641 167 128.565 171.925 128.565 178ZM124.565 178C124.565 174.134 121.431 171 117.565 171C113.699 171 110.565 174.134 110.565 178C110.565 181.866 113.699 185 117.565 185C121.431 185 124.565 181.866 124.565 178Z" fill="#35383B" stroke="rgba(255,255,255,0.04)"/>
</g>
</g>
</g>
<g id="moving-piston">
<g id="piston">
<g id="Group 177">
<rect id="Rectangle 102" x="492" y="164" width="162" height="29" fill="#35383B" stroke="rgba(255,255,255,0.04)" stroke-width="2"/>
<line id="Line 77" x1="562.972" y1="168.5" x2="655" y2="168.5" stroke="rgba(255,255,255,0.04)"/>
<line id="Line 78" x1="581.849" y1="172.5" x2="655" y2="172.5" stroke="rgba(255,255,255,0.04)"/>
<line id="Line 79" x1="598.367" y1="176.5" x2="655" y2="176.5" stroke="rgba(255,255,255,0.04)"/>
</g>
<path id="Rectangle 105" d="M451 177.955C451 166.08 461.723 157.084 473.417 159.147L500 163.838V193.127L472.695 196.875C461.223 198.45 451 189.535 451 177.955ZM471 167C464.925 167 460 171.925 460 178C460 184.075 464.925 189 471 189C477.075 189 482 184.075 482 178C482 171.925 477.075 167 471 167Z" fill="#35383B" stroke="rgba(255,255,255,0.04)" stroke-width="2"/>
</g>
<g id="body">
<rect id="Rectangle 101" x="522" y="140" width="149" height="77" fill="#35383B" stroke="rgba(255,255,255,0.04)" stroke-width="2"/>
<rect id="Rectangle 104" x="525.5" y="143.5" width="142" height="70" rx="2.5" fill="#35383B" stroke="rgba(255,255,255,0.04)"/>
<path id="Rectangle 103" d="M522 217H521C514.925 217 510 212.075 510 206V153L510.004 152.664C510.174 145.974 515.398 140.54 522 140.038V217Z" fill="#35383B" stroke="rgba(255,255,255,0.04)" stroke-width="2"/>
<line id="Line 73" x1="533" y1="210.006" x2="533" y2="147.006" stroke="rgba(255,255,255,0.04)" stroke-width="2"/>
<line id="Line 74" x1="541" y1="210.006" x2="541" y2="147.006" stroke="rgba(255,255,255,0.04)" stroke-width="2"/>
<line id="Line 75" x1="549" y1="210.006" x2="549" y2="147.006" stroke="rgba(255,255,255,0.04)" stroke-width="2"/>
<line id="Line 76" x1="557" y1="210.006" x2="557" y2="147.006" stroke="rgba(255,255,255,0.04)" stroke-width="2"/>
</g>
</g>
<g id="linkage">
<g id="left-linkage">
<g id="Group 177_2">
<rect id="Rectangle 102_2" x="265" y="164.148" width="177" height="29" fill="#35383B" stroke="rgba(255,255,255,0.04)" stroke-width="2"/>
</g>
<path id="Rectangle 105_2" d="M224 178.104C224 166.228 234.723 157.232 246.417 159.296L273 163.986V193.275L245.695 197.023C234.223 198.598 224 189.683 224 178.104ZM244 167.148C237.925 167.148 233 172.073 233 178.148C233 184.224 237.925 189.148 244 189.148C250.075 189.148 255 184.224 255 178.148C255 172.073 250.075 167.148 244 167.148Z" fill="#35383B" stroke="rgba(255,255,255,0.04)" stroke-width="2"/>
</g>
<g id="right-linkage">
<path id="Rectangle 105_3" d="M491 178.104C491 166.228 480.277 157.232 468.583 159.296L442 163.986V193.275L469.305 197.023C480.777 198.598 491 189.683 491 178.104ZM471 167.148C477.075 167.148 482 172.073 482 178.148C482 184.224 477.075 189.148 471 189.148C464.925 189.148 460 184.224 460 178.148C460 172.073 464.925 167.148 471 167.148Z" fill="#35383B" stroke="rgba(255,255,255,0.04)" stroke-width="2"/>
</g>
</g>
<path id="bolt-gear" d="M255.374 171.433V184.566L244 191.134L232.626 184.566V171.433L244 164.865L255.374 171.433Z" fill="#35383B" stroke="rgba(255,255,255,0.04)" stroke-width="1.5"/>
<path id="bolt-piston" d="M481.374 171.433V184.566L470 191.134L458.626 184.566V171.433L470 164.865L481.374 171.433Z" fill="#35383B" stroke="rgba(255,255,255,0.04)" stroke-width="1.5"/>
</g>
</svg>
