<svg width="144" height="144" viewBox="0 0 144 144" fill="none" xmlns="http://www.w3.org/2000/svg">
<path d="M72.2559 3.97192C109.826 3.97206 140.283 34.4297 140.283 72.0002C140.283 109.571 109.826 140.027 72.2559 140.028C34.6853 140.028 4.22768 109.571 4.22754 72.0002C4.22754 34.4296 34.6852 3.97192 72.2559 3.97192Z" fill="#35383B" stroke="white" stroke-width="0.993104"/>
<path d="M72.2549 38.234C90.903 38.234 106.02 53.3516 106.021 71.9996C106.021 90.6478 90.9031 105.765 72.2549 105.765C53.6069 105.765 38.4893 90.6477 38.4893 71.9996C38.4894 53.3517 53.607 38.2342 72.2549 38.234Z" fill="#35383B" stroke="white" stroke-width="0.993104"/>
<path d="M72.2559 42.7031C88.4359 42.7031 101.553 55.82 101.553 72C101.553 88.18 88.4359 101.297 72.2559 101.297C56.0759 101.297 42.959 88.18 42.959 72C42.9591 55.8201 56.0759 42.7032 72.2559 42.7031Z" fill="#35383B" stroke="white" stroke-width="0.993104"/>
<path d="M70.2695 0.993103C70.2695 0.444628 70.7142 0 71.2626 0H72.7523C73.3008 0 73.7454 0.444627 73.7454 0.993103V3.47586H70.2695V0.993103Z" fill="white"/>
<path d="M75.1034 1.03951C75.1407 0.492304 75.6145 0.0789469 76.1617 0.116251L77.6479 0.217568C78.1951 0.254872 78.6085 0.728711 78.5712 1.27592L78.4023 3.75293L74.9345 3.51652L75.1034 1.03951Z" fill="white"/>
<path d="M79.9219 1.41458C79.9963 0.871178 80.4972 0.491006 81.0406 0.565441L82.5164 0.767607C83.0598 0.842042 83.44 1.3429 83.3656 1.8863L83.0286 4.34609L79.5849 3.87437L79.9219 1.41458Z" fill="white"/>
<path d="M84.7039 2.11664C84.8151 1.57955 85.3407 1.23433 85.8777 1.34555L87.3364 1.64763C87.8735 1.75885 88.2188 2.2844 88.1075 2.82148L87.6041 5.25266L84.2004 4.54781L84.7039 2.11664Z" fill="white"/>
<path d="M89.4283 3.14195C89.5757 2.61367 90.1236 2.30499 90.6518 2.45248L92.0866 2.85308C92.6149 3.00057 92.9236 3.54838 92.7761 4.07666L92.1084 6.46796L88.7606 5.53325L89.4283 3.14195Z" fill="white"/>
<path d="M94.0718 4.48656C94.2549 3.96954 94.8224 3.69883 95.3395 3.88191L96.7437 4.37916C97.2607 4.56224 97.5314 5.12979 97.3483 5.6468L96.5196 7.98716L93.2431 6.82691L94.0718 4.48656Z" fill="white"/>
<path d="M98.6134 6.14385C98.8312 5.64048 99.4159 5.409 99.9192 5.62682L101.286 6.21843C101.79 6.43625 102.021 7.02089 101.803 7.52426L100.817 9.80283L97.6274 8.42242L98.6134 6.14385Z" fill="white"/>
<path d="M103.03 8.10613C103.281 7.61874 103.88 7.42756 104.368 7.67911L105.692 8.36233C106.179 8.61388 106.37 9.21291 106.119 9.7003L104.98 11.9065L101.891 10.3124L103.03 8.10613Z" fill="white"/>
<path d="M107.304 10.3642C107.588 9.89509 108.199 9.7451 108.668 10.0292L109.942 10.8009C110.411 11.085 110.561 11.6957 110.277 12.1648L108.991 14.2885L106.018 12.4879L107.304 10.3642Z" fill="white"/>
<path d="M111.413 12.9077C111.729 12.459 112.348 12.3509 112.797 12.6662L114.016 13.5228C114.464 13.8382 114.573 14.4576 114.257 14.9063L112.83 16.9376L109.986 14.939L111.413 12.9077Z" fill="white"/>
<path d="M115.342 15.7249C115.687 15.2987 116.312 15.2329 116.739 15.5781L117.896 16.5156C118.323 16.8607 118.388 17.4861 118.043 17.9123L116.481 19.8418L113.779 17.6544L115.342 15.7249Z" fill="white"/>
<path d="M119.069 18.8029C119.442 18.4012 120.071 18.3781 120.473 18.7515L121.564 19.7655C121.966 20.1388 121.989 20.7672 121.615 21.169L119.925 22.9877L117.379 20.6217L119.069 18.8029Z" fill="white"/>
<path d="M122.578 22.1271C122.978 21.7516 123.606 21.7714 123.982 22.1712L125.001 23.2571C125.377 23.6569 125.357 24.2854 124.957 24.6609L123.147 26.3605L120.768 23.8267L122.578 22.1271Z" fill="white"/>
<path d="M125.853 25.6822C126.277 25.3348 126.903 25.3973 127.25 25.8217L128.194 26.9745C128.541 27.3989 128.479 28.0246 128.054 28.372L126.133 29.9445L123.931 27.2548L125.853 25.6822Z" fill="white"/>
<path d="M128.879 29.4519C129.326 29.1342 129.946 29.239 130.264 29.6861L131.127 30.9003C131.444 31.3474 131.34 31.9674 130.893 32.2851L128.869 33.7234L126.855 30.8901L128.879 29.4519Z" fill="white"/>
<path d="M131.64 33.4188C132.107 33.1322 132.719 33.279 133.005 33.7467L133.784 35.0168C134.07 35.4844 133.923 36.0959 133.456 36.3824L131.339 37.6797L129.523 34.7161L131.64 33.4188Z" fill="white"/>
<path d="M134.127 37.5645C134.613 37.3104 135.213 37.4984 135.467 37.9845L136.157 39.3046C136.411 39.7906 136.223 40.3907 135.737 40.6448L133.537 41.7951L131.927 38.7148L134.127 37.5645Z" fill="white"/>
<path d="M136.325 41.869C136.827 41.6486 137.413 41.877 137.634 42.3792L138.232 43.7432C138.453 44.2454 138.224 44.8313 137.722 45.0517L135.449 46.0497L134.052 42.867L136.325 41.869Z" fill="white"/>
<path d="M138.225 46.3138C138.741 46.128 139.31 46.3958 139.496 46.9118L140 48.3134C140.186 48.8294 139.918 49.3984 139.402 49.5842L137.066 50.4252L135.889 47.1549L138.225 46.3138Z" fill="white"/>
<path d="M139.819 50.8772C140.347 50.7269 140.896 51.0327 141.047 51.5602L141.455 52.9929C141.605 53.5203 141.299 54.0698 140.772 54.2201L138.384 54.9003L137.432 51.5574L139.819 50.8772Z" fill="white"/>
<path d="M141.098 55.5384C141.634 55.4244 142.162 55.7668 142.276 56.3033L142.586 57.7604C142.7 58.2969 142.357 58.8243 141.821 58.9383L139.392 59.4546L138.669 56.0547L141.098 55.5384Z" fill="white"/>
<path d="M142.058 60.2759C142.601 60.1986 143.104 60.5762 143.181 61.1192L143.391 62.594C143.468 63.137 143.091 63.6398 142.548 63.7171L140.09 64.067L139.6 60.6258L142.058 60.2759Z" fill="white"/>
<path d="M142.693 65.0679C143.24 65.0277 143.716 65.4385 143.756 65.9856L143.865 67.4712C143.906 68.0182 143.495 68.4942 142.948 68.5344L140.472 68.7163L140.217 65.2498L142.693 65.0679Z" fill="white"/>
<path d="M143.001 69.8915C143.55 69.8886 143.996 70.3309 143.999 70.8793L144.007 72.369C144.01 72.9174 143.568 73.3644 143.019 73.3673L140.537 73.3803L140.518 69.9045L143.001 69.8915Z" fill="white"/>
<path d="M142.98 74.7251C143.527 74.7596 143.943 75.2312 143.908 75.7786L143.815 77.2653C143.78 77.8127 143.309 78.2286 142.761 78.1942L140.284 78.0383L140.502 74.5693L142.98 74.7251Z" fill="white"/>
<path d="M142.631 79.5461C143.174 79.6176 143.557 80.1165 143.486 80.6603L143.291 82.1372C143.22 82.681 142.721 83.0638 142.177 82.9922L139.716 82.6682L140.169 79.2221L142.631 79.5461Z" fill="white"/>
<path d="M141.953 84.3323C142.491 84.4407 142.839 84.9644 142.73 85.5021L142.436 86.9624C142.328 87.5 141.804 87.848 141.266 87.7396L138.833 87.249L139.519 83.8416L141.953 84.3323Z" fill="white"/>
<path d="M140.952 89.0612C141.481 89.2059 141.793 89.7521 141.648 90.2812L141.255 91.718C141.11 92.2471 140.564 92.5586 140.035 92.4139L137.64 91.7589L138.557 88.4062L140.952 89.0612Z" fill="white"/>
<path d="M139.632 93.7107C140.15 93.891 140.424 94.4571 140.244 94.9751L139.754 96.3819C139.574 96.8999 139.007 97.1736 138.489 96.9932L136.145 96.1768L137.288 92.8943L139.632 93.7107Z" fill="white"/>
<path d="M137.999 98.2603C138.503 98.4755 138.738 99.0589 138.523 99.5634L137.938 100.934C137.723 101.438 137.14 101.673 136.635 101.458L134.351 100.484L135.715 97.2863L137.999 98.2603Z" fill="white"/>
<path d="M136.059 102.688C136.548 102.937 136.742 103.535 136.494 104.024L135.817 105.351C135.568 105.84 134.97 106.034 134.482 105.785L132.269 104.658L133.847 101.561L136.059 102.688Z" fill="white"/>
<path d="M133.825 106.974C134.295 107.256 134.448 107.866 134.167 108.336L133.402 109.614C133.12 110.085 132.51 110.238 132.04 109.957L129.909 108.682L131.694 105.699L133.825 106.974Z" fill="white"/>
<path d="M131.303 111.098C131.753 111.411 131.864 112.03 131.551 112.48L130.701 113.703C130.388 114.154 129.769 114.265 129.319 113.952L127.28 112.535L129.264 109.681L131.303 111.098Z" fill="white"/>
<path d="M128.506 115.04C128.934 115.383 129.003 116.008 128.66 116.436L127.729 117.599C127.386 118.027 126.761 118.096 126.333 117.753L124.395 116.201L126.568 113.488L128.506 115.04Z" fill="white"/>
<path d="M125.449 118.784C125.852 119.155 125.879 119.783 125.508 120.187L124.499 121.283C124.128 121.687 123.5 121.713 123.096 121.342L121.268 119.662L123.621 117.103L125.449 118.784Z" fill="white"/>
<path d="M122.143 122.31C122.52 122.708 122.504 123.337 122.106 123.714L121.025 124.74C120.627 125.117 119.999 125.101 119.621 124.703L117.912 122.902L120.433 120.509L122.143 122.31Z" fill="white"/>
<path d="M118.605 125.604C118.955 126.026 118.896 126.652 118.473 127.002L117.325 127.951C116.903 128.301 116.277 128.242 115.927 127.819L114.344 125.906L117.023 123.691L118.605 125.604Z" fill="white"/>
<path d="M114.851 128.649C115.171 129.095 115.07 129.715 114.624 130.035L113.415 130.905C112.969 131.225 112.349 131.123 112.029 130.678L110.58 128.662L113.402 126.633L114.851 128.649Z" fill="white"/>
<path d="M110.899 131.432C111.189 131.898 111.045 132.51 110.579 132.799L109.313 133.584C108.847 133.873 108.235 133.73 107.945 133.264L106.637 131.154L109.591 129.322L110.899 131.432Z" fill="white"/>
<path d="M106.768 133.94C107.024 134.425 106.839 135.026 106.355 135.282L105.038 135.98C104.554 136.236 103.953 136.051 103.696 135.567L102.534 133.373L105.606 131.746L106.768 133.94Z" fill="white"/>
<path d="M102.473 136.161C102.696 136.662 102.471 137.249 101.97 137.472L100.609 138.078C100.108 138.301 99.5208 138.076 99.2977 137.575L98.2877 135.307L101.463 133.893L102.473 136.161Z" fill="white"/>
<path d="M98.0385 138.085C98.2271 138.6 97.9623 139.17 97.4473 139.359L96.0484 139.871C95.5333 140.059 94.963 139.794 94.7744 139.279L93.9211 136.948L97.1852 135.753L98.0385 138.085Z" fill="white"/>
<path d="M93.4836 139.703C93.6367 140.229 93.3338 140.78 92.8071 140.933L91.3766 141.349C90.8499 141.502 90.2989 141.199 90.1458 140.673L89.453 138.288L92.7908 137.318L93.4836 139.703Z" fill="white"/>
<path d="M70.2695 140.524H73.7454V143.007C73.7454 143.555 73.3008 144 72.7523 144H71.2626C70.7142 144 70.2695 143.555 70.2695 143.007V140.524Z" fill="white"/>
<path d="M88.8294 141.007C88.9463 141.542 88.6066 142.072 88.0707 142.188L86.6153 142.506C86.0794 142.623 85.5502 142.283 85.4334 141.747L84.9043 139.321L88.3004 138.581L88.8294 141.007Z" fill="white"/>
<path d="M84.0971 141.991C84.1772 142.534 83.8023 143.038 83.2597 143.119L81.7861 143.336C81.2435 143.416 80.7387 143.042 80.6585 142.499L80.2957 140.043L83.7342 139.535L84.0971 141.991Z" fill="white"/>
<path d="M79.3087 142.651C79.3518 143.198 78.9435 143.676 78.3967 143.719L76.9116 143.836C76.3648 143.879 75.8867 143.471 75.8436 142.924L75.6487 140.449L79.1138 140.176L79.3087 142.651Z" fill="white"/>
<path d="M65.6123 140.247L69.0801 140.484L68.9113 142.961C68.874 143.508 68.4001 143.921 67.8529 143.884L66.3667 143.783C65.8195 143.745 65.4061 143.272 65.4434 142.724L65.6123 140.247Z" fill="white"/>
<path d="M60.9854 139.655L64.4291 140.126L64.0921 142.586C64.0177 143.129 63.5168 143.51 62.9734 143.435L61.4975 143.233C60.9541 143.159 60.574 142.658 60.6484 142.114L60.9854 139.655Z" fill="white"/>
<path d="M56.4102 138.749L59.8138 139.453L59.3103 141.885C59.1991 142.422 58.6736 142.767 58.1365 142.656L56.6778 142.354C56.1407 142.242 55.7955 141.717 55.9067 141.18L56.4102 138.749Z" fill="white"/>
<path d="M51.9062 137.533L55.2541 138.468L54.5864 140.859C54.4389 141.387 53.8911 141.696 53.3628 141.549L51.9281 141.148C51.3998 141.001 51.0911 140.453 51.2386 139.925L51.9062 137.533Z" fill="white"/>
<path d="M47.4951 136.015L50.7716 137.175L49.9429 139.515C49.7598 140.032 49.1922 140.303 48.6752 140.12L47.271 139.623C46.754 139.439 46.4833 138.872 46.6664 138.355L47.4951 136.015Z" fill="white"/>
<path d="M43.1982 134.199L46.3882 135.58L45.4022 137.858C45.1844 138.362 44.5998 138.593 44.0964 138.375L42.7293 137.784C42.2259 137.566 41.9944 136.981 42.2122 136.478L43.1982 134.199Z" fill="white"/>
<path d="M39.0342 132.096L42.1229 133.69L40.9842 135.896C40.7327 136.384 40.1336 136.575 39.6462 136.323L38.3225 135.64C37.8351 135.389 37.6439 134.79 37.8955 134.302L39.0342 132.096Z" fill="white"/>
<path d="M35.0225 129.715L37.9956 131.515L36.7095 133.639C36.4254 134.108 35.8147 134.258 35.3456 133.974L34.0714 133.202C33.6022 132.918 33.4522 132.308 33.7363 131.838L35.0225 129.715Z" fill="white"/>
<path d="M31.1826 127.066L34.0264 129.065L32.5988 131.096C32.2835 131.545 31.664 131.653 31.2153 131.337L29.9965 130.481C29.5478 130.165 29.4397 129.546 29.755 129.097L31.1826 127.066Z" fill="white"/>
<path d="M27.5322 124.162L30.2335 126.349L28.6711 128.279C28.3259 128.705 27.7006 128.771 27.2743 128.426L26.1166 127.488C25.6904 127.143 25.6246 126.518 25.9698 126.091L27.5322 124.162Z" fill="white"/>
<path d="M24.0859 121.016L26.6322 123.382L24.9421 125.201C24.5688 125.603 23.9404 125.626 23.5386 125.253L22.4474 124.239C22.0456 123.865 22.0225 123.237 22.3959 122.835L24.0859 121.016Z" fill="white"/>
<path d="M20.8643 117.644L23.2437 120.177L21.4339 121.877C21.034 122.252 20.4056 122.233 20.0301 121.833L19.0103 120.747C18.6349 120.347 18.6546 119.719 19.0544 119.343L20.8643 117.644Z" fill="white"/>
<path d="M17.8779 114.06L20.0795 116.75L18.1583 118.322C17.7339 118.67 17.1082 118.607 16.7608 118.183L15.8172 117.03C15.4698 116.605 15.5323 115.98 15.9567 115.632L17.8779 114.06Z" fill="white"/>
<path d="M15.1416 110.281L17.1552 113.114L15.1314 114.552C14.6843 114.87 14.0643 114.765 13.7466 114.318L12.8837 113.104C12.5659 112.657 12.6708 112.037 13.1179 111.719L15.1416 110.281Z" fill="white"/>
<path d="M12.6709 106.325L14.4871 109.289L12.3702 110.586C11.9026 110.872 11.2911 110.726 11.0046 110.258L10.2262 108.988C9.9396 108.52 10.0864 107.909 10.554 107.622L12.6709 106.325Z" fill="white"/>
<path d="M10.4727 102.21L12.0831 105.29L9.88287 106.441C9.39681 106.695 8.79678 106.507 8.54267 106.021L7.85249 104.701C7.59837 104.215 7.78639 103.614 8.27245 103.36L10.4727 102.21Z" fill="white"/>
<path d="M8.56055 97.9551L9.95773 101.138L7.68438 102.136C7.18217 102.356 6.59632 102.128 6.37585 101.626L5.77706 100.262C5.55659 99.7594 5.78499 99.1735 6.2872 98.9531L8.56055 97.9551Z" fill="white"/>
<path d="M6.94238 93.5801L8.11986 96.8504L5.7839 97.6915C5.26786 97.8773 4.6989 97.6096 4.5131 97.0935L4.00846 95.6919C3.82266 95.1759 4.09038 94.6069 4.60642 94.4211L6.94238 93.5801Z" fill="white"/>
<path d="M5.625 89.1051L6.57733 92.448L4.18957 93.1282C3.66208 93.2785 3.11265 92.9727 2.96238 92.4452L2.55424 91.0125C2.40396 90.485 2.70976 89.9356 3.23725 89.7853L5.625 89.1051Z" fill="white"/>
<path d="M4.61523 84.5508L5.33799 87.9507L2.9095 88.4669C2.37302 88.581 1.84565 88.2385 1.7316 87.702L1.42185 86.2449C1.3078 85.7085 1.65026 85.1811 2.18674 85.067L4.61523 84.5508Z" fill="white"/>
<path d="M3.91895 79.9384L4.40879 83.3795L1.95081 83.7294C1.40781 83.8067 0.90496 83.4292 0.827664 82.8862L0.61773 81.4114C0.540434 80.8684 0.917964 80.3655 1.46097 80.2882L3.91895 79.9384Z" fill="white"/>
<path d="M3.53516 75.2891L3.78982 78.7556L1.31374 78.9375C0.766734 78.9777 0.290725 78.5668 0.25054 78.0198L0.141398 76.5342C0.101213 75.9872 0.512069 75.5112 1.05907 75.471L3.53516 75.2891Z" fill="white"/>
<path d="M3.4707 70.6248L3.48901 74.1006L1.00628 74.1136C0.457814 74.1165 0.0108514 73.6743 0.00796336 73.1258L0.000119448 71.6361C-0.0027686 71.0877 0.439511 70.6407 0.987979 70.6378L3.4707 70.6248Z" fill="white"/>
<path d="M3.72363 65.9667L3.50549 69.4357L1.02763 69.2799C0.480231 69.2454 0.0643846 68.7738 0.0988067 68.2264L0.192297 66.7397C0.226719 66.1923 0.698375 65.7764 1.24577 65.8109L3.72363 65.9667Z" fill="white"/>
<path d="M4.29199 61.3367L3.83841 64.7828L1.37688 64.4588C0.833099 64.3873 0.450294 63.8884 0.521867 63.3446L0.716259 61.8677C0.787832 61.3239 1.28668 60.9411 1.83046 61.0127L4.29199 61.3367Z" fill="white"/>
<path d="M5.17383 56.7557L4.48691 60.163L2.05312 59.6724C1.51546 59.564 1.16747 59.0403 1.27587 58.5026L1.57026 57.0423C1.67865 56.5047 2.20238 56.1567 2.74004 56.2651L5.17383 56.7557Z" fill="white"/>
<path d="M6.36523 52.2458L5.44817 55.5985L3.05338 54.9435C2.52434 54.7988 2.21278 54.2526 2.35749 53.7236L2.75052 52.2867C2.89522 51.7577 3.44141 51.4461 3.97045 51.5908L6.36523 52.2458Z" fill="white"/>
<path d="M7.86035 47.8269L6.71738 51.1095L4.37269 50.2931C3.85471 50.1127 3.58102 49.5466 3.76138 49.0286L4.25122 47.6218C4.43158 47.1038 4.99769 46.8301 5.51566 47.0105L7.86035 47.8269Z" fill="white"/>
<path d="M9.65332 43.5204L8.28973 46.7176L6.006 45.7436C5.50149 45.5284 5.26694 44.945 5.48211 44.4405L6.0665 43.0703C6.28167 42.5658 6.86508 42.3312 7.36959 42.5464L9.65332 43.5204Z" fill="white"/>
<path d="M11.7344 39.3456L10.1565 42.4427L7.94429 41.3156C7.45559 41.0666 7.26125 40.4686 7.51024 39.9799L8.18647 38.6526C8.43546 38.1639 9.03347 37.9695 9.52218 38.2185L11.7344 39.3456Z" fill="white"/>
<path d="M14.0957 35.3218L12.3108 38.3044L10.1804 37.0294C9.70977 36.7478 9.55656 36.138 9.8382 35.6673L10.6032 34.3891C10.8848 33.9184 11.4946 33.7652 11.9653 34.0469L14.0957 35.3218Z" fill="white"/>
<path d="M16.7236 31.468L14.74 34.3223L12.7013 32.9054C12.2509 32.5924 12.1395 31.9736 12.4525 31.5232L13.3026 30.2999C13.6156 29.8495 14.2345 29.7382 14.6849 30.0512L16.7236 31.468Z" fill="white"/>
<path d="M19.6084 27.8021L17.4353 30.5149L15.4976 28.9626C15.0695 28.6197 15.0005 27.9947 15.3434 27.5667L16.2747 26.4041C16.6177 25.976 17.2427 25.907 17.6707 26.2499L19.6084 27.8021Z" fill="white"/>
<path d="M22.7363 24.3409L20.3837 26.8996L18.5561 25.2192C18.1523 24.8479 18.126 24.2197 18.4972 23.816L19.5055 22.7194C19.8767 22.3156 20.505 22.2893 20.9087 22.6605L22.7363 24.3409Z" fill="white"/>
<path d="M26.0918 21.1003L23.5706 23.4931L21.8615 21.6922C21.4839 21.2944 21.5004 20.6658 21.8982 20.2882L22.9787 19.2628C23.3766 18.8852 24.0051 18.9017 24.3827 19.2995L26.0918 21.1003Z" fill="white"/>
<path d="M29.6602 18.0953L26.9821 20.3111L25.3994 18.3981C25.0498 17.9755 25.1089 17.3495 25.5315 16.9999L26.6793 16.0503C27.1019 15.7007 27.7279 15.7598 28.0775 16.1824L29.6602 18.0953Z" fill="white"/>
<path d="M33.4238 15.3403L30.6012 17.3688L29.1523 15.3526C28.8323 14.9072 28.9339 14.2867 29.3792 13.9666L30.5889 13.0973C31.0343 12.7772 31.6549 12.8788 31.9749 13.3242L33.4238 15.3403Z" fill="white"/>
<path d="M37.3662 12.8474L34.4122 14.6792L33.1038 12.5692C32.8147 12.103 32.9583 11.4908 33.4244 11.2018L34.6904 10.4168C35.1566 10.1277 35.7688 10.2713 36.0578 10.7374L37.3662 12.8474Z" fill="white"/>
<path d="M41.4697 10.6285L38.398 12.2552L37.2361 10.061C36.9794 9.57632 37.1643 8.97531 37.649 8.71864L38.9655 8.02152C39.4502 7.76485 40.0512 7.94971 40.3079 8.43442L41.4697 10.6285Z" fill="white"/>
<path d="M45.7139 8.69409L42.5386 10.108L41.5286 7.83996C41.3055 7.33891 41.5308 6.75186 42.0319 6.52875L43.3927 5.92279C43.8938 5.69968 44.4808 5.92499 44.7039 6.42603L45.7139 8.69409Z" fill="white"/>
<path d="M50.0811 7.05249L46.817 8.24718L45.9636 5.91568C45.7751 5.40062 46.0398 4.83026 46.5549 4.64174L47.9538 4.12973C48.4688 3.94122 49.0392 4.20593 49.2277 4.72099L50.0811 7.05249Z" fill="white"/>
<path d="M54.5488 5.71204L51.211 6.68195L50.5182 4.29781C50.3652 3.77112 50.6681 3.22009 51.1948 3.06704L52.6253 2.65136C53.1519 2.49831 53.703 2.80121 53.856 3.3279L54.5488 5.71204Z" fill="white"/>
<path d="M59.0986 4.67834L55.7026 5.419L55.1736 2.99326C55.0567 2.45738 55.3964 1.92822 55.9322 1.81135L57.3877 1.49393C57.9236 1.37705 58.4527 1.71673 58.5696 2.25261L59.0986 4.67834Z" fill="white"/>
<path d="M63.707 3.95667L60.2685 4.46462L59.9057 2.00852C59.8255 1.46593 60.2004 0.961103 60.743 0.880949L62.2166 0.663252C62.7592 0.583099 63.264 0.957975 63.3442 1.50056L63.707 3.95667Z" fill="white"/>
<path d="M68.3545 3.54993L64.8894 3.82284L64.6944 1.34775C64.6514 0.800966 65.0597 0.3228 65.6065 0.279735L67.0915 0.162772C67.6383 0.119708 68.1165 0.528052 68.1596 1.07483L68.3545 3.54993Z" fill="white"/>
<path d="M77.8664 52.6346H66.766V59.8467C66.766 63.9337 63.4529 67.2469 59.3658 67.2469H52.8906V77.1138H59.3658C63.4529 77.1138 66.766 80.427 66.766 84.5141V91.9143H77.8664V84.5141C77.8664 80.427 81.1796 77.1138 85.2666 77.1138H91.1251V67.2469H85.2666C81.1796 67.2469 77.8664 63.9337 77.8664 59.8467V52.6346Z" stroke="white" stroke-width="1.23337"/>
</svg>
