<svg width="877" height="877" viewBox="0 0 877 877" fill="none" xmlns="http://www.w3.org/2000/svg">
<path fill-rule="evenodd" clip-rule="evenodd" d="M787.562 418.556C798.538 609.955 651.624 777.934 455.424 787.339C262.847 796.569 99.5267 647.934 90.0107 455.751C80.4981 263.655 228.73 100.739 418.989 89.9383C611.056 79.0354 776.494 226.503 787.562 418.556ZM434.998 585.418C391.073 587.588 357.671 626.289 360.238 668.34C362.245 710.023 398.959 744.484 442.109 742.658C485.377 740.828 519.284 703.468 517.476 660.72C515.618 616.799 477.33 583.327 434.998 585.418ZM443.364 291.637C489.637 288.938 520.421 247.792 517.358 208.612C515.493 165.947 476.656 132.148 434.39 134.504C394.113 136.747 357.74 172.369 360.282 217.585C362.694 260.496 399.965 294.17 443.364 291.637ZM208.704 360.115C249.871 357.026 289.372 389.819 291.964 434.002C294.408 475.645 262.233 514.588 217.747 517.088C172.621 519.623 136.594 483.471 134.665 442.296C132.638 399.051 167.569 361.86 208.704 360.115ZM668.912 517.159C712.879 514.543 745.818 475.337 742.851 434.033C741.092 393.446 704.843 357.792 660.306 359.989C617.743 362.087 583.185 399.49 585.748 443.141C588.344 487.359 627.347 519.632 668.912 517.159ZM443.837 525.511C396.595 528.992 354.436 490.031 351.691 443.787C349.096 400.061 382.431 354.698 433.367 351.472C481.99 348.393 522.991 385.759 525.965 432.798C529.243 484.644 487.675 523.89 443.837 525.511Z" fill="#35383B"/>
<path fill-rule="evenodd" clip-rule="evenodd" d="M351.691 443.787C354.437 490.031 396.596 528.992 443.837 525.511C487.676 523.89 529.243 484.644 525.965 432.799C522.991 385.759 481.991 348.393 433.367 351.473C382.431 354.698 349.097 400.062 351.691 443.787ZM433.873 354.298C387.291 356.914 351.896 395.494 354.538 443.166C357.184 490.905 396.377 525.804 444.089 522.857C492.247 519.882 526.061 479.796 523.129 433.195C520.144 385.744 480.248 351.276 433.873 354.298Z" fill="rgba(255,255,255,0.04)"/>
<path fill-rule="evenodd" clip-rule="evenodd" d="M433.872 354.298C387.29 356.914 351.896 395.494 354.538 443.166C357.184 490.905 396.377 525.804 444.088 522.857C492.247 519.882 526.06 479.796 523.129 433.195C520.143 385.744 480.247 351.276 433.872 354.298ZM385.968 441.278C384.552 412.084 407.742 386.473 437.136 385.651C467.086 384.813 491.029 408.685 491.798 436.818C492.635 467.381 467.36 491.819 438.042 491.442C412.398 491.11 387.351 469.804 385.968 441.278Z" fill="#35383B"/>
<circle cx="438.652" cy="213.404" r="78.3597" transform="rotate(-3.38743 438.652 213.404)" stroke="rgba(255,255,255,0.04)" stroke-width="1.5"/>
<circle cx="439.2" cy="664.351" r="78.3597" transform="rotate(-3.38743 439.2 664.351)" stroke="rgba(255,255,255,0.04)" stroke-width="1.5"/>
<circle cx="664.399" cy="438.603" r="78.3597" transform="rotate(-3.38743 664.399 438.603)" stroke="rgba(255,255,255,0.04)" stroke-width="1.5"/>
<circle cx="213.356" cy="437.523" r="78.3597" transform="rotate(-3.38743 213.356 437.523)" stroke="rgba(255,255,255,0.04)" stroke-width="1.5"/>
<path d="M477.796 436.05C479.121 455.837 463.721 476.02 441.23 477.448C419.907 478.801 401.113 461.957 399.9 440.811C398.661 419.188 416.142 400.789 436.725 399.597C457.383 398.402 476.504 415.372 477.796 436.05ZM474.788 436.627C474.173 418.394 459.821 401.08 436.788 402.5C412.904 403.971 401.786 423.177 402.806 440.74C403.945 460.343 420.226 475.631 440.65 474.628C460.577 473.648 476.271 457.135 474.788 436.627Z" fill="rgba(255,255,255,0.04)"/>
<path fill-rule="evenodd" clip-rule="evenodd" d="M395.428 26.6754C399.854 25.1472 403.995 24.8641 408.671 25.2245C409.737 26.9439 411.109 28.6684 411.962 30.6226C415.13 37.8876 418.134 45.2263 421.186 52.5407C421.893 54.2356 422.547 55.9519 423.311 57.8737L431.629 57.3814C432.955 56.3373 432.91 54.5151 433.458 52.9648C436.213 45.1711 438.889 37.3495 441.724 29.5854C442.46 27.5649 443.213 25.4147 445.718 23.9332C449.291 24.0338 453.288 24.1483 457.541 24.269C458.472 26.1158 459.442 27.673 460.075 29.3561C463.228 37.7397 465.685 46.3333 467.487 55.1105C467.687 56.0851 467.923 57.0548 468.115 57.9025C472.644 59.471 472.645 59.4718 477.423 58.8132C482.16 48.4202 486.565 37.6407 493.416 27.8708C497.903 27.6494 502.11 28.603 506.605 29.8172C509.211 35.163 509.82 41.0511 510.754 46.8226C511.694 52.6342 512.381 58.4871 513.237 64.7643C515.83 65.3967 518.558 66.0639 521.543 66.7923C522.355 65.5812 523.149 64.541 523.793 63.4167C528.236 55.6374 532.964 48.045 538.495 40.9807C539.522 39.6701 540.664 38.4498 541.929 36.9846C546.406 38.1279 550.917 38.6074 554.7 41.1481C556.293 47.1794 556.536 53.0762 556.873 58.9662C557.199 64.6639 556.155 70.4023 557.271 76.3899C559.772 77.2957 562.275 78.2006 565.125 79.2328C568.784 74.6063 572.31 69.9186 576.084 65.4421C579.881 60.9382 583.925 56.6447 588.043 52.0581C592.772 53.4611 597.222 54.7385 601.222 57.8315C601.752 69.5451 600.423 81.0586 598.722 92.8357C601.455 94.1215 603.998 95.3189 606.832 96.6528C611.141 92.3162 615.196 88.0641 619.44 84.0107C623.697 79.9434 628.035 75.9434 632.96 72.5065C637.247 74.4734 641.383 76.2776 645.014 79.6199C644.37 91.2364 641.505 102.494 638.501 114.107C641.013 115.772 643.492 117.416 646.114 119.155C655.156 111.311 664.274 104.096 674.66 98.0043C678.641 100.161 682.22 102.882 685.882 105.971C685.713 107.309 685.667 108.642 685.364 109.913C683.399 118.133 680.853 126.173 677.69 134.014C676.939 135.876 676.193 137.742 675.516 139.424C678.268 142.937 678.761 143.342 682.843 145.446C692.466 139.23 702.234 132.929 713.286 128.256C715.151 129.818 716.968 131.278 718.71 132.821C720.341 134.265 721.892 135.797 723.719 137.515C720.195 148.98 714.748 159.417 708.95 170.003C710.941 172.155 712.864 174.231 715.034 176.576C720.456 174.033 725.703 171.428 731.066 169.095C736.461 166.748 741.886 164.418 747.996 162.994C751.58 165.717 754.124 169.48 757.213 173.215C755.164 178.759 752.003 183.733 748.915 188.714C745.811 193.719 742.433 198.556 738.942 203.817C740.613 206.084 742.282 208.345 744.069 210.769C745.374 210.455 746.492 210.244 747.576 209.918C755.812 207.45 764.029 204.914 772.286 202.516C774.195 201.962 776.237 201.862 778.633 201.488C779.269 202.222 780.003 202.93 780.577 203.752C782.501 206.514 784.37 209.316 786.036 211.774C786.06 214.311 784.699 215.722 783.6 217.143C778.541 223.681 773.375 230.14 768.225 236.608C767.088 238.036 765.859 239.393 764.549 240.926C766.149 243.624 767.591 246.059 769.137 248.668C774.925 247.44 780.471 246.075 786.086 245.125C791.727 244.17 797.441 243.629 803.162 242.901C807.285 246.111 808.408 250.806 810.744 255.183C807.139 260.036 803.114 264.316 798.898 268.415C794.67 272.524 790.338 276.529 785.763 280.854C786.938 283.537 788.127 286.257 789.442 289.26C801.055 287.331 812.469 286.922 824.142 287.76C827.632 291.261 828.085 296.053 829.773 300.508C821.414 309.122 812.057 315.999 802.375 322.534C802.279 325.875 803.781 328.516 804.804 331.677C816.556 331.637 828.121 332.121 839.106 334.327C841.536 337.954 842.659 341.856 843.019 347.34C841.196 350.623 837.411 351.821 834.542 354.465L828.886 358.061C826.128 359.603 823.726 360.913 821.374 362.305C818.653 363.917 815.527 364.881 813.067 367.247C813.697 370.091 814.302 372.831 814.9 375.531C821.31 376.556 827.388 377.53 834.238 378.626L842.15 380.696L848.171 383.608C848.584 384.37 850.994 388.931 850.807 388.923L851.183 395.271C850.528 396.302 850.025 396.815 849.235 398.058L849.027 398.07L834.661 403.822L819.393 410.496L820.085 422.18L820.224 422.22L849.298 430.303L849.325 430.309L851.892 431.59C853.665 433.936 853.651 434.614 853.857 437.193C853.997 438.938 853.38 442.94 852.615 443.802L847.922 447.348L839.558 451.256C839.573 451.23 839.591 451.206 839.606 451.18C832.508 453.19 826.107 454.999 819.565 456.848C819.361 459.919 819.174 462.714 818.978 465.65C824.916 468.074 830.609 470.4 837.114 473.056C837.066 472.942 837.015 472.829 836.967 472.717L841.429 474.862C842.254 475.551 842.802 476.062 843.432 476.432C845.887 477.876 848.383 479.25 850.552 480.477C851.51 485.876 850.704 491.227 848.424 494.834C837.785 498.469 826.415 499.941 814.745 501.752C814.173 504.536 813.608 507.288 812.971 510.389C816.538 512.346 819.942 514.12 823.253 516.057C826.75 518.103 830.204 520.23 833.589 522.456C836.815 524.579 839.929 526.876 843.225 529.189C842.656 533.93 841.771 538.303 839.629 542.717C833.935 544.519 827.97 544.31 822.148 544.913C816.465 545.503 810.738 545.644 804.569 546.009C803.733 548.479 802.83 551.15 801.823 554.123C806.654 557.682 811.445 561.078 816.087 564.664C820.753 568.269 825.208 572.135 829.603 576.569C828.48 581.004 827.097 585.241 824.605 589.18C812.821 590.618 801.264 589.332 789.749 588.097C787.74 590.593 786.897 593.315 785.813 596.01C786.516 597.922 788.254 598.802 789.545 600.078C795.427 605.89 801.317 611.692 807.155 617.547C808.334 618.731 809.303 620.125 810.583 621.681C808.789 626.008 807.031 630.298 803.608 634.099C800.264 633.777 796.902 633.637 793.606 633.097C786.951 632.007 780.33 630.698 773.696 629.478C772.229 629.209 770.761 628.933 768.967 628.6C767.435 631.182 766.004 633.592 764.405 636.285C772.354 645.141 779.977 653.909 785.933 663.676C784.63 667.598 782.234 671.351 778.25 675.709C766.8 674.069 755.692 670.201 744.309 666.079C742.477 668.36 740.707 670.565 738.794 672.948C739.56 674.213 740.223 675.341 740.915 676.451C745.471 683.749 750.064 691.024 754.573 698.352C755.529 699.906 756.192 701.644 757.002 703.318C754.763 707.645 751.422 710.713 748.05 714.294C736.677 711.048 726.005 706.119 715.497 700.55C712.878 702.429 710.906 704.631 709.166 707.19C711.854 712.558 714.599 717.776 717.099 723.106C719.526 728.281 721.891 733.503 723.405 739.061C720.812 743.158 717 745.678 713.457 748.948C702.424 744.286 692.412 738.108 682.422 731.289C680.058 733.207 677.866 734.986 675.497 736.909C675.932 738.313 676.295 739.571 676.71 740.811C679.332 748.645 682.017 756.46 684.561 764.319C685.226 766.375 685.468 768.57 685.928 770.816C682.671 774.316 678.886 776.731 674.729 779.162C664.407 773.255 655.184 765.957 646.265 758.019C643.57 759.718 641.171 761.232 638.492 762.92C639.818 768.563 641.27 774.068 642.374 779.639C643.488 785.253 644.254 790.936 645.197 796.728C642.184 801.115 637.325 802.314 633.024 804.792C623.347 797.494 614.986 789.214 606.781 780.366C604.115 781.676 601.728 782.847 599.301 784.042C598.708 787.961 599.514 791.598 600.049 795.223C601.214 803.101 601.541 810.991 600.951 818.744C598.141 821.691 595.581 822.951 588.354 824.937C587.194 823.882 585.695 822.785 584.52 821.41C579.039 814.997 573.643 808.512 568.231 802.042C567.266 800.888 566.369 799.679 565.418 798.468C562.146 798.477 559.431 799.633 556.574 801.359C556.991 812.632 556.711 823.901 555.005 835.262C551.539 838.795 546.717 838.583 542.776 839.968C540.455 839.478 539.503 837.825 538.388 836.359C533.276 829.625 528.633 822.584 524.483 815.217C523.661 813.757 522.812 812.314 521.869 810.679C518.804 811.13 515.773 811.021 512.913 812.803C512.589 815.6 512.373 818.448 511.912 821.254C510.764 828.242 509.567 835.224 508.249 842.181C507.915 843.943 507.05 845.605 506.523 847.054C502.163 849.207 497.933 848.936 493.545 849.302C489.612 844.662 487.083 839.33 484.479 834.084C481.93 828.953 479.687 823.669 477.231 818.277C474.482 817.358 471.696 818.21 468.488 818.471C468.062 819.845 467.597 821.236 467.195 822.645C464.931 830.592 462.725 838.556 460.395 846.485C459.785 848.562 459.183 850.736 457.025 852.408L445.762 853.075C443.386 852.047 442.651 850.292 442.019 848.562C439.131 840.643 436.305 832.699 433.479 824.757C432.919 823.184 432.453 821.578 431.884 819.808C430.263 819.668 428.779 819.522 427.293 819.42C425.975 819.33 424.652 819.29 423.039 819.216C422.279 821.228 421.632 823.125 420.855 824.965C417.709 832.43 414.573 839.901 411.317 847.319C410.611 848.976 409.408 850.417 408.232 852.256C403.628 851.736 399.646 851.287 395.415 850.81C394.581 848.726 393.687 846.928 393.131 845.033C390.423 835.798 388.368 826.415 387.154 816.901C384.468 814.606 381.177 815.763 378.353 814.403C375.372 819.959 372.675 825.185 369.795 830.306C366.908 835.441 363.825 840.463 360.098 845.321C355.237 845.017 350.771 844.021 346.503 842.329C344.065 830.493 342.686 819.15 342.608 807.576C340.017 805.97 337.157 805.715 334.073 804.839C333.1 806.198 332.162 807.543 331.188 808.862C326.378 815.378 321.591 821.911 316.724 828.386C315.518 829.988 314.045 831.39 312.456 833.149C307.891 832.009 303.351 831.067 299.135 828.039C298.351 816.595 298.579 805.181 299.752 793.736C297.191 791.666 294.365 790.779 291.05 790.031C283.577 798.859 276.051 807.726 267.218 815.045C262.455 814.186 257.628 811.811 254.234 808.641C254.384 797.227 256.404 785.815 258.828 774.229C256.156 772.729 253.695 771.35 250.923 769.793C242.102 777.876 233.608 786.063 223.483 792.394C219.213 790.351 215.356 788.059 211.716 784.707C213.21 773.181 216.585 762.085 220.263 751.017C218.302 748.325 215.613 746.991 212.88 745.281C203.554 752.388 194.107 759.151 183.339 764.469C179.221 762.062 175.786 758.961 172.313 755.585C175.373 744.053 179.903 733.369 185.177 722.572C183.041 720.545 180.999 718.608 179.194 716.896C176.689 716.673 175.308 718.125 173.756 719.034C166.756 723.137 159.543 726.811 152.052 729.928C150.35 730.635 148.619 731.27 146.682 732.025C142.885 729.276 139.962 725.847 136.843 722.192C138.543 716.458 141.383 711.288 144.187 706.136C147.002 700.964 150.082 695.939 153.222 690.544C151.401 688.39 149.581 686.234 147.554 683.834C145.988 684.406 144.566 684.826 143.228 685.431C135.216 689.055 126.931 691.915 118.48 694.309C117.047 694.714 115.567 694.958 114.378 695.216C110.674 692.347 108.076 689.105 105.441 684.09C110.895 674.044 117.752 664.685 125.217 655.675C124.327 652.657 122.545 650.47 120.435 648.065C119.239 648.228 117.882 648.219 116.654 648.612C108.439 651.238 100.023 653.011 91.5626 654.581C89.7687 654.914 87.8955 654.83 86.015 654.941C85.3578 654.328 84.5972 653.857 84.1665 653.177C82.2741 650.191 80.4783 647.145 78.4807 643.844C79.3319 642.519 79.9928 641.162 80.9469 640.058C86.3579 633.806 91.825 627.605 97.3067 621.416C98.6406 619.911 100.1 618.518 101.5 617.076C101.142 613.92 99.5909 611.558 97.779 608.854C91.9684 608.739 86.3047 610.866 80.4201 610.992C74.6986 611.115 68.9847 611.621 63.1995 611.963C59.7585 608.425 58.5501 604.044 56.8508 599.599C60.4857 594.869 64.9038 590.962 69.3055 587.07C73.7134 583.173 78.2734 579.449 82.7749 575.644C82.5507 572.518 81.4276 569.958 79.8061 567.325C68.5327 567.259 57.2234 568.108 46.0311 566.208C45.4156 566.104 44.8709 565.573 43.9037 565.016C42.7848 561.434 41.5875 557.607 40.2991 553.479C41.7584 552.108 42.9603 550.7 44.4209 549.654C51.0078 544.943 57.661 540.324 64.3067 535.696C65.8146 534.646 67.3887 533.693 68.9214 532.702C69.228 529.519 68.3177 526.831 67.153 523.8C64.465 523.518 61.6446 523.295 58.8447 522.917C51.4966 521.922 44.1503 520.911 36.8223 519.784C35.2129 519.536 33.6837 518.78 32.2701 518.306C30.6805 514.087 29.973 510.142 29.924 506.195C30.7352 503.724 32.8307 502.745 34.7061 501.717C41.8055 497.828 48.9815 494.073 56.1414 490.295C57.615 489.518 59.1502 488.858 60.9539 488.001C60.7457 486.417 60.5771 484.953 60.3554 483.497C60.1547 482.177 59.8962 480.866 59.6041 479.215C58.1195 478.864 56.694 478.472 55.2479 478.192C46.9597 476.576 38.76 474.612 30.7631 471.873C28.867 471.224 26.8015 470.846 25.3476 468.669C24.4133 465.059 24.2757 461.065 24.6436 457.289C26.1146 454.813 28.4483 454.014 30.5953 453.16C38.1143 450.17 45.7069 447.361 53.2721 444.488C54.5296 444.01 55.7971 443.562 57.425 442.968C57.5919 440.211 57.7631 437.4 57.9232 434.751C56.5997 433.095 54.797 433.075 53.2634 432.48C45.4034 429.429 37.5255 426.419 29.6996 423.282C28.0244 422.61 26.5328 421.481 25.1046 420.649C24.0744 416.217 24.9022 412.243 25.3613 408.487C26.4339 406.43 28.2058 405.88 29.9914 405.296C38.66 402.459 47.4583 400.143 56.46 398.628C57.4386 398.464 58.3955 398.172 59.2201 397.973C60.7147 393.906 60.714 393.905 60.5057 389.365C59.6101 387.789 57.8299 387.517 56.3691 386.739C49.0751 382.849 41.769 378.981 34.5177 375.012C32.922 374.137 31.5353 372.883 30.1146 371.848C29.6411 367.437 30.8699 363.578 31.743 360.026C32.916 358.119 34.4652 357.611 36.1871 357.279C44.6427 355.649 53.1094 354.123 61.7393 353.754C63.4129 353.683 65.0856 353.559 66.5639 353.472C68.5713 349.929 68.8178 349.002 68.9967 344.323C67.913 343.597 66.7133 342.704 65.4318 341.948C57.8516 337.473 50.7694 332.291 43.8766 326.841C42.7076 325.917 41.6738 324.822 40.4932 323.73C41.704 319.177 42.4399 314.702 45.1489 310.702C56.7603 308.586 68.3843 309.828 80.1959 309.909C81.2789 307.088 82.2969 304.444 83.3968 301.578C74.1639 294.026 64.9695 286.65 56.9855 277.781C58.4219 273.314 59.8873 269.073 62.9107 265.254C74.6375 264.476 86.0614 266.796 97.8671 268.457C99.2747 265.875 100.622 263.403 102.122 260.649C100.983 259.405 100.041 258.257 98.9805 257.235C92.8914 251.365 87.2773 245.067 82.0414 238.431C80.9003 236.984 79.8526 235.463 78.7114 233.905C80.5055 229.544 82.7684 225.672 85.8293 221.927C97.6843 222.739 108.946 226.254 120.468 229.469C122.192 226.96 123.797 224.625 125.556 222.067C124.471 220.628 123.444 219.335 122.49 217.992C117.704 211.253 112.906 204.519 108.184 197.733C107.141 196.235 106.394 194.531 105.5 192.902C107.617 188.726 110.594 185.524 113.568 181.805C114.976 182.039 116.493 182.086 117.865 182.555C125.684 185.229 133.476 187.982 141.257 190.763C143.158 191.443 144.987 192.328 147.014 193.19C149.622 191.537 151.316 189.081 153.257 186.375C147.135 176.474 141.22 166.477 136.821 155.209C139.508 151.433 142.94 148.296 146.457 144.98C157.691 148.887 167.847 154.519 177.942 160.387C180.891 159.253 182.524 156.828 184.442 155.09C185.034 152.974 183.819 151.59 183.12 150.112C179.294 142.01 175.955 133.721 173.412 125.125C173.083 124.013 172.89 122.861 172.62 121.662C175.435 117.845 179.283 115.432 183.004 112.485C193.848 117.665 203.374 124.59 213.013 131.856C215.491 130.08 217.786 128.438 220.369 126.587C216.946 115.533 213.454 104.633 211.796 92.8831C214.385 88.9147 218.979 87.3305 222.948 84.5941C224.034 85.1734 225.11 85.6194 226.045 86.2681C233.42 91.3806 240.105 97.3337 246.694 103.398C248.042 104.638 249.417 105.849 250.962 107.237C253.623 105.713 256.073 104.311 258.743 102.78C256.574 91.1951 254.571 79.7827 254.145 68.3017C257.919 64.7369 262.331 63.518 266.651 61.5074C275.864 69.0977 283.663 77.9173 291.402 87.2696C294.12 86.1937 296.736 85.1583 299.519 84.0574C299.252 77.9801 298.707 72.1182 298.818 66.2686C298.927 60.5613 298.232 54.7829 299.795 48.6758C303.224 45.9763 307.691 45.1774 312.345 43.848C313.635 45.1589 315.07 46.3402 316.167 47.7786C321.076 54.2199 325.894 60.7285 330.73 67.2249C331.825 68.6959 332.858 70.2135 333.84 71.5949C337.141 71.906 339.739 70.6742 342.676 69.6948C343.359 58.0959 343.723 46.4798 346.695 35.1081C350.656 32.4883 355.134 32.6266 358.812 31.6671C361.472 32.5783 362.472 34.4149 363.476 36.1445C367.712 43.4362 371.872 50.7711 376.045 58.1008C376.705 59.2625 377.284 60.4686 377.985 61.8141L386.756 61.2949C387.168 59.4867 387.641 57.8953 387.882 56.272C389.117 47.9082 391.009 39.6906 393.456 31.6047C393.979 29.8747 394.796 28.2305 395.428 26.6754ZM397.186 28.9616C396.568 30.8246 395.893 32.3821 395.537 34.0107C393.809 41.9168 392.148 49.838 390.504 57.762C390.096 59.7255 390.139 61.8361 388.089 63.552C385.472 64.0436 382.501 64.6248 379.52 65.1411C378.877 65.2526 378.193 65.1312 377.804 65.123C375.418 64.0927 375.037 61.9316 374.077 60.196C370.071 52.9692 366.102 45.7201 362.056 38.5152C361.251 37.0812 360.172 35.8019 359.117 34.3059C355.711 35.5384 352.151 34.9719 349.033 37.2021C346.35 48.2708 346.28 59.7654 345.383 71.1924C341.707 73.6205 337.675 74.0116 334.134 74.9204C331.637 74.0488 330.936 72.0249 329.778 70.3992C329.735 70.338 329.691 70.2769 329.648 70.2158C325.092 63.819 320.534 57.4203 315.907 51.0747C314.835 49.6023 313.477 48.3359 312.277 47.0067C308.428 47.4274 305.158 48.5075 302.273 50.286C300.773 62.0152 302.222 73.4399 302.619 84.761C299.115 87.6919 295.181 88.6158 291.05 90.0366C289.78 88.7051 288.496 87.4189 287.278 86.0712C282.295 80.5656 277.382 74.9962 272.333 69.5533C270.643 67.7317 268.622 66.216 266.68 64.4976C266.561 64.5415 266.442 64.5852 266.323 64.6287C263.018 65.8432 260.011 66.9478 257.38 69.0517C257.139 80.7142 259.787 91.9052 261.797 103.421C258.494 106.501 254.6 108.258 250.373 110.077C242.071 101.598 233.462 93.8309 223.635 87.5533C220.231 88.9541 217.392 90.6294 214.87 93.2197C215.123 95.0836 215.186 96.9586 215.65 98.7266C217.794 106.877 220.052 114.998 222.259 123.134C222.602 124.401 222.883 125.685 223.214 127.052C219.999 130.121 216.749 132.655 212.815 134.497C203.3 127.334 193.857 120.579 183.495 115.368C180.353 117.4 177.616 119.292 175.467 122.08C178.418 133.448 183.175 144.04 188.094 154.592C185.103 158.027 182.084 160.876 178.445 163.382C176.913 162.532 175.44 161.747 174 160.906C166.409 156.469 158.575 152.524 150.45 149.166C149.244 148.667 147.939 148.402 146.51 147.979C144.132 150.366 141.893 152.611 139.632 154.878C143.881 166.289 150.27 176.219 156.187 186.455C153.412 189.958 151.039 193.401 147.552 195.993C142.098 193.841 136.803 191.679 131.453 189.662C125.945 187.584 120.356 185.735 114.259 184.417C112.175 187.167 110.171 189.815 108.037 192.631C110.249 196.193 112.21 199.528 114.353 202.742C116.598 206.113 118.973 209.4 121.375 212.662C123.648 215.746 126.031 218.749 128.35 221.77C126.047 225.572 124.184 229.147 120.929 232.208C119.359 231.823 117.726 231.518 116.156 231.018C107.936 228.405 99.5328 226.574 91.0375 225.16C89.5891 224.919 88.1002 224.91 86.4658 224.781C84.6749 227.759 83.0473 230.484 81.3618 233.31C88.209 243.289 96.4595 251.701 104.74 259.783C102.965 265.064 101.127 268.411 98.4009 271.328C87.1536 269.601 75.7205 267.55 63.7678 267.845C62.3529 271.076 61.0135 274.13 59.646 277.25C63.7495 281.899 67.9751 286.008 72.497 289.802C76.9983 293.578 81.5988 297.237 86.2338 301.01C84.5297 305.149 84.2378 309.506 80.8822 312.796C69.4326 312.181 57.9866 312.054 46.6206 313.433C45.0376 316.75 43.9135 319.87 43.683 323.65C45.0205 324.771 46.3332 326.076 47.8365 327.1C54.5294 331.658 61.2744 336.142 68.0096 340.64C69.5288 341.655 71.4121 342.222 72.3185 344.424C71.2785 348.134 71.5236 352.519 68.6056 355.858C68.4435 355.872 68.2814 355.886 68.1194 355.9C56.6521 356.889 45.4294 357.857 34.5461 360.638C33.4384 364.254 32.7993 367.502 32.7639 371.046C34.2276 372.009 35.5589 373.055 37.0343 373.829C44.2059 377.589 51.4116 381.284 58.6185 384.978C60.3945 385.888 62.512 386.253 63.9033 388.75C62.7628 392.226 64.219 396.701 61.2385 400.397C50.0184 402.8 38.6838 404.564 28.0012 409.092C27.8913 412.701 26.966 415.978 27.6743 419.609C30.8901 421.077 34.0336 422.724 37.3295 423.972C43.3228 426.238 49.4151 428.243 55.4467 430.41C57.1462 431.02 59.1831 431.078 60.5843 433.771C60.6292 436.656 60.6845 440.32 60.7302 443.273C58.9803 446.117 56.6 446.171 54.5892 446.925C47.1708 449.707 39.7306 452.433 32.3352 455.273C30.6465 455.92 28.7972 456.464 27.569 458.32C27.5598 461.507 27.3617 464.858 28.4861 468.182C29.6462 468.623 30.7316 469.077 31.8437 469.453C40.1734 472.267 48.7085 474.266 57.3599 475.78C59.2106 476.104 61.0436 476.362 62.5232 478.229C63.4568 481.523 63.7645 485.165 63.5776 488.467C62.379 490.908 60.2306 491.266 58.4632 492.183C51.1284 495.989 43.7706 499.752 36.4598 503.605C35.0068 504.37 33.3622 505.041 32.5604 507.064C33.1214 509.944 33.7281 513.056 34.3642 516.322C45.634 519.477 57.1062 519.927 68.7313 521.081C71.3938 524.655 71.4874 528.9 72.4198 533.253C70.6972 534.458 69.0814 535.619 67.435 536.733C60.7301 541.273 53.9856 545.755 47.3289 550.366C45.8568 551.386 44.1518 552.338 43.4178 554.569C44.3372 557.377 45.3226 560.388 46.3317 563.47C57.966 565.632 69.4256 564.292 80.8482 564.093C84.0964 567.461 84.6544 571.712 86.2247 575.939C84.7832 577.201 83.4288 578.408 82.0511 579.589C76.0283 584.748 69.9673 589.862 63.9934 595.075C62.5006 596.377 61.275 597.989 60.0259 599.35C60.7054 603.129 62.17 606.113 64.2081 609.162C75.6333 609.337 86.9356 607.589 98.3669 605.522C101.6 608.686 103.09 612.608 104.665 616.753C104.704 616.857 104.744 616.961 104.783 617.065C102.433 619.43 100.085 621.606 97.9543 623.974C93.1005 629.364 88.3275 634.829 83.5806 640.314C82.7288 641.297 82.1588 642.523 81.4659 643.622C83.2596 646.736 84.5288 649.872 86.9534 652.302C98.5112 650.963 109.559 648.017 120.62 644.64C124.107 647.51 125.947 651.304 128.28 655.051C124.697 659.807 121.073 664.45 117.635 669.227C114.193 674.009 110.969 678.946 108.094 684.421C110.388 687.189 111.849 690.456 115.098 692.63C120.542 690.883 126.05 689.288 131.428 687.342C136.806 685.396 142.058 683.101 147.26 681C151.061 683.743 154.129 687.362 155.806 691.098C149.722 700.858 143.85 710.882 139.48 721.982C141.933 724.482 144.261 726.852 146.583 729.216C157.882 725.143 168.041 719.519 177.874 713.768C182.014 716.241 185.773 719.779 187.734 723.024C182.718 733.325 178.139 743.971 175.124 755.816C176.564 756.87 177.92 757.871 179.286 758.857C180.62 759.822 181.965 760.77 183.456 761.834C188.596 758.719 193.586 755.888 198.369 752.746C203.282 749.515 207.995 745.977 212.855 742.531C216.701 744.748 220.136 747.078 223.199 750.153C221.523 755.758 219.831 761.226 218.26 766.729C216.641 772.397 215.411 778.152 214.57 784.339C217.461 786.158 220.273 787.926 223.172 789.751C233.274 783.121 241.919 775.118 250.469 767.002C254.591 768.949 258.434 770.57 261.615 773.766C259.612 785.245 256.921 796.581 257.285 808.339C260.474 810.044 263.281 811.852 266.69 812.536C275.355 805.201 282.565 796.635 289.837 787.997C290.124 787.655 290.412 787.313 290.699 786.972C295.021 788.49 299.297 789.389 302.531 792.431C302.163 798.498 301.706 804.21 301.497 809.93C301.289 815.641 301.443 821.353 302.232 827.121C304.019 827.808 305.558 828.462 307.138 828.99C308.708 829.513 310.32 829.907 312.092 830.41C316.177 826.057 319.638 821.504 322.925 816.828C326.305 812.019 329.526 807.096 332.877 802.133C337.404 802.922 341.731 803.355 345.409 806.265C346.218 817.785 346.145 829.286 349.147 840.437C352.532 841.628 355.764 842.325 359.31 842.487C360.32 841.029 361.387 839.718 362.2 838.268C366.244 831.058 370.228 823.816 374.211 816.572C375.092 814.973 375.489 813.031 377.425 812.231C383.757 812.136 386.302 812.725 389.572 815.155C391.561 826.17 393.157 837.518 397.245 848.225C399.237 848.529 400.897 848.919 402.57 849C404.216 849.079 405.877 848.841 407.698 848.733C408.542 847.17 409.474 845.754 410.107 844.215C413.183 836.728 416.193 829.21 419.197 821.695C419.938 819.839 420.203 817.707 422.818 816.524C424.516 816.512 426.708 816.407 428.887 816.508C430.379 816.577 431.859 816.932 432.898 817.091C434.954 818.608 435.234 820.497 435.699 822.278C437.793 830.293 440.485 838.104 443.686 845.739C444.329 847.273 445.102 848.751 445.83 850.283C449.447 850.559 452.771 850.558 456.3 849.675C457.185 847.344 458.261 845.039 458.938 842.625C460.943 835.48 462.827 828.301 464.676 821.115C465.14 819.312 465.307 817.435 467.415 815.943C470.454 815.582 473.945 815.165 476.92 814.811C479.881 815.864 480.386 818.137 481.169 820.144C484.243 828.022 487.961 835.59 492.126 842.938C492.856 844.224 493.792 845.396 494.711 846.737C496.577 846.489 498.251 846.348 499.888 846.027C501.508 845.709 503.095 845.207 504.784 844.762C505.336 842.579 505.986 840.65 506.295 838.67C507.544 830.675 508.732 822.668 509.841 814.651C510.101 812.776 510.147 810.923 512.312 809.547C515.574 809.337 518.966 807.382 523.085 808.023C524.023 809.513 524.995 811.066 525.974 812.614C530.211 819.316 534.423 826.035 538.711 832.704C539.692 834.229 540.943 835.58 541.977 836.893C545.692 836.839 548.703 835.717 551.844 834.546C551.97 834.499 552.096 834.452 552.222 834.405C554.256 822.945 553.668 811.468 554.057 799.842C557.431 797.055 561.547 796.31 565.903 795.168C567.096 796.64 568.241 798.056 569.39 799.469C574.606 805.884 579.799 812.317 585.061 818.692C586.107 819.957 587.432 820.99 588.725 822.222C592.151 821.003 595.336 820.027 598.392 817.881C598.376 806.511 597.483 795.124 595.755 784.114C598.887 780.94 603.272 778.774 607.88 778.073C615.568 786.499 623.555 794.948 633.003 801.911C636.208 800.37 639.251 798.99 641.864 796.85C641.723 794.457 641.837 792.235 641.421 790.116C639.956 782.671 638.311 775.263 636.725 767.842C636.343 766.057 635.928 764.279 635.588 762.76C638.592 759.579 642.685 756.986 646.582 755.733C655.506 762.923 664.27 770.611 674.896 776.377C675.889 775.669 676.881 774.96 677.878 774.248C679.595 773.022 681.329 771.784 683.108 770.514C680.927 759.082 676.873 748.579 672.834 738.115C672.705 737.782 672.576 737.448 672.448 737.115C675.254 733.469 678.746 731.173 682.383 728.639C683.851 729.577 685.227 730.521 686.663 731.364C693.647 735.463 700.625 739.577 707.66 743.588C709.374 744.567 711.302 745.174 713.016 745.901C716.192 743.823 718.704 741.684 720.519 738.859C717.008 727.5 711.285 717.357 705.985 706.794C707.577 705.108 708.907 703.591 710.356 702.196C711.906 700.704 713.104 698.762 715.343 697.969C720.563 700.423 725.708 702.949 730.942 705.27C736.315 707.655 741.75 709.919 747.707 711.398C748.975 710.05 750.159 708.879 751.239 707.619C752.314 706.368 753.283 705.028 754.495 703.474C751.566 698.306 748.886 693.242 745.888 688.378C742.802 683.373 739.407 678.559 736.067 673.545C738.257 669.791 740.65 666.404 744.031 663.32C745.75 663.908 747.492 664.463 749.204 665.093C757.292 668.074 765.533 670.527 773.975 672.282C775.257 672.549 776.582 672.616 778.084 672.8C779.943 669.98 781.684 667.338 783.528 664.539C777.223 654.251 769.429 645.421 761.776 636.784C764.137 631.213 765.846 628.551 769.001 625.592C780.002 628.342 791.347 630.665 803.182 631.165C804.729 628.014 806.806 625.339 807.453 621.688C800.297 612.52 791.687 604.719 782.997 597.338C784.154 592.177 786.279 587.909 788.94 585.327C800.187 586.298 811.565 587.951 823.368 586.637C824.582 583.433 825.758 580.329 826.948 577.192C825.763 576.006 824.862 575.013 823.87 574.124C817.32 568.255 810.394 562.871 803.025 558.064C801.49 557.063 799.714 556.274 799.196 553.924C800.591 550.473 800.525 546.185 803.539 543.094C804.844 543.017 806.01 542.945 807.174 542.879C815.097 542.433 823.021 542.01 830.942 541.527C833.461 541.374 835.939 540.954 838.205 539.602C838.634 538.049 839.08 536.606 839.426 535.138C839.808 533.521 840.099 531.881 840.46 530.095C838.662 528.785 837.117 527.466 835.398 526.439C828.593 522.368 821.73 518.395 814.897 514.37C813.334 513.449 811.809 512.466 810.193 511.465C811.099 507.091 810.602 502.738 813.451 499.169C824.693 497.186 836 496.24 846.713 492.483C848.307 489.209 847.928 485.789 848.566 482.27C847.024 481.333 845.678 480.317 844.179 479.638C836.65 476.231 829.088 472.896 821.524 469.568C819.702 468.766 817.539 468.552 816.131 465.743C816.347 462.794 816.616 459.136 816.837 456.113C818.775 453.553 821.13 453.546 823.184 452.911C830.108 450.775 837.06 448.719 843.986 446.587C846.433 445.834 848.682 444.705 850.392 442.429C851.065 439.59 851.264 436.61 850.516 433.344C849.185 432.762 847.85 432.036 846.43 431.588C838.229 429.003 830.019 426.448 821.785 423.975C819.999 423.439 818.129 423.221 816.874 421.145L816.296 411.381C817.447 408.797 819.594 408.488 821.421 407.686C828.678 404.5 835.953 401.351 843.18 398.098C844.991 397.284 846.648 396.127 848.416 395.105C848.3 393.146 848.309 391.46 848.069 389.811C847.877 388.496 847.381 387.225 847.068 386.108C845.076 384.318 842.987 383.334 840.59 382.914C832.622 381.516 824.663 380.047 816.686 378.699C814.99 378.413 813.301 378.365 812.154 376.381C811.465 373.092 810.088 369.588 810.742 365.352C812.141 364.511 813.694 363.564 815.26 362.639C822.227 358.514 829.216 354.425 836.15 350.247C837.702 349.312 839.067 348.062 840.474 346.992C840.046 344.979 839.759 343.325 839.333 341.706C838.914 340.11 838.355 338.549 837.76 336.668C832.045 336.029 826.547 335.236 821.019 334.847C815.309 334.447 809.574 334.439 803.664 334.255C800.529 331.037 800.327 326.727 799.249 323.014C800.16 320.629 802.119 319.853 803.719 318.646C810.316 313.665 816.876 308.633 823.395 303.549C824.684 302.545 825.727 301.227 826.836 300.105C825.568 296.574 824.958 293.225 822.574 290.302C811.209 289.707 799.817 291.242 788.697 291.767C785.795 288.543 784.894 286.708 783.146 280.705C783.802 278.667 785.698 277.697 787.125 276.302C793.159 270.407 799.205 264.524 805.186 258.577C806.22 257.549 806.971 256.233 807.888 255.001C806.239 251.943 804.734 249.158 803.225 246.362C791.185 246.184 779.949 249.448 768.506 251.515C765.42 248.202 763.478 244.57 761.779 240.538C763.117 239.029 764.31 237.624 765.568 236.277C771.112 230.339 776.111 223.968 780.71 217.282C781.742 215.782 783.11 214.396 783.044 211.905C782.472 211.059 781.872 210.173 781.252 209.256C780.171 207.659 779.03 205.972 777.865 204.251C766.417 206.139 755.761 209.877 745.078 213.625C744.774 213.731 744.469 213.838 744.165 213.945C740.736 211.03 738.456 207.545 736.063 203.826C736.946 202.494 737.806 201.262 738.601 199.993C743.169 192.702 747.748 185.418 752.256 178.09C753.119 176.686 753.686 175.099 754.379 173.616C752.204 170.695 750.323 167.929 747.585 165.937C741.794 167.323 736.516 169.588 731.271 171.874C725.887 174.221 720.626 176.853 715.259 179.386C711.702 176.732 708.902 173.658 706.17 170.026C711.793 159.667 717.321 149.276 720.812 137.983C718.174 135.391 716.047 132.778 712.977 131.285C702.076 135.888 692.369 142.303 682.521 148.59C678.944 145.851 675.365 143.668 672.499 140.19C676.84 129.348 680.927 118.469 683.221 106.907C680.52 104.553 677.944 102.199 674.567 100.986C664.345 106.947 655.382 114.351 646.456 121.799C642.452 119.63 638.686 117.808 635.579 114.489C638.576 103.248 641.381 91.9872 642.158 80.3762C639.204 78.257 636.428 76.4305 632.925 75.4989C623.535 82.5399 615.481 90.9171 607.655 99.2625C602.433 97.8233 599.31 96.245 595.978 93.3395C597.176 82.0236 599.137 70.5297 598.25 58.4957C595.071 57.2673 591.981 56.0721 588.824 54.8522C587.258 56.3825 585.816 57.5697 584.643 58.9803C579.793 64.818 575.023 70.7257 570.225 76.6061C568.755 78.4069 567.758 80.6529 565.348 81.8397C561.468 80.5956 557.194 80.152 553.847 76.8798C554.234 65.4208 554.041 54.0118 552.334 42.7259C548.817 41.4357 545.728 40.1195 541.958 40.4391C540.867 41.7959 539.572 43.1389 538.585 44.679C534.308 51.3553 530.117 58.0878 525.905 64.806C524.936 66.3517 524.476 68.2763 522.395 69.2965C519.197 69.4041 515.99 68.2679 512.741 67.4553C511.988 67.2675 511.358 66.5907 510.598 66.0902C508.951 54.7176 508.122 43.2653 504.658 31.9399C504.278 31.8813 503.899 31.8229 503.521 31.7645C500.552 31.3069 497.627 30.8559 494.577 30.3872C493.551 32.049 492.552 33.4046 491.828 34.8933C488.214 42.326 484.66 49.7882 481.115 57.2527C480.258 59.0565 479.895 61.1675 477.528 62.3191C473.817 61.4637 469.371 62.8478 465.732 59.861C463.178 48.7574 460.875 37.7084 456.277 27.4953C452.63 26.2472 449.329 26.576 445.78 27.1848C445.076 28.7083 444.342 30.211 443.678 31.742C440.446 39.1895 437.96 46.892 435.797 54.7093C435.269 56.613 435.169 58.7999 432.564 60.2318C431.286 60.3075 429.445 60.451 427.602 60.5143C425.773 60.5769 423.942 60.5571 422.552 60.5707C420.288 58.9515 419.865 56.9315 419.217 55.0189C416.51 47.0177 413.373 39.1907 409.546 31.6528C408.949 30.4792 408.173 29.3945 407.531 28.3493L397.186 28.9616Z" fill="rgba(255,255,255,0.04)"/>
<path fill-rule="evenodd" clip-rule="evenodd" d="M396.576 30.7017C396.776 30.1455 396.984 29.5699 397.186 28.9618L407.531 28.3494C407.733 28.678 407.948 29.0104 408.167 29.3483C408.643 30.0853 409.137 30.8482 409.546 31.6529C413.373 39.1908 416.51 47.0178 419.217 55.019C419.292 55.2411 419.365 55.4647 419.437 55.6889C419.988 57.3954 420.551 59.1397 422.552 60.5708C422.962 60.5668 423.411 60.5657 423.887 60.5645C425.023 60.5617 426.313 60.5585 427.602 60.5144C428.934 60.4687 430.265 60.381 431.383 60.3073C431.812 60.2791 432.21 60.2529 432.564 60.2319C434.763 59.0228 435.177 57.2752 435.571 55.6144C435.643 55.3085 435.715 55.0055 435.797 54.7094C437.96 46.8921 440.446 39.1896 443.678 31.7421C444.128 30.705 444.61 29.6809 445.093 28.6546C445.323 28.1657 445.553 27.6764 445.78 27.1849C449.329 26.5761 452.63 26.2473 456.277 27.4954C460.472 36.8135 462.757 46.8274 465.065 56.9438C465.287 57.9155 465.508 58.8881 465.732 59.8612C468.136 61.8337 470.891 61.8998 473.554 61.9637C474.923 61.9965 476.268 62.0288 477.528 62.3192C479.409 61.4042 480.024 59.8836 480.628 58.3925C480.784 58.007 480.939 57.6234 481.115 57.2528C484.66 49.7883 488.214 42.3261 491.828 34.8934C492.318 33.8861 492.934 32.9398 493.599 31.9183C493.916 31.4301 494.245 30.9247 494.577 30.3873C497.627 30.856 500.552 31.307 503.521 31.7647L504.658 31.94C507.298 40.5705 508.408 49.2746 509.515 57.961C509.861 60.6734 510.206 63.3841 510.598 66.0903C510.843 66.2512 511.074 66.4304 511.299 66.6057C511.776 66.9755 512.23 67.328 512.741 67.4554C513.431 67.6281 514.12 67.8154 514.807 68.0022C517.353 68.6947 519.877 69.3813 522.395 69.2967C523.951 68.5337 524.601 67.2651 525.235 66.0273C525.449 65.6099 525.66 65.1959 525.905 64.8061C526.725 63.4985 527.544 62.1904 528.363 60.8822C531.752 55.4693 535.141 50.056 538.585 44.6791C539.264 43.619 540.089 42.6522 540.894 41.7101C541.258 41.2836 541.618 40.8621 541.958 40.4392C545.391 40.1482 548.259 41.2137 551.401 42.3807C551.709 42.4952 552.02 42.6107 552.334 42.726C554.041 54.0119 554.234 65.4209 553.847 76.8799C556.433 79.4079 559.572 80.2477 562.655 81.0726C563.563 81.3154 564.466 81.5569 565.348 81.8398C567.114 80.9699 568.122 79.5309 569.112 78.1153C569.473 77.5996 569.832 77.087 570.224 76.6062C571.531 75.0052 572.835 73.4022 574.14 71.7991C577.626 67.5142 581.114 63.2288 584.643 58.9805C585.436 58.0276 586.35 57.1767 587.343 56.2532C587.821 55.8095 588.316 55.349 588.824 54.8523C590.501 55.5005 592.16 56.1416 593.823 56.7845C595.29 57.3516 596.76 57.9201 598.25 58.4958C598.957 68.0871 597.855 77.3354 596.772 86.4239C596.496 88.7385 596.222 91.0427 595.978 93.3396C599.31 96.2451 602.433 97.8234 607.655 99.2626C615.481 90.9172 623.535 82.54 632.925 75.499C636.428 76.4306 639.204 78.2571 642.158 80.3763C641.381 91.9874 638.576 103.248 635.579 114.489C638.355 117.455 641.658 119.225 645.187 121.117C645.607 121.342 646.03 121.569 646.456 121.8C655.382 114.351 664.345 106.947 674.567 100.986C677.756 102.132 680.231 104.294 682.772 106.515C682.921 106.645 683.071 106.776 683.221 106.907C680.927 118.47 676.84 129.348 672.499 140.19C674.692 142.851 677.301 144.753 680.007 146.726C680.839 147.333 681.68 147.946 682.521 148.59C683.291 148.098 684.061 147.606 684.83 147.113C693.895 141.311 702.929 135.528 712.977 131.285C715.411 132.469 717.252 134.356 719.226 136.38C719.741 136.908 720.266 137.446 720.812 137.983C717.321 149.276 711.793 159.667 706.17 170.026C708.902 173.658 711.702 176.732 715.259 179.386C716.89 178.616 718.511 177.838 720.129 177.06C723.835 175.28 727.523 173.508 731.271 171.874C736.516 169.588 741.794 167.323 747.585 165.937C750.017 167.706 751.772 170.086 753.658 172.642C753.895 172.964 754.135 173.289 754.379 173.616C754.162 174.08 753.957 174.555 753.752 175.03C753.302 176.075 752.849 177.125 752.256 178.09C748.348 184.443 744.387 190.763 740.425 197.083C739.817 198.053 739.209 199.023 738.601 199.993C738.064 200.849 737.499 201.688 736.916 202.553C736.635 202.97 736.35 203.393 736.063 203.826C738.456 207.545 740.736 211.031 744.165 213.945L745.078 213.625C755.761 209.877 766.417 206.139 777.865 204.251C779.03 205.972 780.171 207.659 781.252 209.256L783.044 211.905C783.099 214.004 782.138 215.317 781.217 216.576C781.044 216.812 780.873 217.046 780.71 217.282C776.111 223.968 771.112 230.339 765.568 236.277C764.715 237.19 763.892 238.13 763.034 239.111C762.626 239.577 762.21 240.052 761.779 240.538C763.478 244.57 765.42 248.202 768.506 251.516C771.431 250.987 774.342 250.38 777.256 249.773C785.745 248.004 794.262 246.229 803.225 246.362C804.022 247.84 804.819 249.315 805.636 250.829C806.365 252.179 807.111 253.56 807.888 255.001C807.597 255.392 807.323 255.792 807.051 256.188C806.466 257.04 805.892 257.875 805.186 258.577C800.154 263.58 795.076 268.539 789.998 273.497C789.04 274.432 788.083 275.367 787.125 276.302C786.726 276.692 786.291 277.049 785.856 277.405C784.735 278.323 783.619 279.237 783.146 280.705C784.894 286.708 785.795 288.543 788.697 291.767C792.228 291.6 795.787 291.332 799.364 291.062C807.05 290.482 814.818 289.896 822.574 290.303C824.388 292.527 825.175 294.997 826.006 297.608C826.267 298.427 826.533 299.261 826.836 300.105C826.488 300.457 826.147 300.828 825.802 301.203C825.048 302.023 824.279 302.86 823.395 303.549C816.876 308.633 810.316 313.666 803.719 318.646C803.359 318.917 802.981 319.167 802.6 319.418C801.291 320.284 799.955 321.166 799.249 323.014C799.509 323.909 799.718 324.839 799.929 325.779C800.595 328.741 801.285 331.813 803.664 334.255C805.47 334.311 807.26 334.351 809.037 334.391C813.077 334.481 817.054 334.569 821.019 334.847C824.849 335.116 828.664 335.58 832.548 336.052C834.27 336.261 836.005 336.472 837.76 336.668C837.946 337.257 838.129 337.814 838.305 338.351C838.691 339.53 839.045 340.61 839.333 341.707C839.623 342.809 839.849 343.929 840.099 345.167C840.216 345.746 840.338 346.351 840.474 346.992C840.033 347.328 839.595 347.682 839.155 348.038C838.192 348.816 837.215 349.605 836.15 350.247C831.207 353.225 826.237 356.158 821.267 359.09C819.264 360.272 817.261 361.454 815.26 362.639C814.189 363.272 813.124 363.915 812.11 364.527C811.642 364.81 811.184 365.087 810.742 365.352C810.233 368.647 810.953 371.499 811.623 374.151C811.814 374.909 812.001 375.65 812.154 376.381C813.18 378.156 814.64 378.381 816.151 378.614C816.329 378.642 816.507 378.669 816.686 378.699C821.708 379.548 826.722 380.445 831.736 381.341C834.687 381.869 837.638 382.396 840.59 382.914C842.987 383.334 845.076 384.318 847.068 386.108C847.161 386.441 847.27 386.786 847.383 387.143C847.649 387.985 847.934 388.887 848.069 389.812C848.234 390.946 848.281 392.097 848.332 393.343C848.355 393.908 848.379 394.493 848.416 395.105C847.857 395.428 847.31 395.764 846.765 396.099C845.586 396.824 844.419 397.541 843.18 398.099C837.875 400.486 832.544 402.818 827.212 405.15C825.281 405.994 823.351 406.839 821.421 407.686C821.077 407.837 820.722 407.97 820.364 408.105C818.821 408.685 817.23 409.283 816.296 411.381L816.874 421.145C817.948 422.922 819.473 423.337 821.01 423.757C821.269 423.827 821.528 423.898 821.785 423.975C830.019 426.449 838.229 429.003 846.43 431.588C847.408 431.897 848.346 432.338 849.271 432.772C849.688 432.968 850.102 433.163 850.516 433.344C851.264 436.61 851.065 439.59 850.392 442.429C848.682 444.705 846.433 445.834 843.986 446.587C840.629 447.62 837.266 448.635 833.904 449.651C830.328 450.731 826.752 451.81 823.184 452.912C822.755 453.044 822.314 453.149 821.865 453.256C820.166 453.66 818.371 454.087 816.837 456.113C816.616 459.136 816.347 462.795 816.131 465.744C817.259 467.994 818.872 468.579 820.405 469.135C820.786 469.273 821.162 469.409 821.524 469.568C829.088 472.897 836.65 476.231 844.179 479.638C845.195 480.099 846.142 480.714 847.126 481.355C847.594 481.659 848.07 481.968 848.566 482.27C848.351 483.456 848.252 484.63 848.153 485.791C847.96 488.077 847.77 490.312 846.713 492.483C838.839 495.244 830.644 496.488 822.389 497.74C819.414 498.191 816.43 498.644 813.451 499.169C811.427 501.704 811.092 504.635 810.743 507.689C810.6 508.933 810.455 510.198 810.193 511.465C810.707 511.783 811.212 512.1 811.711 512.413C812.783 513.085 813.831 513.742 814.897 514.37C817.263 515.764 819.634 517.152 822.004 518.54C826.477 521.159 830.95 523.778 835.398 526.439C836.563 527.135 837.648 527.965 838.786 528.836C839.327 529.25 839.881 529.673 840.46 530.095C840.349 530.644 840.245 531.178 840.142 531.703C839.911 532.886 839.69 534.018 839.426 535.138C839.188 536.15 838.902 537.15 838.606 538.182C838.473 538.647 838.338 539.119 838.205 539.602C835.939 540.955 833.46 541.374 830.942 541.527C825.209 541.877 819.473 542.195 813.738 542.513C811.55 542.635 809.362 542.756 807.174 542.879C806.465 542.919 805.754 542.962 805.012 543.006C804.536 543.035 804.048 543.064 803.539 543.095C801.521 545.163 800.884 547.769 800.264 550.301C799.958 551.551 799.657 552.784 799.196 553.925C799.645 555.96 801.037 556.824 802.4 557.67C802.61 557.8 802.819 557.93 803.024 558.064C810.394 562.871 817.32 568.255 823.87 574.124C824.533 574.718 825.155 575.358 825.848 576.071C826.193 576.426 826.555 576.798 826.948 577.192C825.758 580.329 824.581 583.433 823.368 586.637C813.711 587.712 804.339 586.801 795.09 585.903C793.035 585.703 790.985 585.504 788.94 585.327C786.279 587.909 784.154 592.177 782.997 597.338C791.687 604.719 800.297 612.52 807.453 621.688C806.992 624.29 805.805 626.395 804.601 628.531C804.115 629.393 803.627 630.26 803.182 631.166C791.347 630.665 780.002 628.343 769.001 625.592C765.846 628.551 764.137 631.213 761.776 636.784C769.429 645.421 777.223 654.251 783.528 664.54C781.684 667.338 779.943 669.98 778.084 672.8C777.594 672.74 777.122 672.693 776.665 672.647C775.722 672.551 774.839 672.462 773.975 672.282C765.533 670.527 757.292 668.074 749.204 665.094C748.041 664.665 746.863 664.272 745.689 663.879C745.135 663.694 744.582 663.509 744.031 663.321C740.65 666.405 738.257 669.791 736.067 673.545C737.084 675.072 738.107 676.58 739.124 678.081C741.446 681.509 743.742 684.897 745.888 688.378C747.965 691.748 749.89 695.214 751.85 698.743C752.719 700.309 753.595 701.886 754.495 703.474C754.113 703.963 753.756 704.432 753.411 704.882C752.662 705.863 751.975 706.762 751.239 707.619C750.496 708.486 749.704 709.31 748.869 710.179C748.49 710.574 748.103 710.977 747.707 711.398C741.75 709.919 736.315 707.655 730.942 705.27C727.296 703.654 723.694 701.938 720.079 700.216C718.504 699.466 716.927 698.714 715.343 697.97C713.703 698.55 712.621 699.748 711.551 700.933C711.16 701.366 710.771 701.797 710.356 702.197C709.365 703.15 708.43 704.161 707.428 705.245C706.965 705.745 706.488 706.261 705.984 706.794C706.959 708.737 707.949 710.666 708.936 712.591C713.316 721.13 717.654 729.59 720.519 738.859C718.704 741.684 716.192 743.823 713.016 745.901C712.488 745.677 711.939 745.465 711.383 745.249C710.134 744.765 708.846 744.265 707.66 743.589C701.445 740.044 695.274 736.421 689.104 732.797C688.29 732.319 687.477 731.842 686.663 731.364C685.685 730.789 684.734 730.168 683.763 729.534C683.309 729.238 682.851 728.938 682.383 728.64C682.129 728.817 681.876 728.992 681.624 729.167C678.262 731.501 675.059 733.723 672.448 737.115L672.834 738.115C676.873 748.579 680.927 759.082 683.108 770.514L677.878 774.248L674.896 776.377C665.909 771.5 658.253 765.248 650.706 759.085C649.33 757.962 647.958 756.842 646.582 755.733C642.684 756.986 638.592 759.579 635.588 762.76C635.696 763.246 635.813 763.758 635.933 764.289C636.19 765.418 636.465 766.629 636.725 767.842C637.116 769.671 637.51 771.499 637.904 773.327C639.111 778.917 640.317 784.506 641.421 790.116C641.704 791.555 641.742 793.042 641.781 794.598C641.8 795.333 641.819 796.083 641.864 796.851C639.459 798.82 636.69 800.146 633.766 801.546C633.513 801.667 633.258 801.789 633.003 801.912C623.555 794.948 615.568 786.499 607.88 778.073C603.272 778.774 598.887 780.941 595.755 784.114C597.483 795.125 598.376 806.511 598.392 817.881C595.689 819.779 592.885 820.762 589.903 821.807C589.513 821.944 589.121 822.081 588.725 822.222C588.311 821.828 587.893 821.454 587.483 821.086C586.612 820.305 585.772 819.552 585.061 818.692C581.097 813.89 577.172 809.055 573.247 804.219C571.962 802.635 570.677 801.052 569.39 799.47C568.241 798.056 567.096 796.64 565.903 795.168C565.331 795.318 564.764 795.461 564.202 795.603C560.48 796.541 556.988 797.421 554.057 799.843C553.952 802.993 553.918 806.133 553.884 809.265C553.794 817.688 553.705 826.051 552.222 834.405L551.844 834.546C548.703 835.717 545.692 836.84 541.977 836.893C541.657 836.487 541.316 836.077 540.969 835.659C540.194 834.727 539.388 833.758 538.711 832.705C535.484 827.685 532.299 822.638 529.115 817.59C528.069 815.931 527.022 814.272 525.974 812.614C525.328 811.593 524.685 810.569 524.053 809.563C523.727 809.045 523.404 808.53 523.085 808.024C520.533 807.626 518.259 808.226 516.123 808.789C514.812 809.135 513.553 809.467 512.312 809.547C510.338 810.802 510.126 812.453 509.906 814.156C509.885 814.32 509.864 814.486 509.841 814.651C508.732 822.669 507.544 830.675 506.295 838.67C506.085 840.014 505.719 841.334 505.332 842.726C505.149 843.385 504.962 844.061 504.784 844.762C504.264 844.899 503.754 845.041 503.25 845.182C502.115 845.499 501.01 845.807 499.888 846.027C498.762 846.248 497.618 846.384 496.406 846.528C495.856 846.593 495.293 846.66 494.711 846.737C494.413 846.303 494.114 845.886 493.82 845.478C493.207 844.625 492.619 843.808 492.126 842.938C487.961 835.59 484.243 828.022 481.169 820.144C481.079 819.914 480.993 819.68 480.906 819.445C480.237 817.631 479.541 815.743 476.92 814.811C473.945 815.165 470.454 815.582 467.415 815.943C465.589 817.236 465.219 818.818 464.851 820.39C464.795 820.632 464.738 820.875 464.676 821.116C462.827 828.302 460.943 835.481 458.938 842.625C458.472 844.285 457.818 845.894 457.167 847.494C456.871 848.221 456.576 848.947 456.3 849.675C452.771 850.558 449.447 850.559 445.83 850.283C445.602 849.805 445.37 849.331 445.139 848.86C444.631 847.822 444.128 846.794 443.686 845.74C440.485 838.104 437.793 830.294 435.699 822.279C435.652 822.097 435.606 821.915 435.56 821.731C435.159 820.116 434.745 818.453 432.898 817.091C432.603 817.046 432.272 816.985 431.916 816.919C431.017 816.753 429.955 816.557 428.887 816.508C427.33 816.436 425.767 816.469 424.382 816.498C423.828 816.51 423.303 816.521 422.818 816.524C420.663 817.499 420.104 819.118 419.559 820.696C419.443 821.033 419.327 821.368 419.197 821.695C416.193 829.211 413.183 836.728 410.107 844.215C409.676 845.264 409.105 846.256 408.518 847.276C408.244 847.753 407.967 848.236 407.698 848.733C407.129 848.767 406.575 848.813 406.033 848.859C404.84 848.959 403.701 849.054 402.57 849C401.427 848.945 400.291 848.745 399.052 848.528C398.476 848.427 397.877 848.322 397.245 848.225C393.76 839.096 392.085 829.501 390.435 820.045C390.15 818.41 389.865 816.779 389.572 815.156C386.302 812.725 383.757 812.136 377.425 812.232C375.948 812.842 375.367 814.117 374.783 815.397C374.602 815.795 374.42 816.193 374.211 816.572C370.228 823.816 366.244 831.058 362.2 838.268C361.645 839.259 360.97 840.185 360.277 841.137C359.955 841.578 359.629 842.026 359.31 842.487C355.764 842.325 352.532 841.628 349.147 840.437C346.811 831.758 346.337 822.868 345.86 813.921C345.724 811.372 345.588 808.819 345.409 806.265C342.14 803.679 338.358 803.049 334.379 802.387C333.881 802.304 333.38 802.221 332.877 802.133C331.849 803.656 330.834 805.174 329.822 806.687C327.535 810.105 325.269 813.494 322.925 816.828C319.638 821.505 316.177 826.058 312.092 830.41C311.529 830.251 310.983 830.102 310.449 829.957C309.301 829.644 308.209 829.347 307.138 828.99C306.057 828.629 304.996 828.209 303.862 827.76C303.337 827.552 302.797 827.338 302.232 827.121C301.443 821.353 301.289 815.641 301.497 809.93C301.641 805.993 301.902 802.061 302.171 798.013C302.293 796.18 302.416 794.323 302.531 792.431C299.931 789.985 296.658 788.925 293.229 787.815C292.392 787.544 291.547 787.27 290.699 786.972L289.837 787.997V787.997C282.566 796.634 275.354 805.202 266.69 812.536C263.886 811.973 261.489 810.65 258.951 809.249C258.404 808.947 257.851 808.641 257.285 808.339C256.989 798.763 258.718 789.466 260.453 780.144C260.848 778.021 261.243 775.896 261.615 773.766C258.734 770.871 255.309 769.269 251.627 767.546C251.244 767.367 250.858 767.186 250.469 767.002C241.919 775.118 233.274 783.121 223.172 789.751C220.273 787.926 217.461 786.158 214.57 784.339C215.411 778.152 216.641 772.397 218.26 766.729C219.357 762.89 220.511 759.067 221.679 755.203C222.184 753.529 222.692 751.847 223.199 750.153C220.136 747.078 216.701 744.748 212.855 742.531C211.376 743.58 209.91 744.638 208.449 745.692C205.108 748.103 201.787 750.499 198.369 752.746C195.064 754.918 191.659 756.941 188.175 759.011C186.617 759.937 185.044 760.872 183.456 761.834C182.969 761.487 182.498 761.152 182.038 760.825C181.088 760.149 180.184 759.507 179.286 758.857C178.315 758.156 177.35 757.448 176.355 756.719C175.951 756.422 175.541 756.121 175.124 755.816C178.139 743.971 182.718 733.326 187.734 723.024C185.773 719.779 182.014 716.241 177.874 713.769C168.041 719.519 157.882 725.144 146.583 729.216C145.773 728.391 144.962 727.566 144.146 726.734C142.622 725.182 141.077 723.61 139.48 721.982C143.85 710.882 149.722 700.858 155.806 691.098C154.129 687.362 151.061 683.743 147.26 681C145.684 681.637 144.103 682.291 142.515 682.948C138.863 684.46 135.176 685.986 131.428 687.342C127.692 688.694 123.894 689.876 120.099 691.057C118.429 691.577 116.761 692.096 115.098 692.63C112.878 691.145 111.492 689.148 110.105 687.15C109.463 686.224 108.82 685.298 108.094 684.421C110.969 678.946 114.193 674.009 117.635 669.227C120.017 665.917 122.489 662.672 124.974 659.408C126.076 657.962 127.18 656.512 128.28 655.051C127.833 654.334 127.404 653.614 126.979 652.9C125.182 649.884 123.439 646.96 120.62 644.64C109.559 648.017 98.5112 650.963 86.9534 652.302C85.1576 650.502 83.9956 648.315 82.7848 646.037C82.3609 645.239 81.931 644.43 81.4659 643.622C81.6855 643.274 81.8927 642.913 82.1004 642.551C82.5483 641.77 82.9987 640.986 83.5806 640.314C88.3276 634.829 93.1005 629.364 97.9544 623.974C99.4132 622.353 100.974 620.822 102.567 619.258C103.301 618.538 104.042 617.811 104.783 617.066L104.665 616.753C103.09 612.608 101.6 608.686 98.3669 605.522C86.9356 607.589 75.6333 609.337 64.2081 609.162C62.17 606.113 60.7054 603.129 60.0259 599.351C60.4127 598.929 60.7972 598.484 61.1881 598.031C62.0597 597.021 62.9629 595.974 63.9934 595.075C68.1298 591.466 72.3079 587.904 76.4862 584.341C78.3423 582.759 80.1985 581.176 82.0511 579.59C82.98 578.793 83.8983 577.985 84.8398 577.156C85.2947 576.755 85.7551 576.35 86.2248 575.939C85.8228 574.857 85.4871 573.773 85.1557 572.703C84.1924 569.594 83.2649 566.599 80.8482 564.093C78.0486 564.142 75.2467 564.259 72.4405 564.377C63.7977 564.739 55.1145 565.102 46.3318 563.47L43.4178 554.569C44.0752 552.571 45.5118 551.599 46.8622 550.685C47.0194 550.578 47.1754 550.473 47.3289 550.366C51.9073 547.195 56.5272 544.085 61.1471 540.974C63.2444 539.562 65.3416 538.151 67.435 536.733C68.5612 535.971 69.673 535.187 70.8145 534.382C71.3418 534.01 71.8755 533.634 72.4198 533.253C72.2015 532.233 72.0291 531.22 71.859 530.22C71.3027 526.948 70.7703 523.818 68.7314 521.081C66.3819 520.848 64.0387 520.643 61.7022 520.439C52.4774 519.635 43.3564 518.839 34.3642 516.322C34.0189 514.549 33.6822 512.821 33.3568 511.151C33.0828 509.745 32.8168 508.38 32.5604 507.064C33.2837 505.239 34.6927 504.515 36.0283 503.829C36.1733 503.754 36.3175 503.68 36.4598 503.605C41.3792 501.013 46.3198 498.461 51.2604 495.909C53.6622 494.668 56.0639 493.428 58.4632 492.183C58.8602 491.977 59.2765 491.799 59.6969 491.62C61.1479 491 62.6483 490.36 63.5776 488.467C63.7645 485.165 63.4568 481.523 62.5233 478.229C61.0963 476.429 59.3408 476.124 57.5578 475.815C57.4918 475.803 57.4259 475.792 57.3599 475.78C48.7085 474.266 40.1734 472.267 31.8437 469.453C31.0902 469.198 30.3488 468.908 29.5882 468.61C29.2264 468.468 28.8601 468.324 28.4862 468.182C27.5013 465.271 27.531 462.338 27.5597 459.514C27.5638 459.114 27.5678 458.716 27.569 458.321C28.6793 456.642 30.2973 456.037 31.8453 455.458C32.0096 455.396 32.1731 455.335 32.3352 455.273C37.2883 453.371 42.2615 451.52 47.2348 449.669C49.6871 448.757 52.1393 447.844 54.5892 446.925C55.0189 446.764 55.4654 446.635 55.919 446.504C57.5884 446.02 59.3542 445.509 60.7302 443.273C60.7095 441.931 60.6867 440.443 60.6639 438.947C60.6364 437.151 60.6088 435.345 60.5843 433.771C59.4455 431.583 57.8868 431.135 56.4306 430.716C56.0951 430.619 55.765 430.525 55.4467 430.41C53.1366 429.58 50.8175 428.774 48.4985 427.968C44.7629 426.669 41.0274 425.37 37.3295 423.972C35.0591 423.112 32.861 422.063 30.6617 421.014C29.6684 420.54 28.6749 420.066 27.6743 419.609C27.2051 417.204 27.4529 414.953 27.7055 412.659C27.8342 411.49 27.9642 410.31 28.0012 409.092C36.6978 405.406 45.8265 403.552 54.9737 401.693C57.0626 401.269 59.1526 400.844 61.2385 400.397C63.1121 398.074 63.2325 395.443 63.3468 392.946C63.4143 391.47 63.4797 390.042 63.9033 388.751C62.8185 386.803 61.2923 386.152 59.8306 385.529C59.4176 385.353 59.0098 385.179 58.6185 384.978C51.4116 381.284 44.2059 377.589 37.0343 373.829C36.0322 373.303 35.0966 372.652 34.1408 371.987C33.6894 371.673 33.2335 371.355 32.7639 371.047C32.7993 367.502 33.4384 364.254 34.5461 360.638C45.4292 357.857 56.6517 356.889 68.1188 355.9V355.9L68.6056 355.858C70.6621 353.505 71.1475 350.632 71.6189 347.842C71.8164 346.673 72.0115 345.519 72.3185 344.424C71.6206 342.729 70.3435 342.002 69.0994 341.295C68.7278 341.083 68.3591 340.874 68.0096 340.64C66.9271 339.917 65.8444 339.195 64.7616 338.472C59.1076 334.698 53.4537 330.925 47.8365 327.1C46.8034 326.396 45.8604 325.56 44.9374 324.742C44.5173 324.369 44.1014 324.001 43.683 323.65C43.9135 319.87 45.0377 316.75 46.6206 313.433C57.9866 312.054 69.4326 312.181 80.8822 312.796C83.2184 310.506 84.0696 307.698 84.9462 304.807C85.3287 303.545 85.7161 302.267 86.2338 301.01C84.8205 299.859 83.4104 298.719 82.0053 297.584C78.8024 294.995 75.6257 292.427 72.497 289.802C67.9752 286.008 63.7495 281.899 59.646 277.25C60.0434 276.344 60.4385 275.442 60.8337 274.541C61.7984 272.34 62.7641 270.137 63.7678 267.845C74.4212 267.582 84.6618 269.183 94.7259 270.757C95.9534 270.949 97.1782 271.14 98.4009 271.328C101.127 268.412 102.965 265.064 104.74 259.783C96.4595 251.701 88.209 243.289 81.3618 233.311C83.0473 230.484 84.6749 227.759 86.4658 224.781C86.9919 224.823 87.503 224.852 88.0024 224.88C89.0546 224.94 90.0553 224.997 91.0375 225.16C99.5328 226.574 107.936 228.405 116.156 231.018C117.235 231.362 118.343 231.613 119.441 231.862C119.94 231.975 120.437 232.088 120.929 232.208C123.688 229.613 125.447 226.649 127.322 223.49C127.659 222.923 127.999 222.349 128.35 221.771C127.634 220.837 126.911 219.906 126.188 218.973C124.569 216.887 122.946 214.794 121.375 212.662C118.973 209.401 116.598 206.113 114.353 202.742C112.867 200.514 111.469 198.227 110.014 195.847C109.37 194.794 108.715 193.723 108.037 192.631C109.317 190.942 110.55 189.314 111.781 187.688C112.603 186.603 113.425 185.518 114.259 184.417C120.357 185.736 125.945 187.585 131.453 189.662C135.178 191.066 138.875 192.54 142.619 194.033C144.252 194.684 145.895 195.339 147.552 195.993C150.456 193.835 152.588 191.085 154.822 188.203C155.27 187.625 155.723 187.041 156.187 186.456C155.133 184.632 154.064 182.818 152.995 181.004C148.062 172.634 143.124 164.256 139.632 154.879C141.893 152.611 144.132 150.366 146.51 147.979C146.975 148.117 147.428 148.238 147.868 148.356C148.778 148.599 149.637 148.829 150.45 149.166C158.575 152.525 166.409 156.47 174 160.906C174.998 161.489 176.012 162.045 177.05 162.614C177.51 162.866 177.975 163.121 178.445 163.382C182.084 160.876 185.103 158.027 188.094 154.592C183.175 144.04 178.418 133.448 175.467 122.08C177.616 119.292 180.353 117.4 183.495 115.368C193.858 120.579 203.3 127.334 212.815 134.497C216.749 132.655 219.999 130.122 223.214 127.052C223.11 126.622 223.011 126.199 222.913 125.783C222.7 124.878 222.494 124.002 222.259 123.134C221.57 120.594 220.876 118.056 220.182 115.517C218.653 109.925 217.124 104.333 215.65 98.7267C215.332 97.5182 215.203 96.2597 215.072 94.9889C215.011 94.4006 214.95 93.8097 214.87 93.2199C217.392 90.6295 220.231 88.9542 223.635 87.5534C233.462 93.8311 242.071 101.598 250.373 110.077C254.6 108.258 258.494 106.501 261.797 103.422C261.415 101.234 261.01 99.0573 260.606 96.8874C258.885 87.6359 257.185 78.4986 257.38 69.0518C260.011 66.948 263.018 65.8433 266.323 64.6288L266.68 64.4977C267.293 65.0404 267.914 65.5628 268.53 66.0811C269.865 67.2039 271.177 68.307 272.333 69.5534C275.68 73.1619 278.968 76.8259 282.256 80.4902C283.927 82.353 285.598 84.2158 287.278 86.0713C288.11 86.9918 288.973 87.8835 289.841 88.7806C290.243 89.197 290.647 89.6146 291.05 90.0367C291.743 89.7985 292.43 89.5743 293.11 89.3522C296.488 88.2497 299.702 87.2006 302.619 84.7612C302.516 81.8113 302.341 78.8544 302.165 75.887C301.667 67.4657 301.164 58.9591 302.273 50.2861C305.158 48.5076 308.428 47.4275 312.277 47.0068C312.651 47.4213 313.041 47.8297 313.432 48.2402C314.296 49.1459 315.169 50.0616 315.907 51.0748C320.533 57.4181 325.088 63.8145 329.643 70.2091V70.2091L329.778 70.3993C330.032 70.7553 330.263 71.1305 330.497 71.5084C331.329 72.8562 332.184 74.2398 334.134 74.9205C334.941 74.7134 335.774 74.5331 336.622 74.3495C339.494 73.7276 342.545 73.0672 345.383 71.1926C345.598 68.4546 345.765 65.7127 345.933 62.9737C346.464 54.2816 346.993 45.6188 349.033 37.2022C350.938 35.8392 353.009 35.5208 355.109 35.1979C356.445 34.9925 357.792 34.7853 359.117 34.306C359.456 34.7873 359.798 35.2462 360.133 35.6951C360.838 36.6413 361.51 37.5427 362.056 38.5153C364.772 43.3523 367.454 48.2092 370.135 53.0659C371.448 55.4435 372.76 57.821 374.077 60.1961C374.302 60.6036 374.496 61.0345 374.691 61.4687C375.327 62.8841 375.978 64.3347 377.804 65.1232C377.912 65.1254 378.044 65.1365 378.19 65.1488C378.571 65.1809 379.056 65.2217 379.52 65.1412C381.745 64.7559 383.964 64.3344 386.035 63.941C386.739 63.8073 387.425 63.6768 388.089 63.5522C389.769 62.1462 390.043 60.4752 390.312 58.8372C390.371 58.4762 390.43 58.1167 390.504 57.7621C392.148 49.8381 393.809 41.9169 395.537 34.0108C395.777 32.9139 396.161 31.8492 396.576 30.7017ZM787.562 418.556C798.538 609.955 651.624 777.935 455.424 787.339C262.847 796.569 99.5267 647.934 90.0107 455.751C80.4981 263.655 228.73 100.739 418.989 89.9384C611.056 79.0355 776.493 226.503 787.562 418.556Z" fill="#35383B"/>
<path fill-rule="evenodd" clip-rule="evenodd" d="M385.968 441.278C384.552 412.084 407.742 386.473 437.136 385.651C467.087 384.813 491.029 408.685 491.799 436.818C492.636 467.381 467.36 491.82 438.042 491.442C412.398 491.11 387.351 469.804 385.968 441.278ZM436.072 388.623C407.784 389.961 387.247 413.469 388.866 441.34C390.513 469.692 413.524 490.166 441.633 488.56C470.693 486.898 490.574 462.998 488.817 435.277C487.108 408.313 464.662 386.813 436.072 388.623Z" fill="#35383B"/>
<path fill-rule="evenodd" clip-rule="evenodd" d="M436.072 388.623C407.784 389.961 387.247 413.469 388.866 441.34C390.513 469.692 413.524 490.166 441.633 488.56C470.693 486.898 490.574 462.998 488.817 435.277C487.108 408.313 464.663 386.813 436.072 388.623ZM436.263 394.409C459.716 392.4 481.81 412.577 483.161 435.832C484.478 458.525 466.554 481.426 441.194 482.847C417.136 484.196 395.819 464.51 394.516 441.032C393.188 417.097 412.908 395.309 436.263 394.409Z" fill="#35383B"/>
<path fill-rule="evenodd" clip-rule="evenodd" d="M436.262 394.409C459.715 392.399 481.81 412.577 483.16 435.832C484.477 458.525 466.553 481.426 441.193 482.847C417.136 484.196 395.819 464.51 394.515 441.031C393.187 417.097 412.907 395.309 436.262 394.409ZM441.523 479.86C462.548 478.735 481.953 462.224 480.22 435.99C478.412 408.644 456.632 395.597 435.913 397.129C413.098 398.814 396.063 416.525 397.462 440.837C398.955 466.778 419.834 481.494 441.523 479.86Z" fill="#35383B"/>
<path d="M418.311 90.6097C610.656 79.2246 775.786 225.558 787.145 417.449C798.503 609.34 651.788 774.131 459.443 785.516C267.098 796.902 101.968 650.568 90.6097 458.677C79.2515 266.786 225.966 101.995 418.311 90.6097Z" stroke="rgba(255,255,255,0.04)" stroke-width="2"/>
</svg>
