<svg xmlns="http://www.w3.org/2000/svg" viewBox="-31.9 -7.4 65.2 63.7" fill="none">
  <path d="M16.26 15.39C21.62 23.70 29.20 37.16 29.20 37.16C29.15 37.18 18.48 40.84 12.26 44.09C6.03 47.34 -2.54 52.34 -2.54 52.34C-2.56 52.31 -7.70 42.45 -12.91 34.35C-18.13 26.24 -29.92 11.83 -29.95 11.79L-12.91 4.46L1.78 -5.39C1.78 -5.39 10.91 7.08 16.26 15.39ZM1.92 0.33C2.07 -0.49 1.53 -1.29 0.70 -1.44C-0.13 -1.59 -0.93 -1.05 -1.08 -0.22C-1.23 0.61 -0.68 1.41 0.15 1.56C0.97 1.71 1.77 1.16 1.92 0.33Z" fill="#35383B" stroke="white" stroke-width="1"/>
  <path d="M-9.44 14.86C-9.55 14.82 -9.66 14.83 -9.77 14.88C-9.88 14.92 -9.98 14.96 -10.09 15.00C-10.19 15.03 -10.30 15.04 -10.41 15.03C-10.51 15.01 -10.60 14.93 -10.68 14.78C-10.74 14.77 -10.77 14.78 -10.77 14.80C-10.76 14.83 -10.78 14.87 -10.83 14.92C-10.89 14.81 -10.94 14.74 -11.00 14.71C-11.06 14.68 -11.12 14.64 -11.18 14.58C-11.24 14.37 -11.24 14.16 -11.19 13.95C-11.11 13.74 -11.02 13.53 -10.91 13.33C-10.80 13.14 -10.68 12.95 -10.54 12.77C-10.41 12.60 -10.30 12.43 -10.21 12.28C-10.18 12.26 -10.16 12.27 -10.15 12.30C-10.13 12.33 -10.12 12.35 -10.10 12.37C-10.05 12.28 -9.98 12.20 -9.90 12.13C-9.82 12.04 -9.76 11.95 -9.73 11.86C-9.12 11.77 -8.47 11.69 -7.79 11.62C-7.11 11.53 -6.42 11.45 -5.73 11.36C-5.03 11.27 -4.32 11.19 -3.62 11.09C-2.91 11.00 -2.22 10.91 -1.55 10.81C-1.48 11.08 -1.44 11.34 -1.42 11.61C-1.39 11.88 -1.39 12.14 -1.41 12.40C-1.44 12.66 -1.51 12.91 -1.62 13.14C-1.72 13.37 -1.87 13.58 -2.08 13.77C-2.13 13.79 -2.16 13.78 -2.16 13.74C-2.16 13.71 -2.18 13.70 -2.22 13.70C-2.24 13.77 -2.26 13.81 -2.29 13.82C-2.30 13.84 -2.32 13.86 -2.34 13.86C-2.36 13.87 -2.39 13.88 -2.42 13.90C-2.45 13.92 -2.48 13.96 -2.51 14.03C-2.53 13.99 -2.55 13.97 -2.58 13.97C-2.61 13.96 -2.63 13.94 -2.64 13.89C-2.72 14.00 -2.80 14.06 -2.87 14.09C-2.94 14.11 -3.01 14.12 -3.08 14.13C-3.15 14.13 -3.22 14.13 -3.30 14.15C-3.36 14.17 -3.43 14.23 -3.51 14.32C-3.53 14.29 -3.55 14.27 -3.58 14.27C-3.59 14.27 -3.61 14.27 -3.63 14.27C-3.65 14.27 -3.67 14.27 -3.70 14.26C-3.71 14.26 -3.72 14.24 -3.73 14.20C-3.92 14.36 -4.12 14.50 -4.33 14.62C-4.53 14.74 -4.74 14.87 -4.96 15.00C-5.18 15.12 -5.39 15.26 -5.61 15.41C-5.82 15.56 -6.03 15.74 -6.24 15.95C-5.83 16.15 -5.41 16.26 -4.98 16.26C-4.54 16.27 -4.09 16.21 -3.65 16.08C-3.19 15.96 -2.73 15.80 -2.26 15.58C-1.79 15.37 -1.31 15.16 -0.82 14.94C-0.68 14.97 -0.53 14.97 -0.38 14.94C-0.22 14.91 -0.07 14.88 0.08 14.82C0.23 14.78 0.39 14.73 0.54 14.67C0.70 14.62 0.85 14.59 1.00 14.59C1.07 14.73 1.11 14.88 1.10 15.01C1.10 15.15 1.09 15.29 1.06 15.43C1.03 15.56 1.02 15.70 1.01 15.83C1.00 15.97 1.03 16.12 1.09 16.27C1.01 16.47 0.92 16.67 0.84 16.86C0.76 17.04 0.64 17.20 0.48 17.34C0.38 17.35 0.27 17.37 0.16 17.40C0.06 17.44 -0.05 17.47 -0.16 17.50C-0.27 17.54 -0.38 17.56 -0.48 17.56C-0.59 17.56 -0.70 17.54 -0.80 17.49C-1.05 17.61 -1.29 17.72 -1.51 17.80C-1.74 17.88 -1.97 17.97 -2.18 18.05C-2.40 18.14 -2.62 18.23 -2.85 18.33C-3.07 18.44 -3.31 18.57 -3.55 18.74C-3.81 18.81 -4.09 18.88 -4.38 18.95C-4.67 19.01 -4.92 19.09 -5.15 19.18C-5.36 19.11 -5.57 19.09 -5.79 19.11C-6.02 19.13 -6.24 19.16 -6.47 19.17C-6.53 19.15 -6.55 19.14 -6.54 19.12C-6.52 19.09 -6.53 19.05 -6.56 18.98C-6.62 19.04 -6.68 19.05 -6.73 19.03C-6.76 19.01 -6.81 19.05 -6.88 19.14C-7.02 19.05 -7.18 18.99 -7.34 18.95C-7.51 18.92 -7.67 18.87 -7.83 18.80C-7.99 18.74 -8.14 18.64 -8.27 18.50C-8.39 18.36 -8.49 18.13 -8.56 17.82C-8.53 17.27 -8.43 16.72 -8.26 16.19C-8.09 15.66 -7.82 15.15 -7.44 14.66C-7.51 14.60 -7.60 14.57 -7.70 14.58C-7.80 14.59 -7.91 14.61 -8.01 14.64C-8.11 14.66 -8.21 14.68 -8.30 14.69C-8.39 14.70 -8.45 14.68 -8.49 14.62C-8.57 14.65 -8.66 14.66 -8.75 14.65C-8.82 14.65 -8.91 14.65 -8.99 14.65C-9.07 14.65 -9.15 14.66 -9.24 14.68C-9.31 14.70 -9.38 14.77 -9.44 14.86ZM3.93 23.78C3.88 23.82 3.84 23.84 3.80 23.86C3.78 23.87 3.75 23.88 3.73 23.89C3.70 23.90 3.68 23.92 3.65 23.94C3.62 23.96 3.59 23.99 3.55 24.04C3.18 24.05 2.88 23.97 2.64 23.82C2.42 23.68 2.20 23.49 2.00 23.28C1.80 23.06 1.60 22.83 1.38 22.60C1.17 22.38 0.91 22.19 0.60 22.04C0.57 21.91 0.51 21.82 0.42 21.76C0.33 21.71 0.25 21.60 0.16 21.44C0.09 21.42 0.01 21.39 -0.05 21.33C-0.11 21.27 -0.18 21.22 -0.24 21.16C-0.29 21.24 -0.36 21.30 -0.44 21.34C-0.51 21.38 -0.56 21.43 -0.59 21.48C-0.44 21.77 -0.25 22.06 -0.01 22.36C0.23 22.67 0.46 22.98 0.67 23.29C0.64 23.32 0.61 23.33 0.58 23.33C0.57 23.32 0.54 23.33 0.52 23.35C0.51 23.43 0.50 23.52 0.47 23.61C0.45 23.70 0.43 23.79 0.42 23.88C0.40 23.96 0.39 24.05 0.38 24.13C0.39 24.21 0.42 24.28 0.48 24.35C0.44 24.43 0.38 24.49 0.31 24.55C0.25 24.61 0.17 24.64 0.08 24.66C-0.09 24.59 -0.25 24.53 -0.42 24.47C-0.59 24.40 -0.75 24.32 -0.91 24.22C-1.06 24.14 -1.21 24.03 -1.35 23.91C-1.48 23.79 -1.61 23.63 -1.72 23.44C-1.74 23.41 -1.76 23.38 -1.78 23.35C-1.79 23.34 -1.79 23.31 -1.79 23.26C-1.86 23.22 -1.93 23.14 -1.99 23.02C-2.04 22.90 -2.11 22.82 -2.19 22.79C-2.20 22.68 -2.26 22.57 -2.34 22.45C-2.42 22.33 -2.47 22.22 -2.50 22.11C-2.74 22.09 -2.98 22.09 -3.23 22.11C-3.48 22.13 -3.73 22.17 -3.98 22.22C-3.85 22.51 -3.73 22.73 -3.62 22.90C-3.49 23.07 -3.38 23.22 -3.26 23.37C-3.14 23.51 -3.02 23.65 -2.90 23.80C-2.77 23.95 -2.64 24.15 -2.49 24.40C-2.30 24.49 -2.13 24.64 -1.98 24.83C-1.81 25.03 -1.64 25.19 -1.46 25.33C-1.44 25.41 -1.45 25.49 -1.48 25.57C-1.51 25.65 -1.53 25.73 -1.56 25.80C-1.58 25.88 -1.59 25.95 -1.60 26.02C-1.61 26.09 -1.59 26.16 -1.54 26.22C-1.55 26.27 -1.57 26.32 -1.61 26.35C-1.64 26.39 -1.67 26.43 -1.71 26.46C-1.74 26.50 -1.77 26.53 -1.79 26.56C-1.80 26.60 -1.78 26.64 -1.74 26.68C-2.07 26.73 -2.35 26.72 -2.59 26.66C-2.81 26.60 -3.02 26.49 -3.21 26.34C-3.41 26.20 -3.60 26.02 -3.79 25.81C-3.98 25.60 -4.19 25.37 -4.42 25.12C-4.48 25.06 -4.52 25.00 -4.52 24.94C-4.54 24.89 -4.56 24.83 -4.60 24.77C-4.76 24.62 -4.93 24.43 -5.11 24.20C-5.30 23.98 -5.48 23.74 -5.63 23.48C-5.79 23.22 -5.91 22.96 -5.99 22.69C-6.09 22.42 -6.11 22.17 -6.06 21.93C-6.04 21.83 -6.01 21.75 -5.96 21.69C-5.89 21.62 -5.86 21.54 -5.88 21.43C-5.78 21.35 -5.68 21.27 -5.58 21.17C-5.47 21.06 -5.36 20.96 -5.24 20.85C-5.12 20.74 -5.00 20.63 -4.88 20.54C-4.75 20.44 -4.63 20.38 -4.50 20.33C-4.37 20.28 -4.24 20.26 -4.11 20.27C-3.96 20.28 -3.85 20.25 -3.75 20.16C-3.72 20.19 -3.69 20.20 -3.65 20.19C-3.61 20.17 -3.57 20.19 -3.55 20.25C-3.38 20.21 -3.22 20.17 -3.06 20.15C-2.90 20.12 -2.75 20.10 -2.60 20.08C-2.45 20.06 -2.29 20.05 -2.14 20.03C-1.98 20.01 -1.81 19.98 -1.63 19.94C-1.60 19.77 -1.55 19.62 -1.47 19.49C-1.37 19.37 -1.28 19.26 -1.18 19.16C-1.07 19.06 -0.96 18.96 -0.84 18.87C-0.72 18.77 -0.61 18.66 -0.51 18.53C-0.34 18.54 -0.19 18.57 -0.05 18.63C0.10 18.70 0.24 18.78 0.37 18.88C0.50 18.98 0.63 19.10 0.76 19.23C0.89 19.37 1.03 19.50 1.17 19.65C1.47 19.89 1.72 20.11 1.93 20.32C2.14 20.53 2.33 20.74 2.51 20.95C2.70 21.16 2.90 21.38 3.09 21.62C3.28 21.85 3.52 22.11 3.78 22.39C3.76 22.50 3.77 22.59 3.81 22.65C3.89 22.64 3.94 22.66 3.93 22.72C3.94 22.78 3.97 22.78 4.04 22.73C3.96 22.89 3.91 23.06 3.89 23.23C3.88 23.41 3.90 23.59 3.93 23.78ZM0.15 31.46C0.46 31.10 0.72 30.70 0.93 30.25C1.14 29.81 1.31 29.40 1.43 29.04C0.99 28.88 0.54 28.75 0.06 28.66C-0.40 28.56 -0.87 28.51 -1.34 28.49C-1.51 28.58 -1.66 28.65 -1.78 28.69C-1.90 28.73 -2.01 28.75 -2.12 28.73C-2.22 28.72 -2.33 28.68 -2.43 28.62C-2.54 28.57 -2.66 28.50 -2.81 28.39C-2.79 28.02 -2.68 27.69 -2.48 27.40C-2.28 27.11 -2.02 26.92 -1.70 26.83C-1.50 26.71 -1.28 26.64 -1.05 26.61C-0.80 26.58 -0.56 26.58 -0.32 26.59C-0.07 26.62 0.18 26.65 0.42 26.70C0.66 26.75 0.89 26.80 1.11 26.84C1.20 26.82 1.29 26.82 1.39 26.84C1.49 26.88 1.59 26.91 1.69 26.94C1.79 26.98 1.90 27.02 2.00 27.05C2.12 27.08 2.23 27.10 2.34 27.09C2.48 26.92 2.59 26.71 2.67 26.44C2.76 26.17 2.85 25.91 2.96 25.65C2.99 25.61 2.98 25.57 2.93 25.54C2.89 25.51 2.88 25.48 2.89 25.45C3.00 25.40 3.10 25.31 3.17 25.17C3.25 25.05 3.31 24.91 3.34 24.78C3.44 24.74 3.55 24.71 3.69 24.66C3.83 24.61 3.96 24.52 4.08 24.38C4.14 24.34 4.20 24.31 4.27 24.30C4.35 24.29 4.41 24.28 4.47 24.27C4.54 24.26 4.61 24.25 4.66 24.23C4.72 24.21 4.77 24.18 4.80 24.12C4.88 24.21 4.94 24.30 4.96 24.39C4.99 24.49 5.01 24.58 5.02 24.66C5.04 24.75 5.05 24.83 5.07 24.89C5.10 24.96 5.14 25.02 5.20 25.07C5.16 25.09 5.13 25.10 5.12 25.12C5.11 25.14 5.11 25.16 5.11 25.18C5.11 25.20 5.11 25.22 5.10 25.25C5.11 25.27 5.10 25.28 5.07 25.30C5.11 25.45 5.12 25.63 5.08 25.86C5.05 26.09 5.00 26.31 4.93 26.54C4.87 26.78 4.79 27.00 4.71 27.21C4.63 27.41 4.56 27.57 4.52 27.67C4.75 27.78 5.02 27.89 5.31 28.01C5.61 28.12 5.91 28.24 6.23 28.36C6.55 28.48 6.85 28.61 7.15 28.74C7.45 28.88 7.72 29.03 7.96 29.20C7.98 29.37 7.97 29.52 7.92 29.64C7.89 29.78 7.83 29.90 7.76 30.01C7.71 30.12 7.64 30.23 7.55 30.34C7.48 30.44 7.43 30.55 7.39 30.67C7.22 30.69 7.07 30.69 6.93 30.68C6.80 30.66 6.67 30.68 6.53 30.72C6.36 30.60 6.13 30.48 5.85 30.34C5.60 30.22 5.28 30.08 4.88 29.93C4.49 29.78 4.00 29.61 3.39 29.43C3.34 29.59 3.29 29.73 3.23 29.86C3.17 29.98 3.11 30.08 3.07 30.17C3.01 30.26 2.96 30.34 2.91 30.42C2.90 30.52 2.87 30.62 2.83 30.71C2.80 30.80 2.75 30.89 2.70 30.98C2.66 31.07 2.62 31.16 2.59 31.26C2.56 31.35 2.55 31.45 2.57 31.56C2.37 31.76 2.21 31.95 2.08 32.16C1.95 32.36 1.80 32.51 1.60 32.63C1.39 32.69 1.19 32.70 1.01 32.67C0.83 32.64 0.66 32.65 0.51 32.68C0.44 32.63 0.37 32.57 0.31 32.52C0.24 32.46 0.17 32.43 0.10 32.42L0.15 31.46ZM10.87 36.61C10.74 36.42 10.59 36.22 10.42 36.02C10.25 35.81 10.09 35.61 9.92 35.42C9.80 35.28 9.68 35.14 9.57 35.01C9.47 34.88 9.37 34.76 9.29 34.65C9.09 34.70 8.90 34.75 8.74 34.78C8.58 34.81 8.41 34.83 8.25 34.85C8.08 34.87 7.91 34.90 7.74 34.94C7.58 34.97 7.41 35.02 7.22 35.07C7.05 35.07 6.89 35.08 6.75 35.10C6.62 35.12 6.48 35.15 6.33 35.20C6.16 35.19 5.99 35.20 5.83 35.24C5.68 35.27 5.55 35.30 5.44 35.34L5.28 35.38C5.20 35.37 5.14 35.36 5.11 35.38C5.08 35.38 5.05 35.38 5.00 35.36C4.91 35.41 4.81 35.44 4.70 35.44C4.65 35.45 4.60 35.47 4.56 35.48C4.53 35.50 4.50 35.51 4.48 35.52C4.41 35.57 4.35 35.58 4.30 35.56C4.27 35.59 4.22 35.62 4.17 35.64C4.13 35.66 4.09 35.67 4.04 35.69C3.94 35.73 3.86 35.76 3.81 35.81C3.79 35.85 3.78 35.89 3.77 35.92C3.76 35.95 3.74 35.99 3.70 36.02C3.70 36.09 3.71 36.13 3.71 36.16C3.71 36.21 3.71 36.27 3.72 36.35L3.67 36.53C3.48 36.71 3.28 36.79 3.08 36.77C2.86 36.75 2.66 36.60 2.48 36.32L2.39 36.18C2.41 36.12 2.42 36.08 2.44 36.05C2.42 35.98 2.41 35.92 2.40 35.87C2.39 35.82 2.40 35.77 2.43 35.70C2.41 35.58 2.39 35.47 2.39 35.39L2.38 35.25C2.46 35.19 2.51 35.17 2.51 35.16C2.55 35.06 2.60 34.97 2.66 34.89C2.73 34.81 2.80 34.74 2.88 34.67C2.94 34.61 2.99 34.55 3.04 34.48C3.09 34.43 3.13 34.37 3.15 34.31C3.59 34.01 3.99 33.81 4.36 33.71C4.73 33.61 5.09 33.53 5.45 33.45C5.64 33.41 5.83 33.38 6.02 33.34C6.22 33.30 6.42 33.24 6.62 33.18L6.80 33.21C6.96 33.19 7.09 33.16 7.18 33.14C7.29 33.13 7.40 33.11 7.51 33.10C7.58 33.08 7.64 33.07 7.70 33.06C7.77 33.05 7.82 33.04 7.87 33.03C7.84 32.98 7.81 32.94 7.78 32.91C7.75 32.87 7.73 32.83 7.69 32.80C7.66 32.76 7.62 32.72 7.59 32.69C7.56 32.65 7.54 32.61 7.52 32.57C7.48 32.52 7.46 32.48 7.45 32.45C7.36 32.39 7.28 32.31 7.22 32.21L7.14 32.10C7.13 32.07 7.11 32.05 7.10 32.03C7.10 32.01 7.09 31.99 7.08 31.97C7.03 31.90 6.98 31.84 6.93 31.81C6.87 31.72 6.81 31.63 6.76 31.55L6.68 31.43C6.67 31.42 6.66 31.40 6.64 31.38C6.62 31.36 6.61 31.34 6.60 31.33C6.56 31.27 6.53 31.21 6.50 31.15C6.47 31.07 6.46 30.99 6.45 30.90C6.52 30.73 6.54 30.63 6.53 30.59L6.60 30.40C6.64 30.36 6.68 30.32 6.71 30.28C6.74 30.24 6.78 30.19 6.83 30.14C6.88 30.06 6.94 29.98 7.01 29.89C7.08 29.81 7.18 29.73 7.31 29.65C7.37 29.62 7.43 29.60 7.47 29.61C7.52 29.61 7.56 29.61 7.59 29.61L7.79 29.54L7.87 29.69L8.08 30.01C8.24 30.26 8.40 30.50 8.58 30.75C8.77 30.98 8.96 31.23 9.16 31.48C9.27 31.63 9.38 31.77 9.50 31.91C9.62 32.06 9.74 32.22 9.86 32.38C9.95 32.36 10.04 32.35 10.12 32.34L10.25 32.42C10.34 32.56 10.39 32.66 10.38 32.75C10.38 32.83 10.37 32.91 10.36 32.97C10.48 33.13 10.61 33.29 10.73 33.45C10.87 33.61 11.01 33.77 11.15 33.92C11.36 34.16 11.56 34.40 11.76 34.64C11.96 34.89 12.14 35.13 12.30 35.38C12.37 35.49 12.43 35.59 12.49 35.70C12.54 35.80 12.59 35.90 12.63 35.99L12.62 36.16C12.59 36.21 12.57 36.27 12.56 36.33C12.55 36.41 12.54 36.48 12.53 36.55C12.51 36.69 12.47 36.85 12.41 37.01C12.35 37.18 12.21 37.32 11.97 37.44C11.84 37.44 11.76 37.43 11.72 37.41L11.52 37.40L11.45 37.27C11.42 37.23 11.39 37.19 11.35 37.16C11.32 37.13 11.28 37.10 11.24 37.07C11.21 37.05 11.17 37.03 11.14 37.01C11.11 36.98 11.08 36.95 11.05 36.92C11.00 36.85 10.96 36.79 10.94 36.75C10.92 36.70 10.90 36.66 10.87 36.61Z" fill="white"/>
</svg>