<svg width="360" height="359" viewBox="0 0 360 359" fill="none" xmlns="http://www.w3.org/2000/svg">
<path fill-rule="evenodd" clip-rule="evenodd" d="M295.069 117.579C297.062 121.967 299.663 125.782 300.694 130.739C299.626 132.157 298.658 133.765 297.384 135.077C292.365 140.254 287.009 145.052 280.871 148.896C278.413 150.434 275.928 151.929 273.601 153.355C273.106 156.432 274.14 158.757 275.085 161.496C286.984 162.794 298.801 164.587 309.777 169.259C311.074 174.596 311.094 180.275 309.824 184.913C304.666 187.649 298.961 189.447 293.146 190.823C287.496 192.16 281.759 193.143 275.683 194.357C275.391 195.42 274.959 196.685 274.709 197.986C274.486 199.143 274.465 200.339 274.325 201.85C284.738 207.482 294.614 213.878 303.083 222.821C302.199 227.826 300.103 232.425 297.632 237.096C285.34 237.902 273.744 234.828 261.86 231.747C260.377 233.93 258.965 236.003 257.547 238.091C264.498 247.974 271.231 257.644 275.098 269.073C272.804 273.861 268.628 276.591 264.679 280.063C262.766 279.326 260.827 278.728 259.019 277.855C251.263 274.117 244.161 269.349 237.49 263.924C236.317 262.969 235.092 262.078 233.783 261.075L227.301 265.046C227.623 266.685 227.913 268.342 228.277 269.983C230.182 278.557 230.984 287.241 230.823 296.011C230.792 297.684 230.461 299.352 230.271 301C225.667 303.24 221.331 305.13 216.231 305.593C207.286 297.216 201.556 286.762 196.281 275.78C193.664 276.048 191.317 276.289 188.57 276.569C187.698 280.41 186.965 284.238 185.938 287.985C184.854 291.948 183.632 295.887 182.208 299.74C180.847 303.42 179.147 306.977 177.692 310.366C173.044 311.361 167.324 310.927 161.788 309.169C157.551 298.072 156.547 286.186 156.172 273.832C153.695 273.159 151.281 272.501 148.705 271.8C141.963 281.687 134.606 290.659 125.111 298.173C119.909 297.691 115.928 294.324 111.812 292.073C110.578 289.868 111.246 287.989 111.527 286.172C112.887 277.331 115.16 268.73 118.505 260.421C119.007 259.172 119.404 257.878 119.94 256.345C118.099 254.739 116.324 253.195 114.812 251.877C112.262 251.698 110.851 253.133 109.306 254.106C102.002 258.713 94.1307 262.022 85.9067 264.544C84.7658 264.893 83.5847 265.162 82.403 265.306C81.7552 265.386 81.0663 265.128 80.3868 265.02C76.9079 262.054 74.4178 258.41 72.3926 254.651C72.0461 252.171 73.3454 250.493 74.4292 248.773C79.1043 241.342 84.6181 234.591 90.9353 228.494C91.9089 227.554 92.8177 226.548 93.9425 225.38C92.9581 223.107 92.0203 220.947 90.9321 218.435C88.6278 218.66 86.4432 218.843 84.2652 219.094C75.8744 220.06 67.4989 219.789 59.1342 218.762C57.6125 218.576 56.0851 218.414 54.5698 218.242C52.9255 212.908 51.3131 208.278 51.5093 202.916C60.7272 195.205 71.7207 190.92 82.6447 186.733C83.7954 183.997 83.2194 181.497 82.888 178.902C77.1995 176.805 71.5239 174.913 66.0137 172.625C60.4979 170.334 55.1692 167.609 50.2333 163.932C50.6256 158.756 51.4949 153.927 53.1257 148.868C58.9318 147.269 64.8755 146.646 70.8352 146.477C76.8048 146.307 82.7875 146.561 89.2179 146.633C90.0827 144.552 90.9837 142.38 91.961 140.026C91.3606 139.328 90.8987 138.618 90.2777 138.096C83.4417 132.334 77.1962 126.024 71.9881 118.723C71.259 117.7 70.3796 116.783 69.2099 115.432L68.9848 110.134C71.776 106.501 73.5423 102.927 76.4667 100.326C80.404 100.474 83.7059 101.617 88.255 102.651L97.0931 106.037C98.2125 106.545 105.757 110.134 106.815 110.723C107.872 111.312 108.991 111.933 110.488 112.766C112.501 110.725 114.124 109.078 115.855 107.322L113.93 104.18L108.846 87.1868L105.825 71.8048L115.873 65.6501L128.18 74.3724C132.153 77.7422 135.329 79.702 140.848 86.0372C141.827 87.4764 142.565 88.563 143.744 90.2984C146.329 89.4216 148.667 88.6286 150.85 87.8875C151.168 85.3869 151.211 85.0462 150.586 83.6898L152.566 79.0199L152.568 78.9791L152.638 71.1693L152.636 71.1499L152.088 64.7992C152.129 64.9164 152.169 65.034 152.209 65.1517C153.373 60.1032 154.327 55.9698 155.323 51.6492C157.648 51.2206 159.645 50.8494 161.641 50.4849C163.433 50.1561 165.352 50.3371 167.406 49.5322L172.134 52.2028C177.477 62.2811 181.079 72.6434 183.66 83.6527C186.3 83.8524 188.634 84.0283 191.102 84.2154C193.855 78.6303 196.367 73.2172 199.161 67.9525C201.892 62.8038 205.23 58.0318 209.256 53.2241C214.335 53.5631 219.042 55.4838 224.138 57.2994C226.011 69.3736 224.634 81.2206 222.447 93.0396C224.374 94.8606 226.637 95.6216 228.573 96.6067C230.688 96.3634 231.718 94.9127 232.96 93.7638C239.141 88.0452 245.768 82.9163 253.095 78.7384C254.708 77.8183 256.438 77.1006 258.187 76.2529C263.149 78.1975 266.362 81.9745 270.195 85.4829C267.34 97.5111 261.159 107.731 254.553 118.121C255.869 120.07 257.179 122.011 258.677 124.228C260.489 123.708 262.112 123.296 263.701 122.781C272.043 120.075 280.535 118.08 289.304 117.473C291.135 117.346 292.986 117.532 295.069 117.579ZM297.476 130.633C296.461 125.971 295.723 124.461 292.278 119.944C290.299 120.089 288.083 120.136 285.903 120.431C278.072 121.488 270.411 123.292 262.997 126.052C261.047 126.779 259.153 127.626 256.835 126.124C255.172 123.97 253.311 121.559 251.7 119.472C251.543 116.489 253.265 114.859 254.493 113.066C258.968 106.537 262.745 99.6431 265.654 92.2845C266.394 90.414 267.407 88.5743 267.204 86.1377C264.226 84.0532 262.03 80.8577 258.317 79.4743C247.893 84.7257 238.845 91.6836 230.872 99.6274C226.85 98.9714 223.75 97.4408 220.151 94.4728C220.869 88.5516 221.791 82.6315 222.252 76.6774C222.712 70.7495 222.834 64.7773 221.585 58.6473C217.947 57.5637 214.543 56.5521 210.985 55.4928C202.868 64.8827 197.569 75.5596 192.933 86.8613C188.923 86.3352 185.15 86.8105 181.244 85.3219C178.544 73.9243 175.021 62.731 168.794 52.5633C164.668 52.7724 160.758 52.791 157.019 54.5978C156.619 56.1573 156.185 57.6284 155.868 59.1258C154.115 67.3836 153.56 75.7405 153.755 84.1678C153.798 85.9996 153.616 87.8391 153.538 89.6657C149.589 91.2144 146.256 93.4685 142.416 92.6484C130.733 78.5185 124.462 72.442 117.303 68.3574C115.984 69.096 114.483 69.8807 113.039 70.7593C111.447 71.7289 109.905 72.7837 108.38 73.778C108.401 74.7378 108.314 75.4303 108.444 76.0805C110.268 85.1651 112.533 94.0997 116.877 102.392C117.881 104.31 119.079 106.338 118.184 109.038C115.943 111.154 114.033 114.069 110.476 115.557C108.88 114.778 107.167 114.027 105.535 113.128C98.4458 109.227 91.0133 106.169 83.218 104.015C81.4389 103.522 79.604 103.226 77.8454 102.85C75.1139 105.94 72.6984 108.756 71.3973 112.382C72.6376 114.407 73.6714 116.384 74.9727 118.169C80.5408 125.81 87.4269 132.213 94.5691 138.328C94.1357 142.588 92.1046 145.902 90.467 149.235C84.1416 149.122 78.1513 148.793 72.1787 148.97C66.2414 149.148 60.2706 149.543 54.3667 151.696C54.3125 152.014 54.2585 152.332 54.2047 152.649C53.6413 155.962 53.0942 159.18 52.5305 162.501C62.7865 169.458 73.929 173.72 85.4786 177.052C85.5491 181.294 86.6683 185.191 84.9725 188.756C79.4847 191.05 74.1778 193.006 69.11 195.456C63.8887 197.979 58.9083 200.994 54.202 204.551C54.3355 205.944 54.3168 207.148 54.5869 208.284C55.1765 210.761 55.9127 213.205 56.6628 215.932C58.4688 216.206 60.1257 216.53 61.7971 216.698C70.1901 217.543 78.5646 217.262 86.9202 216.173C88.9211 215.912 90.9904 215.2 93.2192 216.971C93.7207 217.961 94.477 219.303 95.09 220.706C95.7659 222.256 96.3099 223.863 97.0442 225.797C95.9463 227.104 94.9981 228.501 93.796 229.626C87.2548 235.743 81.6201 242.61 76.7035 250.074C75.9721 251.184 75.4728 252.446 74.8969 253.576C76.6462 257.29 79.3197 259.898 81.9368 262.592C83.2629 262.298 84.4525 262.122 85.5839 261.766C95.4326 258.661 104.571 254.019 113.242 248.623C117.461 249.523 119.629 252.775 122.432 254.967C122.708 257.411 121.601 259.199 120.821 261.075C117.379 269.341 114.845 277.861 113.776 286.774C113.64 287.917 113.797 289.096 113.819 290.28C113.852 290.301 113.885 290.323 113.918 290.344C117.058 292.378 120.02 294.297 123.752 295.381C125.067 294.353 126.467 293.387 127.716 292.257C133.962 286.606 139.472 280.302 144.328 273.414C145.377 271.926 146.015 269.981 148.39 269.198C150.397 269.791 152.699 270.441 154.977 271.158C156.106 271.515 157.195 271.997 158.538 272.513C158.638 274.071 158.792 275.58 158.821 277.092C159 286.048 160.331 294.832 162.734 303.452C163.136 304.892 163.779 306.264 164.271 307.561C168.361 308.282 172.024 309.044 175.82 308.033C176.583 306.581 177.383 305.258 177.998 303.856C181.378 296.138 184.009 288.184 185.466 279.862C185.785 278.044 185.645 276.055 187.279 274.343C190.708 273.868 194.278 272.418 198.306 273.719C203.626 283.97 208.681 294.482 217.215 302.665C221.172 301.878 224.727 300.835 228.234 298.625C228.256 295.947 228.362 293.23 228.285 290.518C228.073 282.952 226.852 275.519 225.046 268.183C224.588 266.32 224.067 264.517 225.494 262.489C227.905 260.865 230.367 258.697 234.168 258.033C235.471 258.978 236.982 260.041 238.457 261.151C242.286 264.03 245.984 267.103 249.951 269.778C254.187 272.633 258.567 275.32 263.544 277.049C266.897 274.789 269.86 272.333 271.746 268.97C271.635 268.21 271.667 267.657 271.47 267.205C267.824 258.866 263.725 250.791 257.917 243.684C256.649 242.131 255.771 240.259 254.704 238.516C255.898 234.925 258.115 232.159 260.737 229.17C262.665 229.662 264.648 230.074 266.573 230.677C275.146 233.366 283.962 234.488 292.899 234.82C293.9 234.858 294.913 234.634 295.968 234.528C297.984 231.213 299.473 227.82 300.375 224.023C292.113 215.221 282.112 208.998 271.527 203.17C272.11 199.872 272.669 196.709 273.242 193.466C273.337 192.931 273.432 192.393 273.527 191.853C275.135 191.552 276.445 191.232 277.773 191.07C286.489 190.014 294.946 187.904 303.142 184.78C304.86 184.125 306.479 183.212 308.147 182.415C308.266 178.302 308.479 174.593 307.578 170.911C301.982 168.517 296.376 166.946 290.625 166.011C284.741 165.052 278.803 164.42 272.82 163.635C271.656 159.858 270.155 156.401 270.779 152.183C280.504 146.002 290.151 139.541 297.476 130.633Z" fill="white"/>
<path fill-rule="evenodd" clip-rule="evenodd" d="M168.173 238.521C182.576 241.281 196.083 238.981 208.658 231.422C212.713 229.08 216.252 226.137 219.387 222.694C232.421 208.4 237.482 191.387 235.465 172.442C233.612 155.032 224.653 141.723 209.827 132.386C203.06 128.125 195.634 125.624 187.848 124.061C164.671 119.407 142.343 128.409 129.6 147.608C124.563 155.194 121.724 163.589 120.277 172.436C116.623 194.801 123.414 213.302 141.38 227.393C149.251 233.567 158.473 236.662 168.173 238.521ZM209.374 166.085C207.968 162.649 205.641 159.972 202.994 157.027C202.477 156.725 201.964 156.445 201.461 156.17C200.398 155.589 199.377 155.032 198.457 154.34C194.255 151.184 189.513 149.339 184.441 148.206C167.718 144.468 151.588 153.352 145.885 169.533C140.484 184.857 145.545 199.294 156.569 207.92C168.242 217.054 184.95 217.693 196.967 209.351C206.529 202.712 211.008 193.101 211.407 181.713C211.589 176.489 211.449 171.15 209.374 166.085Z" fill="#35383B"/>
<path d="M228.606 149.986C245.581 177.696 236.573 214.128 208.456 231.351C180.34 248.575 143.792 240.05 126.818 212.34C109.843 184.63 118.851 148.198 146.968 130.975C175.084 113.751 211.632 122.276 228.606 149.986Z" stroke="white" stroke-width="1.5"/>
<path d="M207.428 162.96C217.234 178.968 211.909 200.111 195.483 210.174C179.057 220.236 157.802 215.375 147.996 199.367C138.19 183.359 143.515 162.216 159.941 152.153C176.367 142.091 197.622 146.952 207.428 162.96Z" fill="#35383B" stroke="white" stroke-width="1.5"/>
<path d="M185.277 192.005C178.448 196.188 169.638 194.235 165.599 187.641C161.56 181.048 163.822 172.312 170.651 168.129C177.479 163.946 186.289 165.9 190.328 172.493C194.367 179.086 192.106 187.822 185.277 192.005Z" fill="white"/>
<path fill-rule="evenodd" clip-rule="evenodd" d="M292.278 119.944C295.723 124.461 296.461 125.971 297.476 130.633C290.151 139.541 280.504 146.002 270.779 152.183C270.253 155.74 271.238 158.755 272.257 161.877C272.447 162.458 272.638 163.042 272.82 163.635C274.65 163.875 276.476 164.101 278.298 164.326C282.431 164.837 286.541 165.346 290.625 166.011C296.376 166.946 301.983 168.517 307.579 170.911C308.4 174.27 308.295 177.652 308.18 181.342C308.169 181.697 308.157 182.055 308.147 182.416C307.623 182.666 307.103 182.928 306.584 183.189C305.452 183.761 304.32 184.331 303.142 184.78C294.946 187.904 286.49 190.014 277.774 191.07C276.881 191.179 275.996 191.359 275.024 191.557C274.55 191.653 274.055 191.754 273.528 191.853L273.242 193.467C272.669 196.709 272.11 199.872 271.527 203.17C282.112 208.998 292.114 215.221 300.375 224.023C299.473 227.82 297.984 231.213 295.968 234.528C295.629 234.562 295.294 234.608 294.963 234.654C294.263 234.751 293.578 234.846 292.899 234.821C283.962 234.488 275.147 233.367 266.573 230.677C265.251 230.263 263.902 229.939 262.562 229.617C261.951 229.471 261.341 229.324 260.737 229.17C258.115 232.159 255.898 234.925 254.704 238.517C255.041 239.066 255.359 239.629 255.676 240.19C256.364 241.408 257.049 242.621 257.917 243.684C263.725 250.792 267.824 258.866 271.47 267.205C271.6 267.502 271.63 267.842 271.667 268.256C271.687 268.473 271.708 268.709 271.746 268.971C269.86 272.333 266.898 274.789 263.545 277.049C258.567 275.32 254.187 272.633 249.951 269.778C247.279 267.976 244.728 265.994 242.177 264.011C240.942 263.051 239.707 262.09 238.458 261.151C237.429 260.377 236.384 259.627 235.403 258.923C234.977 258.617 234.563 258.319 234.168 258.033C231.018 258.583 228.787 260.167 226.743 261.618C226.321 261.917 225.907 262.211 225.494 262.489C224.12 264.441 224.551 266.185 224.994 267.974C225.011 268.044 225.028 268.113 225.046 268.183C226.852 275.519 228.074 282.952 228.285 290.518C228.338 292.38 228.304 294.246 228.271 296.099C228.256 296.944 228.241 297.787 228.234 298.625C224.728 300.835 221.172 301.878 217.215 302.665C209.354 295.127 204.445 285.613 199.562 276.148C199.144 275.337 198.726 274.527 198.306 273.719C195.283 272.742 192.517 273.316 189.875 273.864C188.998 274.046 188.134 274.225 187.279 274.343C185.987 275.696 185.804 277.222 185.627 278.7C185.58 279.092 185.533 279.481 185.466 279.863C184.009 288.184 181.378 296.138 177.998 303.856C177.58 304.809 177.077 305.725 176.558 306.669C176.313 307.115 176.065 307.568 175.82 308.033C172.255 308.982 168.807 308.368 165.013 307.693C164.767 307.649 164.52 307.605 164.271 307.561C164.119 307.159 163.952 306.749 163.782 306.333C163.404 305.406 163.012 304.445 162.735 303.452C160.331 294.832 159.001 286.048 158.821 277.092C158.801 276.056 158.723 275.021 158.643 273.971C158.606 273.489 158.57 273.004 158.538 272.513C158.104 272.347 157.697 272.183 157.306 272.027C156.488 271.699 155.742 271.4 154.978 271.158C153.339 270.642 151.687 270.161 150.142 269.711C149.539 269.535 148.953 269.365 148.39 269.198C146.538 269.809 145.742 271.126 144.984 272.382C144.77 272.737 144.559 273.086 144.328 273.414C139.472 280.303 133.962 286.606 127.716 292.257C126.859 293.032 125.932 293.73 125.009 294.424C124.586 294.741 124.165 295.058 123.752 295.382C120.021 294.297 117.058 292.378 113.918 290.344L113.82 290.28C113.812 289.906 113.792 289.532 113.771 289.16C113.727 288.355 113.683 287.556 113.776 286.774C114.845 277.861 117.379 269.341 120.821 261.075C120.96 260.74 121.11 260.408 121.261 260.074C121.953 258.539 122.658 256.974 122.432 254.967C121.65 254.356 120.918 253.662 120.176 252.959C118.26 251.144 116.284 249.272 113.242 248.624C104.571 254.019 95.4328 258.661 85.5841 261.766C84.8174 262.007 84.024 262.166 83.1795 262.334C82.7778 262.414 82.3644 262.497 81.9369 262.592C81.7656 262.415 81.5939 262.239 81.4223 262.063C78.9737 259.552 76.5318 257.047 74.897 253.576C75.078 253.221 75.2514 252.853 75.4268 252.481C75.8097 251.668 76.2021 250.836 76.7037 250.074C81.6203 242.61 87.2549 235.744 93.7961 229.626C94.6137 228.861 95.3138 227.97 96.0234 227.067C96.3572 226.643 96.6931 226.215 97.0443 225.797C96.814 225.19 96.6025 224.616 96.3997 224.066C95.9559 222.861 95.5541 221.77 95.0901 220.706C94.6509 219.701 94.138 218.727 93.698 217.891C93.524 217.561 93.3615 217.252 93.2194 216.971C91.3231 215.464 89.5423 215.755 87.8207 216.036C87.5189 216.085 87.2189 216.134 86.9204 216.173C78.5647 217.262 70.1902 217.543 61.7972 216.698C60.6641 216.585 59.5377 216.399 58.3669 216.205C57.8108 216.113 57.2446 216.02 56.6629 215.932C56.4399 215.121 56.2181 214.335 56.001 213.566C55.488 211.749 55.0013 210.025 54.5871 208.284C54.4043 207.516 54.3538 206.716 54.2989 205.848C54.2726 205.433 54.2454 205.002 54.2022 204.551C58.9085 200.994 63.8889 197.979 69.1101 195.456C72.6093 193.765 76.2225 192.308 79.9305 190.814C81.5927 190.144 83.2741 189.466 84.9727 188.756C86.195 186.186 85.9547 183.444 85.6989 180.524C85.5998 179.394 85.4984 178.236 85.4787 177.052C73.9291 173.72 62.7866 169.458 52.5306 162.501C53.0944 159.18 53.6415 155.962 54.2048 152.649L54.3669 151.696C60.2707 149.543 66.2415 149.148 72.1789 148.97C76.3101 148.848 80.4498 148.967 84.703 149.09C86.5987 149.145 88.517 149.201 90.4671 149.236C90.7329 148.695 91.0089 148.154 91.2869 147.61C92.7219 144.802 94.2062 141.897 94.5692 138.328C87.427 132.213 80.5409 125.81 74.9729 118.169C74.088 116.955 73.3269 115.653 72.5404 114.307C72.1702 113.673 71.7944 113.03 71.3975 112.382C72.6986 108.756 75.114 105.94 77.8455 102.85C78.4015 102.969 78.9652 103.08 79.5322 103.191C80.7588 103.433 82.0015 103.678 83.2181 104.015C91.0135 106.169 98.446 109.227 105.535 113.128C106.659 113.748 107.822 114.296 108.958 114.833C109.471 115.075 109.979 115.315 110.476 115.557C113.091 114.463 114.815 112.599 116.435 110.847C117.019 110.216 117.59 109.599 118.184 109.038C119.032 106.48 118.002 104.526 117.037 102.696C116.983 102.594 116.93 102.493 116.877 102.392C112.533 94.0998 110.268 85.1652 108.445 76.0806C108.359 75.6535 108.367 75.2081 108.377 74.6807C108.382 74.4052 108.388 74.1074 108.38 73.7781C108.829 73.4855 109.279 73.1876 109.732 72.8882C110.817 72.1703 111.915 71.4437 113.039 70.7594C114.053 70.1424 115.095 69.5717 116.083 69.0308C116.502 68.8014 116.911 68.5774 117.304 68.3575C124.462 72.4421 130.733 78.5186 142.416 92.6485C145.376 93.2807 148.035 92.0861 150.907 90.796C151.761 90.4125 152.633 90.0207 153.538 89.6658C153.562 89.0943 153.597 88.5216 153.632 87.9482C153.708 86.6889 153.785 85.4266 153.756 84.1679C153.56 75.7406 154.115 67.3837 155.868 59.1259C156.084 58.1051 156.355 57.0966 156.632 56.0639C156.761 55.5818 156.892 55.0943 157.019 54.5979C160.417 52.9561 163.956 52.7908 167.67 52.6174C168.043 52.6 168.418 52.5825 168.794 52.5634C175.021 62.7311 178.544 73.9244 181.244 85.322C183.838 86.3106 186.374 86.433 188.959 86.5578C190.266 86.621 191.586 86.6847 192.933 86.8614C197.569 75.5597 202.868 64.8828 210.985 55.4929C212.69 56.0004 214.359 56.4969 216.035 56.9957C217.858 57.538 219.69 58.083 221.585 58.6474C222.834 64.7774 222.712 70.7496 222.252 76.6775C221.932 80.818 221.388 84.9421 220.845 89.0615C220.608 90.8658 220.37 92.6693 220.151 94.4729C223.75 97.4409 226.85 98.9715 230.873 99.6275C238.845 91.6837 247.894 84.7258 258.317 79.4744C260.682 80.3553 262.431 81.9711 264.158 83.5668C265.144 84.477 266.122 85.3807 267.204 86.1378C267.374 88.1761 266.693 89.7967 266.032 91.3671C265.903 91.6739 265.775 91.9788 265.654 92.2846C262.745 99.6432 258.968 106.537 254.493 113.067C254.277 113.382 254.046 113.691 253.813 114.005C252.718 115.474 251.571 117.013 251.7 119.472C253.311 121.559 255.172 123.97 256.835 126.124C259.03 127.546 260.844 126.863 262.687 126.169C262.79 126.13 262.894 126.091 262.998 126.053C270.411 123.292 278.072 121.488 285.903 120.431C287.414 120.226 288.941 120.141 290.394 120.06C291.039 120.024 291.67 119.989 292.278 119.944ZM208.848 231.992C180.387 249.426 143.374 240.804 126.178 212.732C108.982 184.661 118.115 147.77 146.576 130.335C175.037 112.901 212.05 121.523 229.246 149.595C246.442 177.666 237.31 214.557 208.848 231.992Z" fill="#35383B"/>
</svg>
