<svg width="866" height="359" viewBox="0 0 866 359" fill="none" xmlns="http://www.w3.org/2000/svg">
<g id="motor-gear">
<path fill-rule="evenodd" clip-rule="evenodd" d="M187.886 48C192.669 48.5927 197.28 48.3676 202.047 50.0778C202.698 51.7285 203.563 53.3946 204.016 55.1663C205.81 62.1501 207.103 69.224 207.174 76.4661C207.202 79.365 207.179 82.2655 207.179 84.9938C209.545 87.0236 212.067 87.3561 214.897 87.9819C222.218 78.513 229.92 69.373 239.637 62.4538C244.866 64.1359 249.72 67.0852 253.011 70.5902C252.65 76.4181 251.203 82.2223 249.339 87.8995C247.528 93.4163 245.369 98.8215 243.23 104.636C243.984 105.441 244.837 106.47 245.816 107.363C246.687 108.157 247.695 108.8 248.911 109.709C259.153 103.771 269.765 98.6908 281.815 96.141C285.621 99.5086 288.448 103.699 291.14 108.245C285.406 119.148 276.728 127.431 267.893 135.955C268.979 138.36 270.01 140.647 271.05 142.946C283.108 142.181 294.871 141.492 306.637 144.164C309.521 148.621 309.668 153.608 310.566 158.789C308.938 160.036 307.415 161.377 305.726 162.463C298.488 167.124 290.712 170.689 282.601 173.544C281.174 174.045 279.775 174.625 278.235 175.217V182.818C279.801 183.399 281.366 184.018 282.955 184.565C291.262 187.419 299.085 191.271 306.48 195.99C307.891 196.891 309.14 198.044 310.446 199.067C309.951 204.163 309.298 208.847 307.028 213.438C295.213 216.69 283.305 216.116 271.185 214.877C270.046 217.248 269.026 219.376 267.83 221.864C270.65 224.614 273.531 227.239 276.19 230.072C279.003 233.067 281.723 236.166 284.265 239.393C286.692 242.476 288.838 245.784 290.967 248.794C289.387 253.278 286.03 257.928 281.639 261.731C269.963 259.547 259.303 254.194 248.573 248.062C246.705 249.822 244.883 251.537 242.939 253.367C247.848 264.281 251.656 275.241 253.103 287.263C249.976 291.447 245.025 293.082 240.955 295.417C238.431 295.317 237.177 293.766 235.775 292.578C228.947 286.799 222.799 280.368 217.461 273.176C216.658 272.095 215.762 271.081 214.735 269.822C212.404 270.554 210.16 271.26 208.246 271.861C206.761 273.942 207.248 275.895 207.271 277.721C207.384 286.356 206.094 294.797 203.948 303.126C203.65 304.282 203.263 305.43 202.768 306.512C202.498 307.107 201.918 307.559 201.471 308.082C197.125 309.5 192.717 309.719 188.453 309.483C186.157 308.482 185.405 306.498 184.505 304.675C180.611 296.807 177.734 288.579 175.835 280.007C175.542 278.686 175.159 277.386 174.75 275.816C172.298 275.469 169.966 275.14 167.255 274.756C166.244 276.838 165.259 278.797 164.335 280.785C160.775 288.444 156.17 295.445 150.924 302.041C149.971 303.242 149.035 304.46 148.096 305.662C142.689 304.278 137.899 303.234 133.429 300.266C131.669 288.378 133.757 276.765 135.893 265.263C134.161 262.852 131.729 262.038 129.343 260.965C124.583 264.72 120.005 268.571 115.176 272.075C110.341 275.582 105.234 278.702 99.5203 280.991C95.3116 277.952 91.6476 274.688 88.1855 270.655C89.8545 264.869 92.4286 259.475 95.3972 254.305C98.3708 249.126 101.712 244.156 105.133 238.711C103.81 236.886 102.429 234.984 100.932 232.921C100.023 233.068 99.1761 233.091 98.4063 233.348C89.9224 236.167 81.2789 238.197 72.3331 238.824C71.0802 238.912 69.8387 239.182 68.0757 239.474L63.44 236.898C61.8002 232.621 59.6752 229.248 58.9853 225.395C61.1675 222.115 63.8668 219.896 67.125 216.557L74.6292 210.79C75.6467 210.1 82.6488 205.542 83.7034 204.948C84.758 204.353 85.8725 203.724 87.3641 202.883C86.6754 200.1 86.1184 197.855 85.5257 195.463H81.8407L64.6947 190.921L50 185.462V173.679L63.8668 167.74C68.8153 166.114 72.1455 164.429 80.4307 163.032C82.1692 162.949 83.4814 162.887 85.5774 162.788C86.1801 160.125 86.7249 157.718 87.2332 155.47C85.2669 153.892 84.6873 153.734 83.57 153.05L79.7328 150.699L73.1722 146.094C72.1119 145.424 68.4391 142.408 68.5559 142.434C64.8588 138.805 61.8324 135.832 58.6684 132.726C59.5177 130.519 60.244 128.623 60.9758 126.73C61.6316 125.03 62.7883 123.488 63.1748 121.317L67.9221 118.679C79.3069 119.388 90.0245 121.73 100.761 125.28C102.31 123.132 103.679 121.234 105.128 119.228C101.803 113.963 98.4998 108.993 95.4699 103.86C92.5062 98.8417 90.1807 93.5024 88.1839 87.5583C91.1261 83.4044 95.2228 80.3938 99.433 76.9965C110.707 81.7071 120.09 89.0693 129.026 97.1079C131.586 96.4158 133.417 94.8837 135.268 93.7479C136.165 91.8174 135.466 90.181 135.135 88.522C133.488 80.2636 132.576 71.9337 132.841 63.5032C132.898 61.6472 133.19 59.7971 133.381 57.8633C137.631 54.6479 142.53 53.8804 147.524 52.445C156.289 61.1624 161.775 71.7717 167.184 82.832C169.534 82.7277 171.874 82.6246 174.546 82.5054C175.049 80.6893 175.546 79.0895 175.937 77.4654C177.986 68.9385 180.721 60.6556 184.785 52.8605C185.632 51.2332 186.758 49.7515 187.886 48ZM200.275 52.7667C195.77 51.1971 194.096 51.0376 188.445 51.6155C187.535 53.3788 186.417 55.2922 185.53 57.3055C182.341 64.536 179.877 72.0107 178.359 79.7744C177.96 81.8173 177.693 83.8746 175.201 85.0666C172.496 85.3597 169.467 85.6874 166.846 85.9705C164.221 84.5465 163.73 82.2268 162.843 80.2433C159.612 73.0162 155.707 66.1946 150.952 59.8699C149.743 58.2622 148.704 56.4371 146.52 55.3376C143.187 56.7879 139.315 56.9914 136.196 59.435C135.229 71.0665 136.435 82.417 139.045 93.3647C136.384 96.4524 133.459 98.2964 129.049 99.8147C124.375 96.1092 119.808 92.2308 114.972 88.7273C110.157 85.2389 105.128 82.0153 99.2487 79.8779C96.4242 82.4143 93.7834 84.7887 91.0217 87.2689C94.7886 99.0958 101.125 109.192 108.341 119.048C105.798 122.192 104.232 125.658 100.922 128.211C89.7925 124.56 78.4074 121.718 66.4847 121.716C64.5079 125.343 62.4812 128.687 62.0688 132.82C63.1897 133.975 64.2175 135.114 65.3285 136.167C71.4546 141.975 78.2907 146.814 85.579 151.049C87.1633 151.969 88.637 153.085 90.1534 154.106C89.4117 158.282 89.5924 162.302 86.8871 165.149C68.7356 167.73 60.2783 169.903 53.056 173.874C52.9964 175.385 52.8815 177.075 52.8765 178.765C52.8716 180.629 52.9659 182.494 53.0172 184.314C53.8467 184.797 54.3916 185.234 55.0141 185.462C63.7133 188.653 72.5153 191.388 81.8552 192.015C84.016 192.161 86.3704 192.199 88.2049 194.373C88.8391 197.389 90.327 200.54 89.7379 204.351C88.2396 205.305 86.705 206.373 85.0859 207.296C78.0557 211.302 71.5661 216.043 65.6568 221.565C64.3076 222.825 63.0969 224.235 61.857 225.538C63.0656 229.481 64.2052 233.012 66.6172 236.016C68.9915 236.016 71.2176 236.167 73.4197 235.99C82.8439 235.233 91.9005 232.706 100.846 229.81C104.252 232.404 106.018 235.868 108.004 239.005C104.604 244.34 101.194 249.276 98.2252 254.462C95.2749 259.617 92.4933 264.915 91.2449 271.074C91.4883 271.287 91.7309 271.498 91.9728 271.71C94.5039 273.921 96.9619 276.068 99.4993 278.284C110.79 273.173 120.244 265.897 129.118 257.789C132.773 259.945 136.68 261.026 138.834 264.335C137.924 270.212 136.82 275.76 136.262 281.361C135.686 287.131 135.655 292.953 136.23 298.824C137.488 299.438 138.505 300.083 139.614 300.446C142.035 301.237 144.503 301.886 147.22 302.67C148.397 301.273 149.539 300.03 150.556 298.693C155.66 291.977 159.795 284.689 163.231 276.995C164.053 275.153 164.527 273.016 167.202 272.041C168.308 272.13 169.847 272.186 171.364 272.397C173.039 272.63 174.693 273.005 176.726 273.389C177.267 275.009 177.963 276.547 178.294 278.159C180.094 286.933 183.006 295.325 186.802 303.416C187.367 304.619 188.182 305.704 188.845 306.786C192.926 307.234 196.546 306.316 200.21 305.492C200.652 304.208 201.123 303.101 201.411 301.951C203.908 291.931 204.723 281.713 204.652 271.501C207.622 268.373 211.528 268.223 214.861 266.978C217.089 268.02 218.037 269.897 219.228 271.543C224.479 278.795 230.421 285.407 237.463 290.974C238.367 291.687 239.454 292.169 240.475 292.768C240.51 292.751 240.546 292.735 240.581 292.718C243.956 291.102 247.139 289.579 250.013 286.964C249.823 285.305 249.731 283.607 249.42 281.951C247.864 273.672 245.367 265.682 242.029 257.943C241.309 256.271 239.983 254.711 240.556 252.277C242.111 250.875 243.867 249.251 245.669 247.683C246.562 246.907 247.542 246.23 248.684 245.355C250.065 246.083 251.432 246.741 252.736 247.505C260.467 252.03 268.652 255.484 277.259 257.938C278.696 258.347 280.202 258.516 281.565 258.774C284.316 255.663 286.879 252.937 288 249.173C287.161 247.764 286.45 246.39 285.576 245.133C280.76 238.219 275.352 231.821 269.017 226.231C267.633 225.01 265.864 224.091 265.258 221.803C266.643 218.631 267.272 214.828 270.485 212.074C282.006 212.891 293.61 214.073 305.046 211.069C306.441 207.284 307.409 203.708 307.356 199.563C305.085 198.146 302.822 196.636 300.47 195.285C293.908 191.513 286.932 188.672 279.733 186.38C277.905 185.798 276.095 185.3 275.111 183.024C274.986 180.12 274.423 176.887 275.842 173.299C277.329 172.682 279.025 171.949 280.742 171.27C285.197 169.51 289.749 167.962 294.102 165.976C298.75 163.856 303.329 161.524 307.403 158.183C307.228 154.143 306.681 150.334 304.798 146.969C304.092 146.666 303.637 146.35 303.149 146.282C294.134 145.035 285.107 144.313 276.012 145.553C274.025 145.823 271.97 145.593 269.927 145.593C267.489 142.699 266.288 139.363 265.109 135.567C266.536 134.179 267.923 132.703 269.442 131.377C276.214 125.471 281.775 118.54 286.727 111.093C287.282 110.258 287.621 109.278 288.081 108.323C286.308 104.873 284.192 101.831 281.426 99.0774C269.604 101.525 259.073 106.802 248.574 112.784C246.066 110.564 243.661 108.435 241.196 106.253C240.789 105.893 240.38 105.531 239.969 105.167C240.552 103.639 240.963 102.354 241.52 101.137C245.172 93.1534 247.789 84.8401 249.407 76.2187C249.746 74.4125 249.813 72.554 250.005 70.7163C246.56 68.4664 243.509 66.3469 239.898 65.1912C234.934 68.713 230.665 72.6729 226.864 77.0887C222.973 81.6054 219.332 86.3376 215.537 91.0299C211.709 90.0497 207.977 89.5239 204.705 86.7886C204.515 75.2666 204.045 63.6662 200.275 52.7667Z" fill="white"/>
<path fill-rule="evenodd" clip-rule="evenodd" d="M200.275 52.7666C195.77 51.197 194.097 51.0375 188.446 51.6154C188.166 52.1572 187.867 52.7133 187.56 53.2821C186.87 54.5641 186.145 55.9108 185.531 57.3053C182.342 64.5359 179.878 72.0106 178.359 79.7743C178.338 79.883 178.317 79.9917 178.297 80.1004C177.926 82.0337 177.561 83.9379 175.202 85.0665C172.496 85.3596 169.468 85.6872 166.847 85.9704C164.683 84.7966 163.969 83.0142 163.288 81.3132C163.143 80.9507 162.999 80.5916 162.843 80.2432C159.613 73.0161 155.708 66.1945 150.952 59.8698C150.755 59.607 150.562 59.3384 150.368 59.0681C149.373 57.6848 148.347 56.2573 146.52 55.3375C145.31 55.8643 144.028 56.2266 142.737 56.5914C140.474 57.2311 138.183 57.8788 136.196 59.4349C135.229 71.0664 136.436 82.4169 139.045 93.3646C136.385 96.4523 133.46 98.2963 129.049 99.8146C127.626 98.6861 126.212 97.5415 124.798 96.3964C121.569 93.7818 118.335 91.1635 114.972 88.7272C110.158 85.2387 105.129 82.0152 99.2493 79.8778C97.7996 81.1796 96.3982 82.4388 95.0041 83.6915L94.9429 83.7465L94.878 83.8048L94.8393 83.8396C93.5727 84.9778 92.3107 86.1118 91.0224 87.2688C94.7892 99.0957 101.126 109.191 108.341 119.048C107.487 120.104 106.743 121.196 106.007 122.278C104.55 124.417 103.121 126.516 100.923 128.211C89.7932 124.56 78.408 121.718 66.4853 121.716C66.3052 122.046 66.1247 122.374 65.9451 122.701C64.1531 125.958 62.4442 129.065 62.0694 132.819C62.4261 133.187 62.7733 133.553 63.1167 133.915C63.8526 134.691 64.5719 135.449 65.3292 136.166C71.4553 141.975 78.2913 146.813 85.5796 151.049C86.6683 151.681 87.7047 152.406 88.7386 153.129C89.2092 153.458 89.6798 153.787 90.1541 154.106C89.9841 155.063 89.8626 156.012 89.7437 156.94C89.3436 160.063 88.9732 162.954 86.8878 165.148C68.7362 167.73 60.2789 169.903 53.0566 173.873C53.0389 174.323 53.0162 174.789 52.993 175.266C52.9383 176.391 52.8807 177.578 52.8771 178.765C52.8736 180.08 52.9196 181.396 52.965 182.697C52.9839 183.239 53.0027 183.778 53.0178 184.314C53.3024 184.48 53.5535 184.64 53.7857 184.788C54.2303 185.072 54.6058 185.312 55.0147 185.462C63.7139 188.653 72.516 191.388 81.8559 192.015C81.9694 192.023 82.0836 192.03 82.1981 192.038C84.2627 192.171 86.4674 192.313 88.2056 194.373C88.3736 195.172 88.6016 195.981 88.835 196.809C89.4824 199.105 90.1715 201.55 89.7385 204.351C89.2729 204.647 88.8037 204.955 88.3296 205.266C87.2789 205.954 86.2016 206.66 85.0865 207.295C78.0563 211.302 71.5667 216.043 65.6574 221.565C64.7349 222.426 63.8771 223.358 63.0304 224.278C62.6395 224.702 62.249 225.126 61.8576 225.538C63.0662 229.481 64.2058 233.012 66.6179 236.015C67.3771 236.015 68.1212 236.031 68.8543 236.046C70.4125 236.079 71.9233 236.11 73.4203 235.99C82.8445 235.233 91.9012 232.705 100.847 229.81C103.7 231.983 105.402 234.766 107.047 237.457C107.366 237.978 107.683 238.496 108.005 239.005C106.957 240.649 105.908 242.255 104.871 243.843C102.545 247.405 100.279 250.875 98.2258 254.461C95.2755 259.617 92.4939 264.915 91.2455 271.074L91.9734 271.71C94.5046 273.921 96.9625 276.068 99.4999 278.284C110.79 273.172 120.244 265.897 129.119 257.789C130.139 258.391 131.179 258.909 132.194 259.415C134.818 260.722 137.282 261.95 138.835 264.334C138.553 266.154 138.253 267.941 137.956 269.709C137.293 273.651 136.648 277.494 136.263 281.361C135.686 287.131 135.656 292.953 136.23 298.824C136.637 299.022 137.018 299.224 137.385 299.418C138.154 299.825 138.864 300.2 139.614 300.445C141.315 301.001 143.039 301.487 144.856 301.998L144.866 302.002C145.633 302.217 146.416 302.438 147.221 302.67C147.6 302.22 147.975 301.786 148.344 301.36C149.12 300.463 149.868 299.599 150.556 298.693C155.661 291.977 159.796 284.689 163.231 276.995C163.354 276.72 163.469 276.439 163.585 276.156C164.244 274.541 164.927 272.87 167.203 272.041C167.516 272.066 167.864 272.089 168.237 272.113C169.179 272.174 170.278 272.246 171.365 272.396C172.514 272.557 173.654 272.784 174.914 273.035C175.488 273.149 176.09 273.269 176.726 273.389C176.9 273.907 177.089 274.417 177.276 274.923C177.676 276 178.07 277.063 178.295 278.159C180.095 286.933 183.007 295.324 186.803 303.416C187.19 304.241 187.695 305.01 188.188 305.761C188.414 306.105 188.637 306.446 188.845 306.785C192.659 307.205 196.071 306.431 199.491 305.655C199.731 305.6 199.971 305.546 200.211 305.492C200.352 305.081 200.497 304.688 200.637 304.305C200.935 303.497 201.217 302.73 201.412 301.951C203.909 291.931 204.724 281.713 204.652 271.501C206.794 269.245 209.423 268.538 211.972 267.853C212.958 267.587 213.932 267.325 214.862 266.978C216.692 267.833 217.658 269.253 218.605 270.644C218.811 270.947 219.016 271.249 219.229 271.543C224.479 278.795 230.421 285.407 237.463 290.973C238.082 291.461 238.785 291.841 239.496 292.224C239.823 292.401 240.153 292.579 240.476 292.768L240.581 292.718C243.956 291.102 247.14 289.579 250.014 286.963C249.954 286.442 249.904 285.917 249.854 285.391C249.744 284.242 249.634 283.086 249.421 281.951C247.864 273.672 245.367 265.681 242.03 257.943C241.871 257.575 241.683 257.212 241.493 256.844C240.818 255.542 240.11 254.175 240.556 252.277C240.991 251.885 241.442 251.475 241.905 251.055L241.913 251.047C243.103 249.965 244.375 248.81 245.669 247.683C246.274 247.158 246.919 246.678 247.626 246.151C247.964 245.9 248.316 245.638 248.685 245.355C249.119 245.584 249.552 245.806 249.982 246.027C250.919 246.507 251.843 246.981 252.737 247.505C260.467 252.03 268.653 255.484 277.259 257.938C278.251 258.22 279.275 258.388 280.262 258.549C280.706 258.622 281.143 258.694 281.565 258.774C281.733 258.584 281.899 258.397 282.065 258.21C284.623 255.327 286.948 252.708 288.001 249.172C287.731 248.72 287.475 248.272 287.223 247.83C286.689 246.894 286.17 245.987 285.577 245.133C280.76 238.219 275.352 231.821 269.018 226.231C268.728 225.975 268.421 225.733 268.112 225.488C266.944 224.565 265.737 223.611 265.258 221.803C265.604 221.012 265.902 220.182 266.205 219.339C267.118 216.8 268.074 214.142 270.486 212.073C271.39 212.138 272.294 212.204 273.199 212.27L273.213 212.272C283.836 213.052 294.512 213.836 305.046 211.069C306.442 207.284 307.41 203.707 307.357 199.563C306.646 199.119 305.935 198.667 305.223 198.212C303.66 197.216 302.086 196.213 300.47 195.285C293.909 191.513 286.932 188.672 279.733 186.38L279.528 186.315C277.771 185.758 276.059 185.215 275.112 183.024C275.09 182.527 275.056 182.022 275.021 181.506C274.852 179.005 274.667 176.273 275.843 173.299C276.293 173.113 276.762 172.915 277.245 172.712C278.357 172.243 279.546 171.743 280.742 171.27C282.196 170.696 283.66 170.144 285.124 169.592C288.147 168.453 291.17 167.314 294.103 165.976C298.75 163.855 303.329 161.524 307.404 158.183C307.228 154.143 306.681 150.333 304.799 146.969C304.556 146.865 304.343 146.76 304.149 146.663C303.776 146.478 303.47 146.327 303.15 146.282C294.134 145.035 285.108 144.313 276.013 145.553C274.653 145.737 273.261 145.688 271.863 145.639C271.218 145.616 270.573 145.593 269.928 145.593C267.489 142.699 266.288 139.363 265.11 135.567C265.557 135.132 266 134.689 266.444 134.244C267.418 133.269 268.4 132.287 269.443 131.377C276.215 125.471 281.776 118.54 286.728 111.093C287.104 110.527 287.381 109.893 287.664 109.246C287.798 108.94 287.934 108.629 288.081 108.323C286.308 104.873 284.193 101.831 281.426 99.0772C269.604 101.524 259.074 106.802 248.575 112.784C246.067 110.564 243.662 108.435 241.196 106.253L239.97 105.167C240.16 104.666 240.333 104.192 240.498 103.737C240.837 102.805 241.146 101.955 241.52 101.137C245.173 93.1533 247.79 84.84 249.408 76.2186C249.64 74.9802 249.745 73.7172 249.85 72.4532C249.897 71.8739 249.946 71.2936 250.006 70.7162C249.704 70.5188 249.404 70.3223 249.107 70.1274C246.021 68.1017 243.192 66.2453 239.898 65.1911C234.935 68.7129 230.666 72.6727 226.864 77.0885C224.164 80.2237 221.583 83.4627 218.988 86.7201C217.845 88.155 216.698 89.5951 215.538 91.0298C214.937 90.8761 214.34 90.7336 213.746 90.592C210.551 89.8305 207.464 89.0947 204.706 86.7885C204.515 75.2665 204.045 63.6661 200.275 52.7666ZM191 241.5C191 247.851 185.852 253 179.5 253C173.149 253 168 247.851 168 241.5C168 235.149 173.149 230 179.5 230C185.852 230 191 235.149 191 241.5ZM242.499 167.399C248.85 167.399 253.5 172.548 253.5 178.899C253.5 185.25 248.851 189.5 242.5 189.5C236.149 189.5 231.5 185.25 231.5 178.899C231.5 172.548 236.148 167.399 242.499 167.399ZM116.5 167.5C122.851 167.5 127.5 171.649 127.5 178C127.5 184.351 122.853 189.601 116.502 189.601C110.151 189.601 105.5 184.351 105.5 178C105.5 171.649 110.149 167.5 116.5 167.5ZM191 115.5C191 121.851 185.852 127 179.5 127C173.149 127 168 121.851 168 115.5C168 109.149 173.149 104 179.5 104C185.852 104 191 109.149 191 115.5Z" fill="#35383B"/>
<circle cx="179.5" cy="178.5" r="10.5" fill="white" stroke="white" stroke-width="2"/>
<circle cx="179" cy="179" r="19" stroke="white" stroke-width="2"/>
<circle cx="179.5" cy="178.5" r="41.5" stroke="white" stroke-width="2"/>
<path d="M179.5 104.5C185.575 104.5 190.5 109.425 190.5 115.5C190.5 121.575 185.575 126.5 179.5 126.5C173.425 126.5 168.5 121.575 168.5 115.5C168.5 109.425 173.425 104.5 179.5 104.5ZM179.5 108.5C175.634 108.5 172.5 111.634 172.5 115.5C172.5 119.366 175.634 122.5 179.5 122.5C183.366 122.5 186.5 119.366 186.5 115.5C186.5 111.634 183.366 108.5 179.5 108.5Z" fill="#35383B" stroke="white"/>
<path d="M116.5 167.5C122.575 167.5 127.5 172.425 127.5 178.5C127.5 184.575 122.575 189.5 116.5 189.5C110.425 189.5 105.5 184.575 105.5 178.5C105.5 172.425 110.425 167.5 116.5 167.5ZM116.5 171.5C112.634 171.5 109.5 174.634 109.5 178.5C109.5 182.366 112.634 185.5 116.5 185.5C120.366 185.5 123.5 182.366 123.5 178.5C123.5 174.634 120.366 171.5 116.5 171.5Z" fill="#35383B" stroke="white"/>
<path d="M242.5 167.5C248.575 167.5 253.5 172.425 253.5 178.5C253.5 184.575 248.575 189.5 242.5 189.5C236.425 189.5 231.5 184.575 231.5 178.5C231.5 172.425 236.425 167.5 242.5 167.5ZM242.5 171.5C238.634 171.5 235.5 174.634 235.5 178.5C235.5 182.366 238.634 185.5 242.5 185.5C246.366 185.5 249.5 182.366 249.5 178.5C249.5 174.634 246.366 171.5 242.5 171.5Z" fill="#35383B" stroke="white"/>
<path d="M179.5 230.5C185.575 230.5 190.5 235.425 190.5 241.5C190.5 247.575 185.575 252.5 179.5 252.5C173.425 252.5 168.5 247.575 168.5 241.5C168.5 235.425 173.425 230.5 179.5 230.5ZM179.5 234.5C175.634 234.5 172.5 237.634 172.5 241.5C172.5 245.366 175.634 248.5 179.5 248.5C183.366 248.5 186.5 245.366 186.5 241.5C186.5 237.634 183.366 234.5 179.5 234.5Z" fill="#35383B" stroke="white"/>
</g>
<rect x="667" y="78" width="149" height="77" fill="#35383B" stroke="white" stroke-width="2"/>
<rect x="670.5" y="81.5" width="142" height="70" rx="2.5" fill="#35383B" stroke="white"/>
<path d="M667 155H666C659.925 155 655 150.075 655 144V91L655.004 90.6641C655.174 83.974 660.398 78.5403 667 78.0381V155Z" fill="#35383B" stroke="white" stroke-width="2"/>
<line x1="678" y1="148.006" x2="678" y2="85.0063" stroke="white" stroke-width="2"/>
<line x1="686" y1="148.006" x2="686" y2="85.0063" stroke="white" stroke-width="2"/>
<line x1="694" y1="148.006" x2="694" y2="85.0063" stroke="white" stroke-width="2"/>
<line x1="702" y1="148.006" x2="702" y2="85.0063" stroke="white" stroke-width="2"/>
<rect x="518" y="102" width="137" height="29" fill="#35383B" stroke="white" stroke-width="2"/>
<line x1="578" y1="106.5" x2="656" y2="106.5" stroke="white"/>
<line x1="594" y1="110.5" x2="656" y2="110.5" stroke="white"/>
<line x1="608" y1="114.5" x2="656" y2="114.5" stroke="white"/>
<path d="M477 115.955C477 104.08 487.723 95.0837 499.417 97.1475L526 101.838V131.127L498.695 134.875C487.223 136.45 477 127.535 477 115.955ZM497 105C490.925 105 486 109.925 486 116C486 122.075 490.925 127 497 127C503.075 127 508 122.075 508 116C508 109.925 503.075 105 497 105Z" fill="#35383B" stroke="white" stroke-width="2"/>
<rect x="201" y="102.148" width="137" height="29" fill="#35383B" stroke="white" stroke-width="2"/>
<path d="M160 116.104C160 104.228 170.723 95.2322 182.417 97.2959L209 101.986V131.275L181.695 135.023C170.223 136.598 160 127.683 160 116.104ZM180 105.148C173.925 105.148 169 110.073 169 116.148C169 122.224 173.925 127.148 180 127.148C186.075 127.148 191 122.224 191 116.148C191 110.073 186.075 105.148 180 105.148Z" fill="#35383B" stroke="white" stroke-width="2"/>
<rect x="-1" y="1" width="137" height="29" transform="matrix(-1 0 0 1 474 101.148)" fill="#35383B" stroke="white" stroke-width="2"/>
<path d="M516 116.104C516 104.228 505.277 95.2322 493.583 97.2959L467 101.986V131.275L494.305 135.023C505.777 136.598 516 127.683 516 116.104ZM496 105.148C502.075 105.148 507 110.073 507 116.148C507 122.224 502.075 127.148 496 127.148C489.925 127.148 485 122.224 485 116.148C485 110.073 489.925 105.148 496 105.148Z" fill="#35383B" stroke="white" stroke-width="2"/>
<path d="M191.374 109.433V122.566L180 129.134L168.626 122.566V109.433L180 102.865L191.374 109.433Z" fill="#35383B" stroke="white" stroke-width="1.5"/>
<path d="M507.374 109.433V122.566L496 129.134L484.626 122.566V109.433L496 102.865L507.374 109.433Z" fill="#35383B" stroke="white" stroke-width="1.5"/>
</svg>
