<svg xmlns="http://www.w3.org/2000/svg" viewBox="-26.1 -9.8 49.1 64.9" fill="none">
  <path d="M18.99 19.57C17.80 26.06 14.66 51.11 14.66 51.11C14.63 51.10 3.48 48.36 -3.00 47.33C-9.48 46.31 -24.04 51.08 -24.10 51.11C-24.09 51.05 -22.03 38.08 -21.27 26.72C-20.50 15.34 -18.87 -5.62 -18.87 -5.67L1.22 -7.78L16.11 -0.62L18.99 19.57ZM1.72 1.12C2.45 0.44 2.49 -0.70 1.81 -1.43C1.13 -2.16 -0.01 -2.20 -0.74 -1.52C-1.47 -0.84 -1.51 0.30 -0.83 1.03C-0.15 1.76 0.99 1.80 1.72 1.12Z" fill="#35383B" stroke="white" stroke-width="1"/>
  <path d="M-5.96 39.43C-6.15 39.80 -6.40 40.09 -6.71 40.32C-7.01 40.54 -7.36 40.70 -7.76 40.82C-7.99 40.71 -8.18 40.54 -8.33 40.33C-8.48 40.11 -8.60 39.87 -8.70 39.62C-8.79 39.35 -8.86 39.08 -8.91 38.79C-8.95 38.50 -8.99 38.22 -9.02 37.95C-8.99 37.90 -8.99 37.87 -9.01 37.87C-9.03 37.87 -9.02 37.85 -8.98 37.81C-9.04 37.47 -9.10 37.08 -9.15 36.65C-9.21 36.21 -9.20 35.75 -9.13 35.28C-9.16 35.21 -9.17 35.13 -9.16 35.04C-9.16 34.95 -9.16 34.85 -9.15 34.75C-9.14 34.65 -9.13 34.56 -9.12 34.47C-9.12 34.38 -9.13 34.30 -9.15 34.23C-9.08 34.18 -9.03 34.10 -9.00 34.00C-8.98 33.89 -8.93 33.78 -8.84 33.67C-8.82 33.64 -8.84 33.63 -8.88 33.67C-8.93 33.70 -8.96 33.69 -8.97 33.64C-8.96 33.53 -8.92 33.43 -8.86 33.34C-8.79 33.25 -8.72 33.18 -8.64 33.11C-8.57 33.04 -8.51 32.97 -8.45 32.91C-8.38 32.84 -8.35 32.77 -8.34 32.69C-8.23 32.62 -8.13 32.53 -8.03 32.43C-7.93 32.32 -7.84 32.22 -7.74 32.13C-7.64 32.03 -7.53 31.95 -7.41 31.90C-7.30 31.84 -7.17 31.81 -7.04 31.83C-6.98 31.84 -6.95 31.83 -6.93 31.78C-6.92 31.74 -6.89 31.71 -6.84 31.69C-6.51 31.72 -6.22 31.80 -5.99 31.94C-5.75 32.07 -5.54 32.24 -5.35 32.43C-5.17 32.62 -4.99 32.83 -4.83 33.04C-4.67 33.25 -4.49 33.45 -4.30 33.63C-4.15 33.54 -4.01 33.43 -3.88 33.30C-3.76 33.17 -3.64 33.03 -3.51 32.90C-3.39 32.76 -3.26 32.64 -3.12 32.52C-2.99 32.40 -2.84 32.30 -2.68 32.22C-2.62 32.20 -2.58 32.14 -2.55 32.06C-2.44 32.04 -2.32 32.01 -2.20 31.98C-2.09 31.94 -1.97 31.90 -1.86 31.86C-1.76 31.83 -1.66 31.81 -1.58 31.81C-1.50 31.81 -1.43 31.83 -1.38 31.89C-1.34 31.83 -1.28 31.81 -1.20 31.80C-1.12 31.80 -1.06 31.81 -1.02 31.82C-0.79 32.04 -0.63 32.20 -0.54 32.28C-0.45 32.36 -0.38 32.42 -0.34 32.46C-0.30 32.50 -0.26 32.54 -0.23 32.58C-0.19 32.62 -0.13 32.71 -0.03 32.85C0.21 33.36 0.42 33.89 0.61 34.44C0.79 34.98 0.89 35.53 0.91 36.10C0.97 36.15 1.02 36.23 1.04 36.32C1.08 36.41 1.11 36.50 1.13 36.62C1.14 36.73 1.15 36.85 1.16 36.98C1.17 37.10 1.17 37.21 1.18 37.31C1.16 37.35 1.12 37.38 1.08 37.38C1.04 37.38 1.01 37.40 0.99 37.44C1.10 37.46 1.15 37.52 1.14 37.61C1.14 37.69 1.11 37.79 1.05 37.92C1.00 38.04 0.92 38.16 0.83 38.29C0.73 38.42 0.64 38.53 0.56 38.62C0.64 38.68 0.72 38.74 0.80 38.82C0.89 38.90 0.94 38.97 0.97 39.05C0.94 39.17 0.92 39.27 0.90 39.33C0.89 39.38 0.91 39.44 0.96 39.50C0.91 39.57 0.87 39.62 0.82 39.65C0.78 39.68 0.73 39.71 0.68 39.75C0.64 39.78 0.61 39.82 0.58 39.86C0.54 39.90 0.50 39.97 0.46 40.06C0.42 40.03 0.35 40.04 0.25 40.08C0.15 40.11 0.08 40.17 0.06 40.25C-0.01 40.20 -0.10 40.21 -0.22 40.28C-0.34 40.35 -0.48 40.40 -0.63 40.43C-0.69 40.41 -0.76 40.40 -0.82 40.40C-0.89 40.38 -0.96 40.37 -1.01 40.35C-1.07 40.33 -1.12 40.30 -1.17 40.27C-1.21 40.24 -1.24 40.19 -1.25 40.12C-1.37 40.12 -1.48 40.14 -1.60 40.20C-1.65 40.11 -1.73 40.05 -1.81 40.01C-1.91 39.98 -2.01 39.94 -2.11 39.92C-2.20 39.88 -2.30 39.84 -2.38 39.79C-2.48 39.75 -2.56 39.68 -2.61 39.59C-2.64 39.61 -2.66 39.62 -2.68 39.64C-2.70 39.66 -2.74 39.66 -2.78 39.66C-3.00 39.50 -3.18 39.39 -3.33 39.32C-3.48 39.25 -3.63 39.19 -3.78 39.15C-3.93 39.10 -4.09 39.05 -4.26 38.99C-4.43 38.94 -4.64 38.84 -4.89 38.71C-5.05 38.70 -5.20 38.67 -5.32 38.61C-5.44 38.56 -5.56 38.50 -5.67 38.44C-5.79 38.38 -5.92 38.32 -6.06 38.28C-6.19 38.24 -6.35 38.23 -6.53 38.25C-6.53 38.41 -6.49 38.52 -6.40 38.60C-6.32 38.68 -6.20 38.73 -6.05 38.76C-5.98 38.85 -5.96 38.96 -5.97 39.09C-5.99 39.21 -5.99 39.33 -5.96 39.43ZM-2.75 33.70C-2.98 34.03 -3.12 34.33 -3.19 34.62C-3.25 34.90 -3.27 35.17 -3.25 35.44C-3.24 35.69 -3.21 35.94 -3.16 36.19C-3.11 36.43 -3.08 36.67 -3.06 36.91C-2.77 37.06 -2.44 37.21 -2.08 37.38C-1.72 37.54 -1.37 37.70 -1.03 37.85C-1.04 37.52 -1.08 37.21 -1.14 36.93C-1.21 36.65 -1.28 36.38 -1.37 36.11C-1.46 35.85 -1.55 35.59 -1.63 35.33C-1.73 35.08 -1.81 34.81 -1.89 34.54C-1.99 34.50 -2.07 34.43 -2.13 34.34C-2.18 34.24 -2.23 34.14 -2.28 34.05C-2.33 33.95 -2.39 33.87 -2.46 33.80C-2.53 33.72 -2.62 33.69 -2.75 33.70ZM-7.10 34.24C-7.18 34.80 -7.18 35.36 -7.12 35.91C-7.05 36.47 -6.92 36.94 -6.73 37.34C-6.56 37.17 -6.41 37.00 -6.27 36.82C-6.13 36.63 -5.96 36.50 -5.75 36.42C-5.88 35.96 -6.06 35.56 -6.29 35.21C-6.53 34.86 -6.80 34.53 -7.10 34.24ZM0.99 24.32C1.14 24.39 1.29 24.49 1.44 24.61C1.58 24.73 1.71 24.86 1.83 25.02C1.93 25.17 2.02 25.33 2.08 25.51C2.15 25.69 2.17 25.88 2.16 26.07C2.13 26.19 2.09 26.27 2.04 26.31C2.01 26.34 1.98 26.38 1.95 26.42C1.93 26.45 1.91 26.47 1.90 26.50C1.88 26.52 1.87 26.53 1.86 26.55L1.77 26.71L1.60 26.63C1.53 26.61 1.48 26.61 1.44 26.63C1.39 26.66 1.32 26.70 1.24 26.78C1.21 26.80 1.18 26.83 1.15 26.85C1.12 26.88 1.09 26.90 1.07 26.91L0.78 27.12L0.73 26.74C0.68 26.51 0.62 26.35 0.52 26.27C0.43 26.18 0.27 26.13 0.03 26.13C-0.02 26.30 -0.04 26.46 -0.03 26.59C-0.01 26.71 0.01 26.83 0.03 26.96C0.06 27.13 0.08 27.30 0.10 27.48C0.12 27.64 0.11 27.83 0.09 28.03C0.08 28.10 0.08 28.17 0.07 28.23C0.06 28.29 0.04 28.36 0.03 28.43L-0.02 28.57C-0.12 28.57 -0.17 28.59 -0.18 28.60C-0.20 28.62 -0.22 28.64 -0.24 28.65C-0.29 28.69 -0.36 28.74 -0.44 28.79C-0.52 28.82 -0.62 28.82 -0.74 28.79C-0.82 28.82 -0.91 28.84 -0.99 28.84C-0.89 28.91 -0.78 28.96 -0.66 29.00L-0.53 29.07L-0.52 29.20C-0.51 29.22 -0.49 29.24 -0.45 29.25C-0.43 29.26 -0.40 29.27 -0.39 29.27L-0.16 29.36C-0.14 29.38 -0.13 29.40 -0.11 29.42C-0.10 29.44 -0.09 29.46 -0.08 29.48C0.00 29.51 0.08 29.54 0.16 29.57C0.24 29.61 0.32 29.64 0.39 29.68C0.50 29.73 0.61 29.79 0.73 29.83C0.83 29.87 0.94 29.89 1.05 29.89L1.20 29.96C1.25 30.01 1.29 30.07 1.32 30.12C1.34 30.18 1.36 30.24 1.38 30.30C1.40 30.32 1.41 30.34 1.43 30.38C1.44 30.41 1.44 30.43 1.45 30.45L1.60 30.51L1.61 30.68C1.62 30.78 1.62 30.85 1.63 30.90C1.63 30.93 1.63 30.98 1.63 31.03L1.60 31.17C1.51 31.26 1.44 31.33 1.39 31.38C1.33 31.43 1.27 31.49 1.22 31.56C1.10 31.63 1.02 31.67 0.96 31.67C0.91 31.67 0.85 31.68 0.81 31.68C0.75 31.69 0.71 31.70 0.67 31.70C0.63 31.70 0.60 31.71 0.58 31.73L0.40 31.89L0.30 31.73L0.07 31.69C-0.38 31.47 -0.81 31.23 -1.21 30.99C-1.62 30.74 -2.03 30.49 -2.46 30.22C-2.59 30.14 -2.73 30.06 -2.87 29.98C-3.01 29.89 -3.15 29.81 -3.29 29.72C-3.31 29.72 -3.35 29.73 -3.38 29.72C-3.42 29.72 -3.46 29.71 -3.50 29.68C-3.65 29.57 -3.78 29.47 -3.89 29.40C-4.01 29.32 -4.13 29.25 -4.25 29.17C-4.40 29.08 -4.54 29.00 -4.68 28.91C-4.82 28.81 -4.96 28.70 -5.10 28.57L-5.17 28.34C-5.18 28.31 -5.18 28.28 -5.19 28.24C-5.20 28.20 -5.21 28.16 -5.21 28.12L-5.16 27.92C-5.25 27.65 -5.39 27.41 -5.58 27.20C-5.78 26.99 -6.02 26.77 -6.30 26.54L-6.48 26.39L-6.35 26.22C-6.32 26.18 -6.29 26.12 -6.25 26.04C-6.23 25.96 -6.20 25.87 -6.16 25.79C-6.11 25.63 -6.05 25.47 -5.99 25.33C-5.93 25.19 -5.85 25.08 -5.75 25.00C-5.60 24.96 -5.49 24.94 -5.42 24.94C-5.34 24.94 -5.27 24.93 -5.20 24.92C-5.04 24.91 -4.88 24.90 -4.73 24.89C-4.57 24.88 -4.40 24.88 -4.20 24.89C-4.05 24.86 -3.89 24.84 -3.73 24.83C-3.58 24.80 -3.43 24.79 -3.27 24.78C-3.05 24.75 -2.83 24.73 -2.62 24.70C-2.42 24.68 -2.22 24.63 -2.03 24.58C-2.02 24.51 -2.02 24.46 -2.00 24.44C-2.02 24.40 -2.03 24.35 -2.03 24.30C-2.04 24.25 -2.04 24.19 -2.04 24.12L-2.04 23.97L-1.90 23.93C-1.85 23.93 -1.80 23.89 -1.75 23.81C-1.73 23.69 -1.69 23.61 -1.64 23.56C-1.60 23.51 -1.56 23.46 -1.51 23.42C-1.47 23.39 -1.44 23.35 -1.41 23.32L-1.31 23.12L-1.12 23.25C-0.97 23.36 -0.82 23.51 -0.68 23.69C-0.55 23.87 -0.45 24.07 -0.37 24.29C-0.31 24.28 -0.26 24.29 -0.20 24.29C-0.16 24.29 -0.11 24.28 -0.05 24.26C0.11 24.25 0.27 24.24 0.43 24.24C0.60 24.24 0.77 24.26 0.94 24.29L0.99 24.32ZM-1.75 28.03C-1.74 27.75 -1.73 27.51 -1.73 27.29C-1.74 27.06 -1.75 26.80 -1.78 26.53C-2.06 26.56 -2.35 26.60 -2.64 26.65C-2.95 26.69 -3.25 26.74 -3.55 26.79L-3.42 26.89C-3.25 27.09 -3.05 27.29 -2.84 27.48C-2.62 27.67 -2.41 27.83 -2.21 27.97C-2.13 28.03 -2.06 28.09 -1.98 28.16C-1.90 28.22 -1.83 28.28 -1.75 28.33C-1.75 28.27 -1.75 28.22 -1.75 28.18C-1.74 28.12 -1.74 28.07 -1.75 28.03ZM2.80 17.88C2.79 18.02 2.77 18.20 2.73 18.42C2.69 18.63 2.70 18.83 2.77 19.01C2.70 19.49 2.60 19.98 2.45 20.47C2.30 20.96 2.13 21.40 1.95 21.81C1.84 21.89 1.74 21.97 1.65 22.05C1.55 22.13 1.47 22.25 1.42 22.40C1.23 22.60 1.00 22.76 0.74 22.87C0.48 22.98 0.20 23.06 -0.09 23.12C-0.38 23.17 -0.67 23.20 -0.96 23.20C-1.27 23.20 -1.55 23.18 -1.82 23.14C-2.22 22.97 -2.55 22.74 -2.82 22.47C-3.09 22.19 -3.36 21.90 -3.62 21.61C-3.67 21.48 -3.71 21.39 -3.76 21.33C-3.82 21.26 -3.87 21.20 -3.91 21.13C-3.96 21.05 -4.00 20.98 -4.04 20.91C-4.09 20.83 -4.14 20.76 -4.21 20.70C-4.24 20.50 -4.28 20.34 -4.35 20.19C-4.43 20.04 -4.51 19.89 -4.58 19.74C-4.67 19.60 -4.75 19.45 -4.82 19.30C-4.88 19.14 -4.93 18.97 -4.96 18.77C-5.03 18.69 -5.09 18.60 -5.12 18.50C-5.17 18.39 -5.21 18.29 -5.24 18.18C-5.29 18.07 -5.33 17.96 -5.38 17.87C-5.42 17.76 -5.49 17.68 -5.57 17.61C-5.50 17.58 -5.46 17.51 -5.47 17.43C-5.49 17.35 -5.51 17.27 -5.53 17.19C-5.54 17.15 -5.52 17.11 -5.49 17.09C-5.46 17.05 -5.43 17.02 -5.40 17.00C-5.37 16.97 -5.35 16.95 -5.34 16.94C-5.34 16.91 -5.36 16.88 -5.40 16.86C-5.40 16.82 -5.37 16.81 -5.33 16.83C-5.29 16.85 -5.26 16.87 -5.24 16.88C-5.24 16.80 -5.22 16.75 -5.17 16.71C-5.13 16.66 -5.10 16.58 -5.08 16.47C-5.03 16.44 -4.99 16.43 -4.96 16.45C-4.95 16.47 -4.91 16.48 -4.86 16.49C-4.75 16.22 -4.60 16.06 -4.41 16.01C-4.23 15.95 -4.05 15.97 -3.87 16.05C-3.68 16.13 -3.52 16.26 -3.37 16.44C-3.22 16.62 -3.13 16.81 -3.10 17.00C-3.02 17.45 -2.93 17.88 -2.82 18.28C-2.72 18.67 -2.55 19.01 -2.30 19.28C-2.26 19.50 -2.19 19.71 -2.10 19.89C-2.01 20.06 -1.91 20.23 -1.79 20.40C-1.68 20.56 -1.56 20.71 -1.42 20.86C-1.30 21.00 -1.18 21.15 -1.05 21.31C-0.93 21.31 -0.83 21.34 -0.76 21.41C-0.70 21.46 -0.64 21.51 -0.57 21.56C-0.43 21.56 -0.31 21.54 -0.19 21.50C-0.09 21.47 0.01 21.43 0.12 21.38C0.36 20.80 0.53 20.18 0.64 19.51C0.76 18.83 0.85 18.16 0.92 17.48C1.02 17.42 1.11 17.36 1.20 17.28C1.29 17.20 1.38 17.13 1.47 17.06C1.56 17.00 1.66 16.95 1.78 16.91C1.88 16.88 2.01 16.88 2.16 16.92C2.28 17.06 2.40 17.22 2.50 17.38C2.59 17.55 2.69 17.71 2.80 17.88ZM3.22 8.12C3.20 8.56 3.15 8.95 3.08 9.28C3.01 9.60 2.90 9.92 2.73 10.22C2.72 10.24 2.69 10.25 2.66 10.27C2.62 10.28 2.59 10.30 2.57 10.31C2.54 10.37 2.52 10.43 2.52 10.52C2.51 10.59 2.50 10.65 2.48 10.70C2.43 10.77 2.35 10.88 2.24 11.02C2.11 11.17 2.00 11.30 1.90 11.42C1.76 11.57 1.61 11.71 1.47 11.84C1.33 11.98 1.18 12.09 1.03 12.18C0.99 12.21 0.97 12.24 0.96 12.29C0.95 12.33 0.93 12.37 0.91 12.41C1.05 12.69 1.23 12.93 1.46 13.13C1.68 13.34 1.92 13.53 2.15 13.72C2.39 13.91 2.62 14.11 2.83 14.31C3.04 14.51 3.18 14.76 3.28 15.05C3.27 15.13 3.25 15.21 3.21 15.27C3.18 15.33 3.14 15.38 3.09 15.43C3.05 15.48 3.00 15.54 2.96 15.59C2.92 15.64 2.89 15.69 2.86 15.75C2.76 15.74 2.65 15.76 2.56 15.79C2.46 15.82 2.37 15.85 2.29 15.89C2.20 15.92 2.12 15.94 2.05 15.95C1.96 15.96 1.89 15.94 1.82 15.87C1.76 15.92 1.70 16.00 1.62 16.10C1.57 16.04 1.52 16.01 1.48 16.02C1.43 16.01 1.39 16.02 1.34 16.03C1.29 16.05 1.24 16.06 1.18 16.07C1.13 16.08 1.08 16.06 1.03 16.02C1.03 15.97 1.03 15.92 1.01 15.85C0.94 15.90 0.89 15.92 0.88 15.92C0.87 15.91 0.84 15.92 0.81 15.94C0.76 15.95 0.73 15.94 0.72 15.90C0.71 15.87 0.69 15.83 0.68 15.79C0.24 15.71 -0.17 15.59 -0.54 15.44C-0.91 15.28 -1.26 15.12 -1.60 14.94C-1.94 14.76 -2.29 14.58 -2.64 14.41C-2.99 14.23 -3.36 14.07 -3.77 13.94C-3.86 13.83 -3.97 13.74 -4.10 13.68C-4.23 13.60 -4.36 13.52 -4.49 13.45C-4.62 13.36 -4.75 13.27 -4.87 13.18C-4.99 13.07 -5.09 12.94 -5.16 12.78C-5.14 12.65 -5.09 12.54 -5.02 12.45C-4.95 12.35 -4.92 12.23 -4.91 12.09C-4.86 12.06 -4.82 12.05 -4.77 12.03C-4.72 12.01 -4.67 11.98 -4.62 11.95L-4.64 11.74C-4.55 11.65 -4.44 11.57 -4.31 11.51C-4.18 11.44 -4.05 11.40 -3.91 11.39C-3.77 11.38 -3.64 11.39 -3.52 11.44C-3.40 11.49 -3.31 11.58 -3.26 11.73C-3.21 11.72 -3.17 11.73 -3.15 11.74C-3.13 11.74 -3.11 11.75 -3.09 11.76C-3.08 11.77 -3.06 11.77 -3.04 11.77C-3.02 11.78 -2.99 11.77 -2.95 11.74C-2.84 11.94 -2.66 12.09 -2.42 12.21C-2.19 12.32 -1.97 12.39 -1.78 12.42C-1.88 12.30 -1.98 12.17 -2.06 12.04C-2.16 11.89 -2.25 11.74 -2.34 11.60C-2.42 11.44 -2.50 11.30 -2.58 11.16C-2.66 11.02 -2.74 10.88 -2.82 10.77C-3.06 10.44 -3.25 10.13 -3.39 9.85C-3.53 9.55 -3.70 9.23 -3.87 8.91C-3.89 8.83 -3.88 8.78 -3.86 8.74C-3.85 8.70 -3.83 8.65 -3.80 8.61C-3.86 8.60 -3.89 8.62 -3.91 8.66C-3.92 8.68 -3.95 8.69 -4.02 8.67C-4.04 8.53 -4.07 8.41 -4.10 8.31C-4.15 8.20 -4.19 8.09 -4.22 7.96C-4.13 7.89 -4.04 7.82 -3.94 7.76C-3.85 7.69 -3.79 7.60 -3.76 7.47C-3.66 7.44 -3.58 7.39 -3.52 7.33C-3.46 7.27 -3.41 7.21 -3.36 7.16C-3.31 7.10 -3.25 7.05 -3.18 7.01C-3.11 6.96 -3.01 6.94 -2.87 6.94C-2.81 6.98 -2.75 7.03 -2.68 7.08C-2.61 7.13 -2.53 7.17 -2.43 7.22C-2.29 7.42 -2.16 7.62 -2.05 7.82C-1.94 8.01 -1.84 8.21 -1.74 8.41C-1.64 8.61 -1.54 8.82 -1.44 9.03C-1.34 9.24 -1.22 9.46 -1.08 9.69C-1.02 9.74 -0.97 9.80 -0.92 9.88C-0.88 9.95 -0.84 10.02 -0.79 10.10C-0.75 10.17 -0.71 10.25 -0.66 10.32C-0.61 10.39 -0.55 10.44 -0.48 10.48C-0.48 10.51 -0.48 10.54 -0.48 10.57C-0.48 10.59 -0.48 10.62 -0.47 10.65C-0.41 10.68 -0.37 10.73 -0.34 10.80C-0.31 10.86 -0.26 10.90 -0.20 10.92C0.11 10.82 0.35 10.66 0.52 10.46C0.70 10.26 0.83 10.02 0.93 9.76C1.02 9.49 1.09 9.20 1.13 8.88C1.16 8.57 1.19 8.23 1.22 7.89C1.22 7.85 1.20 7.84 1.17 7.84C1.14 7.84 1.13 7.82 1.14 7.77C1.23 7.56 1.35 7.40 1.50 7.30C1.64 7.19 1.78 7.06 1.92 6.91C2.27 6.97 2.54 7.10 2.75 7.31C2.96 7.52 3.12 7.79 3.22 8.12Z" fill="white"/>
</svg>