<svg width="109" height="594" viewBox="0 0 109 594" fill="none" xmlns="http://www.w3.org/2000/svg">
<line x1="57.4688" y1="339.011" x2="57.4951" y2="4.42934e-05" stroke="white" stroke-width="2"/>
<rect x="41.4688" y="340.011" width="33" height="139" rx="16" fill="#35383B" stroke="white" stroke-width="2"/>
<path d="M54.4193 500.196L53.368 489.327L58.2179 479.543" stroke="white"/>
<mask id="path-4-inside-1_85_15606" fill="white">
<path d="M79.8021 525.914C88.5651 539.515 100.96 561.509 101.018 561.612C100.906 561.651 83.4215 567.654 73.241 572.967C63.0276 578.297 48.4425 588.944 48.4425 588.944C48.3853 588.843 36.308 567.367 27.7679 554.087C19.2075 540.774 4.02988 520.013 4.02988 520.013L56.064 491.841C56.064 491.841 71.0185 512.281 79.8021 525.914ZM56.2899 501.228C56.5395 499.87 55.6413 498.567 54.2835 498.318C52.9256 498.068 51.6229 498.966 51.3732 500.324C51.1235 501.682 52.0211 502.985 53.3788 503.235C54.7367 503.485 56.0402 502.586 56.2899 501.228Z"/>
</mask>
<path d="M79.8021 525.914C88.5651 539.515 100.96 561.509 101.018 561.612C100.906 561.651 83.4215 567.654 73.241 572.967C63.0276 578.297 48.4425 588.944 48.4425 588.944C48.3853 588.843 36.308 567.367 27.7679 554.087C19.2075 540.774 4.02988 520.013 4.02988 520.013L56.064 491.841C56.064 491.841 71.0185 512.281 79.8021 525.914ZM56.2899 501.228C56.5395 499.87 55.6413 498.567 54.2835 498.318C52.9256 498.068 51.6229 498.966 51.3732 500.324C51.1235 501.682 52.0211 502.985 53.3788 503.235C54.7367 503.485 56.0402 502.586 56.2899 501.228Z" fill="#35383B"/>
<path d="M79.8021 525.914L80.6427 525.372V525.372L79.8021 525.914ZM101.018 561.612L101.343 562.558L102.479 562.168L101.889 561.122L101.018 561.612ZM73.241 572.967L72.7783 572.08L72.7783 572.08L73.241 572.967ZM48.4425 588.944L47.5709 589.435L48.1227 590.416L49.0321 589.752L48.4425 588.944ZM27.7679 554.087L28.6091 553.546L28.6091 553.546L27.7679 554.087ZM4.02988 520.013L3.55376 519.134L2.54683 519.679L3.2226 520.603L4.02988 520.013ZM56.064 491.841L56.8711 491.25L56.3556 490.546L55.5879 490.961L56.064 491.841ZM56.2899 501.228L57.2734 501.409L57.2734 501.409L56.2899 501.228ZM54.2835 498.318L54.4644 497.334L54.4644 497.334L54.2835 498.318ZM51.3732 500.324L50.3897 500.143L50.3897 500.143L51.3732 500.324ZM53.3788 503.235L53.1977 504.218L53.1979 504.218L53.3788 503.235ZM79.8021 525.914L78.9615 526.456C87.7056 540.027 100.086 561.995 100.147 562.103L101.018 561.612L101.889 561.122C101.834 561.024 89.4246 539.003 80.6427 525.372L79.8021 525.914ZM101.018 561.612L100.694 560.667C100.597 560.7 83.0379 566.726 72.7783 572.08L73.241 572.967L73.7036 573.853C83.8051 568.582 101.215 562.602 101.343 562.558L101.018 561.612ZM73.241 572.967L72.7783 572.08C67.6188 574.773 61.3804 578.794 56.4517 582.126C53.9829 583.795 51.8345 585.297 50.303 586.381C49.5372 586.924 48.9255 587.362 48.5048 587.665C48.2945 587.817 48.1319 587.934 48.0217 588.014C47.9666 588.054 47.9246 588.085 47.8963 588.105C47.8821 588.116 47.8714 588.123 47.8641 588.129C47.8605 588.131 47.8577 588.133 47.8558 588.135C47.8549 588.135 47.8542 588.136 47.8537 588.136C47.8535 588.136 47.8533 588.137 47.8531 588.137C47.853 588.137 47.8529 588.137 48.4425 588.944C49.0321 589.752 49.0322 589.752 49.0322 589.752C49.0323 589.752 49.0325 589.752 49.0327 589.752C49.0331 589.751 49.0337 589.751 49.0345 589.75C49.0362 589.749 49.0387 589.747 49.0421 589.745C49.049 589.74 49.0593 589.732 49.0731 589.722C49.1006 589.702 49.1417 589.672 49.1959 589.633C49.3044 589.554 49.4651 589.438 49.6735 589.288C50.0904 588.988 50.6979 588.553 51.459 588.014C52.9815 586.935 55.1177 585.442 57.5718 583.783C62.489 580.459 68.6498 576.491 73.7036 573.853L73.241 572.967ZM48.4425 588.944L49.3142 588.454C49.2598 588.358 37.168 566.856 28.6091 553.546L27.7679 554.087L26.9268 554.628C35.4481 567.879 47.5108 589.328 47.5709 589.435L48.4425 588.944ZM27.7679 554.087L28.6091 553.546C24.3157 546.869 18.3701 538.335 13.5043 531.479C11.07 528.049 8.90361 525.036 7.34569 522.879C6.56671 521.801 5.9398 520.938 5.50753 520.343C5.29139 520.046 5.12391 519.816 5.01041 519.66C4.95366 519.583 4.9104 519.523 4.88131 519.483C4.86676 519.464 4.85575 519.448 4.84836 519.438C4.84467 519.433 4.84189 519.43 4.84001 519.427C4.83908 519.426 4.83837 519.425 4.8379 519.424C4.83766 519.424 4.83748 519.423 4.83735 519.423C4.83723 519.423 4.83716 519.423 4.02988 520.013C3.2226 520.603 3.22265 520.603 3.22275 520.604C3.22287 520.604 3.22303 520.604 3.22325 520.604C3.2237 520.605 3.22438 520.606 3.22528 520.607C3.2271 520.61 3.22983 520.613 3.23346 520.618C3.24073 520.628 3.25162 520.643 3.26605 520.663C3.29491 520.702 3.33793 520.761 3.39443 520.839C3.50744 520.994 3.6744 521.223 3.89 521.519C4.3212 522.112 4.94692 522.975 5.7246 524.051C7.28001 526.203 9.44303 529.212 11.8733 532.637C16.7364 539.489 22.6598 547.992 26.9268 554.628L27.7679 554.087ZM4.02988 520.013L4.506 520.893L56.5402 492.72L56.064 491.841L55.5879 490.961L3.55376 519.134L4.02988 520.013ZM56.064 491.841C55.257 492.431 55.257 492.431 55.2571 492.431C55.2572 492.431 55.2574 492.432 55.2576 492.432C55.258 492.433 55.2587 492.433 55.2596 492.435C55.2614 492.437 55.2641 492.441 55.2677 492.446C55.2748 492.455 55.2856 492.47 55.2998 492.49C55.3282 492.529 55.3706 492.587 55.4263 492.663C55.5377 492.816 55.7024 493.042 55.9152 493.334C56.3407 493.919 56.9585 494.77 57.7275 495.833C59.2654 497.961 61.4075 500.94 63.8237 504.344C68.6587 511.156 74.5824 519.659 78.9615 526.456L79.8021 525.914L80.6427 525.372C76.2382 518.536 70.2929 510.003 65.4547 503.186C63.0344 499.776 60.8888 496.793 59.3483 494.662C58.5781 493.596 57.959 492.743 57.5324 492.157C57.3191 491.864 57.1539 491.637 57.0419 491.484C56.986 491.407 56.9433 491.349 56.9146 491.31C56.9003 491.29 56.8894 491.275 56.8822 491.265C56.8785 491.26 56.8758 491.257 56.8739 491.254C56.873 491.253 56.8723 491.252 56.8718 491.251C56.8716 491.251 56.8714 491.251 56.8713 491.25C56.8712 491.25 56.8711 491.25 56.064 491.841ZM56.2899 501.228L57.2734 501.409C57.6228 499.508 56.3653 497.684 54.4644 497.334L54.2835 498.318L54.1026 499.301C54.9173 499.451 55.4561 500.233 55.3064 501.047L56.2899 501.228ZM54.2835 498.318L54.4644 497.334C52.5631 496.985 50.7393 498.242 50.3897 500.143L51.3732 500.324L52.3567 500.505C52.5066 499.69 53.288 499.151 54.1026 499.301L54.2835 498.318ZM51.3732 500.324L50.3897 500.143C50.0402 502.044 51.2966 503.868 53.1977 504.218L53.3788 503.235L53.5598 502.252C52.7455 502.102 52.2068 501.32 52.3567 500.505L51.3732 500.324ZM53.3788 503.235L53.1979 504.218C55.0992 504.568 56.9238 503.31 57.2734 501.409L56.2899 501.228L55.3064 501.047C55.1565 501.862 54.3743 502.401 53.5597 502.251L53.3788 503.235Z" fill="white" mask="url(#path-4-inside-1_85_15606)"/>
<path d="M53.6384 527.769L42.6339 534.859L41.803 533.569L46.5796 522.006L46.5104 521.898L37.8701 527.465L37.0115 526.133L48.0161 519.042L48.847 520.332L44.0627 531.931L44.1319 532.038L52.7937 526.458L53.6384 527.769ZM46.2987 540.925C45.7864 540.129 45.5199 539.33 45.4994 538.527C45.4847 537.726 45.694 536.965 46.1273 536.245C46.5664 535.526 47.2087 534.894 48.0541 534.349C48.8995 533.805 49.7438 533.479 50.5871 533.371C51.4363 533.265 52.2207 533.373 52.9402 533.695C53.6656 534.019 54.2684 534.553 54.7485 535.298C55.0254 535.728 55.2273 536.198 55.354 536.71C55.4808 537.221 55.4938 537.753 55.3929 538.304C55.2957 538.854 55.0495 539.4 54.6545 539.944C54.2595 540.487 53.6769 541.007 52.9067 541.503L52.3694 541.849L48.2703 535.487L49.3665 534.781L52.6347 539.854C53.1003 539.553 53.4559 539.193 53.7012 538.771C53.9489 538.353 54.0688 537.906 54.0609 537.429C54.0553 536.956 53.9048 536.49 53.6093 536.032C53.2839 535.527 52.8769 535.171 52.3885 534.963C51.9059 534.757 51.4023 534.684 50.8777 534.743C50.3532 534.802 49.8634 534.978 49.4085 535.271L48.6777 535.742C48.0544 536.144 47.5953 536.591 47.3003 537.086C47.0112 537.581 46.8785 538.095 46.9021 538.627C46.9292 539.157 47.1078 539.678 47.4379 540.191C47.6525 540.524 47.893 540.795 48.1592 541.003C48.4313 541.213 48.7258 541.356 49.0426 541.43C49.363 541.503 49.7011 541.5 50.0569 541.423L50.5024 542.87C50.0037 543.009 49.4987 543.027 48.9873 542.926C48.4795 542.822 47.9935 542.603 47.5295 542.268C47.069 541.931 46.6588 541.483 46.2987 540.925ZM58.6353 541.567L56.5349 545.718L61.1834 545.521L62.1251 546.983L56.2812 546.977L53.8717 552.301L52.93 550.839L54.8585 546.798L50.3819 546.884L49.4403 545.423L55.2564 545.386L57.6937 540.105L58.6353 541.567ZM65.6036 552.382L64.5289 553.074L61.7731 548.797L62.8478 548.105L65.6036 552.382ZM65.6284 548.077L66.4454 549.345L58.5789 554.414C58.2206 554.645 57.9854 554.87 57.8733 555.089C57.767 555.309 57.7365 555.522 57.7817 555.726C57.8329 555.931 57.9185 556.127 58.0385 556.313C58.1285 556.453 58.2095 556.563 58.2816 556.643C58.3572 556.721 58.4177 556.784 58.463 556.83L57.4901 557.822C57.4024 557.757 57.2929 557.658 57.1614 557.525C57.0263 557.394 56.8826 557.21 56.7303 556.973C56.4995 556.615 56.3503 556.215 56.2828 555.771C56.2176 555.332 56.2699 554.898 56.4397 554.469C56.6118 554.044 56.9379 553.676 57.4179 553.367L65.6284 548.077Z" fill="white"/>
<path d="M54.4681 500L59.9674 489.5L58.468 479.543" stroke="white"/>
</svg>
