<svg width="90" height="569" viewBox="0 0 90 569" fill="none" xmlns="http://www.w3.org/2000/svg">
<line x1="53.1396" y1="339.011" x2="53.166" y2="4.42934e-05" stroke="white" stroke-width="2"/>
<rect x="37.1396" y="340.011" width="33" height="139" rx="16" fill="#35383B" stroke="white" stroke-width="2"/>
<path d="M50.0892 500.189L49.0379 489.32L53.8878 479.535" stroke="white"/>
<mask id="path-4-inside-1_92_15624" fill="white">
<path d="M69.0809 519.759C67.8942 526.25 64.7537 551.295 64.7537 551.295C64.7183 551.286 53.566 548.552 47.0862 547.523C40.6105 546.494 26.0522 551.273 25.9871 551.295C25.9966 551.235 28.0588 538.267 28.8212 526.906C29.5845 515.531 31.2189 494.569 31.2227 494.52L51.3059 492.41L66.1979 499.568L69.0809 519.759ZM51.8066 501.307C52.5348 500.628 52.5747 499.488 51.8957 498.759C51.2167 498.031 50.0757 497.991 49.3476 498.67C48.6196 499.349 48.5797 500.49 49.2584 501.218C49.9373 501.946 51.0783 501.986 51.8066 501.307Z"/>
</mask>
<path d="M69.0809 519.759C67.8942 526.25 64.7537 551.295 64.7537 551.295C64.7183 551.286 53.566 548.552 47.0862 547.523C40.6105 546.494 26.0522 551.273 25.9871 551.295C25.9966 551.235 28.0588 538.267 28.8212 526.906C29.5845 515.531 31.2189 494.569 31.2227 494.52L51.3059 492.41L66.1979 499.568L69.0809 519.759ZM51.8066 501.307C52.5348 500.628 52.5747 499.488 51.8957 498.759C51.2167 498.031 50.0757 497.991 49.3476 498.67C48.6196 499.349 48.5797 500.49 49.2584 501.218C49.9373 501.946 51.0783 501.986 51.8066 501.307Z" fill="#35383B"/>
<path d="M69.0809 519.759L70.0646 519.939L70.0938 519.779L70.0708 519.618L69.0809 519.759ZM64.7537 551.295L64.5155 552.266L65.6062 552.534L65.7459 551.419L64.7537 551.295ZM47.0862 547.523L47.243 546.535L47.243 546.535L47.0862 547.523ZM25.9871 551.295L24.9996 551.137L24.742 552.756L26.2992 552.245L25.9871 551.295ZM28.8212 526.906L27.8235 526.839V526.839L28.8212 526.906ZM31.2227 494.52L31.1182 493.525L30.2904 493.612L30.2257 494.442L31.2227 494.52ZM51.3059 492.41L51.7391 491.508L51.4835 491.385L51.2014 491.415L51.3059 492.41ZM66.1979 499.568L67.1878 499.426L67.1124 498.898L66.6311 498.666L66.1979 499.568ZM51.8066 501.307L52.4884 502.039L52.4885 502.039L51.8066 501.307ZM51.8957 498.759L52.6271 498.077L52.627 498.077L51.8957 498.759ZM49.3476 498.67L48.6656 497.939L48.6655 497.939L49.3476 498.67ZM49.2584 501.218L48.5269 501.9L48.527 501.9L49.2584 501.218ZM69.0809 519.759L68.0972 519.579C67.4983 522.855 66.413 530.768 65.4809 537.83C65.0139 541.368 64.5841 544.703 64.271 547.154C64.1145 548.379 63.9871 549.383 63.8989 550.081C63.8548 550.43 63.8204 550.702 63.7971 550.887C63.7854 550.98 63.7765 551.051 63.7706 551.098C63.7676 551.122 63.7653 551.14 63.7638 551.152C63.763 551.158 63.7624 551.163 63.7621 551.166C63.7619 551.167 63.7617 551.169 63.7616 551.169C63.7616 551.17 63.7615 551.17 63.7615 551.17C63.7615 551.17 63.7615 551.171 64.7537 551.295C65.7459 551.419 65.746 551.419 65.746 551.419C65.746 551.419 65.746 551.419 65.7461 551.418C65.7462 551.418 65.7463 551.416 65.7465 551.415C65.7469 551.412 65.7475 551.407 65.7482 551.401C65.7497 551.389 65.752 551.371 65.755 551.348C65.7609 551.3 65.7698 551.229 65.7814 551.137C65.8047 550.952 65.839 550.68 65.8831 550.332C65.9712 549.634 66.0985 548.631 66.2549 547.407C66.5677 544.959 66.9972 541.626 67.4637 538.092C68.3986 531.009 69.4768 523.154 70.0646 519.939L69.0809 519.759ZM64.7537 551.295L64.9919 550.324C64.9678 550.318 53.7721 547.572 47.243 546.535L47.0862 547.523L46.9293 548.51C53.3599 549.531 64.4688 552.255 64.5155 552.266L64.7537 551.295ZM47.0862 547.523L47.243 546.535C45.4785 546.255 43.2391 546.376 40.9344 546.684C38.6118 546.994 36.1468 547.504 33.8995 548.042C29.404 549.121 25.7188 550.33 25.675 550.344L25.9871 551.295L26.2992 552.245C26.3206 552.238 29.947 551.047 34.3659 549.987C36.5757 549.457 38.9685 548.964 41.1989 548.666C43.4472 548.366 45.4559 548.276 46.9293 548.51L47.0862 547.523ZM25.9871 551.295L26.9747 551.452C26.9844 551.391 29.0532 538.384 29.819 526.973L28.8212 526.906L27.8235 526.839C27.0643 538.151 25.0088 551.079 24.9996 551.137L25.9871 551.295ZM28.8212 526.906L29.819 526.973C30.5819 515.605 32.2157 494.649 32.2197 494.597L31.2227 494.52L30.2257 494.442C30.222 494.49 28.5872 515.458 27.8235 526.839L28.8212 526.906ZM31.2227 494.52L31.3272 495.514L51.4104 493.404L51.3059 492.41L51.2014 491.415L31.1182 493.525L31.2227 494.52ZM51.3059 492.41L50.8727 493.311L65.7647 500.469L66.1979 499.568L66.6311 498.666L51.7391 491.508L51.3059 492.41ZM66.1979 499.568L65.2079 499.709L68.0909 519.901L69.0809 519.759L70.0708 519.618L67.1878 499.426L66.1979 499.568ZM51.8066 501.307L52.4885 502.039C53.6207 500.983 53.6828 499.21 52.6271 498.077L51.8957 498.759L51.1643 499.441C51.4667 499.766 51.4489 500.274 51.1246 500.576L51.8066 501.307ZM51.8957 498.759L52.627 498.077C51.5715 496.946 49.7978 496.883 48.6656 497.939L49.3476 498.67L50.0295 499.402C50.3536 499.099 50.8619 499.117 51.1644 499.441L51.8957 498.759ZM49.3476 498.67L48.6655 497.939C47.5337 498.994 47.4718 500.768 48.5269 501.9L49.2584 501.218L49.9899 500.536C49.6877 500.212 49.7055 499.704 50.0296 499.401L49.3476 498.67ZM49.2584 501.218L48.527 501.9C49.5827 503.032 51.3563 503.094 52.4884 502.039L51.8066 501.307L51.1247 500.576C50.8003 500.878 50.292 500.86 49.9898 500.536L49.2584 501.218Z" fill="white" mask="url(#path-4-inside-1_92_15624)"/>
<path d="M44.1282 539.62C43.937 539.986 43.6884 540.282 43.3825 540.509C43.0775 540.727 42.7269 540.894 42.3309 541.011C42.0948 540.897 41.9048 540.732 41.7609 540.516C41.6079 540.3 41.4844 540.064 41.3902 539.807C41.297 539.542 41.2277 539.265 41.1825 538.977C41.1372 538.688 41.1001 538.41 41.0713 538.142C41.0947 538.089 41.0974 538.062 41.0792 538.06C41.0611 538.058 41.0723 538.036 41.113 537.995C41.045 537.658 40.9863 537.273 40.937 536.837C40.8786 536.401 40.8864 535.944 40.9604 535.466C40.9302 535.399 40.9196 535.32 40.9284 535.229C40.9281 535.138 40.9329 535.042 40.9426 534.942C40.9522 534.843 40.9615 534.747 40.9703 534.657C40.9701 534.565 40.9594 534.486 40.9384 534.42C41.0071 534.372 41.0559 534.294 41.0846 534.187C41.1043 534.079 41.1607 533.97 41.2538 533.86C41.2664 533.825 41.2527 533.823 41.2129 533.856C41.164 533.888 41.1327 533.88 41.119 533.833C41.1305 533.715 41.1678 533.614 41.2311 533.528C41.2943 533.443 41.3657 533.367 41.4454 533.302C41.5168 533.226 41.5828 533.159 41.6434 533.101C41.7049 533.034 41.7396 532.959 41.7475 532.878C41.8553 532.806 41.9598 532.72 42.0611 532.62C42.1542 532.51 42.2509 532.409 42.3513 532.318C42.4526 532.218 42.5608 532.142 42.6758 532.089C42.7917 532.027 42.9177 532.002 43.0538 532.016C43.1074 532.03 43.1409 532.015 43.1544 531.97C43.1678 531.926 43.1981 531.897 43.2453 531.883C43.5818 531.907 43.8668 531.989 44.1003 532.131C44.3347 532.264 44.5478 532.426 44.7397 532.619C44.9225 532.811 45.095 533.015 45.257 533.232C45.42 533.441 45.5978 533.636 45.7906 533.82C45.9373 533.724 46.0762 533.614 46.2073 533.49C46.3303 533.355 46.4532 533.22 46.5762 533.086C46.6992 532.951 46.8303 532.827 46.9697 532.712C47.1008 532.587 47.2479 532.487 47.411 532.411C47.468 532.39 47.5101 532.334 47.537 532.245C47.6485 532.229 47.7654 532.203 47.8878 532.169C48.0019 532.126 48.1156 532.086 48.2289 532.051C48.3331 532.016 48.4265 531.997 48.509 531.996C48.5915 531.995 48.6574 532.024 48.7065 532.084C48.749 532.024 48.8115 531.994 48.894 531.992C48.9674 531.99 49.0264 531.996 49.0709 532.01C49.2964 532.233 49.4556 532.386 49.5483 532.468C49.6411 532.55 49.7083 532.612 49.7502 532.653C49.792 532.693 49.8293 532.733 49.8621 532.773C49.8948 532.813 49.9595 532.902 50.056 533.039C50.2996 533.548 50.5138 534.077 50.6985 534.627C50.8751 535.166 50.9768 535.72 51.0038 536.291C51.0629 536.342 51.1062 536.415 51.1337 536.509C51.1711 536.595 51.1982 536.694 51.2148 536.806C51.2314 536.917 51.2427 537.037 51.2485 537.166C51.2551 537.286 51.2627 537.397 51.2712 537.498C51.2486 537.542 51.2142 537.566 51.168 537.57C51.1317 537.567 51.1023 537.587 51.0797 537.631C51.1877 537.65 51.2373 537.705 51.2285 537.796C51.2296 537.879 51.2013 537.981 51.1436 538.104C51.0859 538.226 51.0096 538.352 50.9148 538.48C50.8199 538.608 50.7313 538.719 50.6491 538.811C50.7263 538.865 50.8068 538.932 50.8904 539.013C50.975 539.086 51.0319 539.16 51.0611 539.236C51.0306 539.361 51.0078 539.455 50.9925 539.518C50.9782 539.571 50.9956 539.628 51.0447 539.688C51.0014 539.757 50.9552 539.807 50.9064 539.839C50.8666 539.872 50.8222 539.904 50.7733 539.936C50.7335 539.969 50.6978 540.006 50.6662 540.049C50.6255 540.091 50.5871 540.156 50.5511 540.244C50.5075 540.221 50.4381 540.228 50.343 540.265C50.2388 540.301 50.1737 540.358 50.1476 540.438C50.0794 540.386 49.9869 540.395 49.8701 540.466C49.7443 540.537 49.6066 540.587 49.457 540.619C49.3944 540.603 49.3313 540.593 49.2678 540.586C49.1961 540.57 49.1335 540.555 49.08 540.541C49.0182 540.516 48.966 540.488 48.9233 540.457C48.8806 540.425 48.8532 540.377 48.8412 540.311C48.7224 540.309 48.6055 540.334 48.4905 540.387C48.4349 540.299 48.3631 540.238 48.275 540.201C48.1779 540.165 48.0803 540.132 47.9822 540.104C47.8851 540.067 47.7929 540.026 47.7057 539.981C47.6095 539.935 47.5335 539.868 47.478 539.781C47.449 539.796 47.4246 539.812 47.4046 539.828C47.3847 539.845 47.3521 539.851 47.3067 539.846C47.0932 539.688 46.9119 539.575 46.763 539.505C46.605 539.435 46.4547 539.379 46.3122 539.338C46.1615 539.286 46.0018 539.234 45.8329 539.181C45.6641 539.128 45.4534 539.034 45.2009 538.9C45.0367 538.893 44.8933 538.861 44.7707 538.803C44.6481 538.746 44.5301 538.688 44.4165 538.632C44.2948 538.565 44.1672 538.511 44.0338 538.471C43.9004 538.43 43.7412 538.419 43.5562 538.438C43.5594 538.594 43.6028 538.713 43.6865 538.794C43.771 538.866 43.8895 538.919 44.042 538.952C44.1066 539.041 44.1328 539.149 44.1204 539.276C44.099 539.402 44.1016 539.517 44.1282 539.62ZM47.3362 533.888C47.1122 534.214 46.968 534.52 46.9035 534.807C46.8399 535.085 46.818 535.358 46.8378 535.625C46.8494 535.883 46.88 536.133 46.9297 536.376C46.9793 536.619 47.0108 536.86 47.0242 537.099C47.3212 537.247 47.6495 537.403 48.0091 537.566C48.3687 537.729 48.7197 537.887 49.062 538.039C49.0484 537.708 49.0094 537.402 48.9452 537.121C48.8809 536.84 48.8067 536.567 48.7225 536.303C48.6292 536.037 48.5401 535.777 48.455 535.521C48.3609 535.265 48.2767 535 48.2024 534.727C48.0962 534.69 48.0158 534.622 47.9611 534.525C47.9064 534.428 47.8562 534.332 47.8106 534.236C47.7559 534.139 47.6954 534.055 47.629 533.985C47.5626 533.914 47.465 533.882 47.3362 533.888ZM42.9844 534.426C42.9116 534.987 42.9078 535.545 42.9728 536.101C43.0379 536.657 43.1657 537.132 43.3564 537.526C43.5282 537.359 43.6824 537.187 43.8188 537.008C43.9562 536.819 44.1295 536.685 44.3387 536.605C44.2087 536.153 44.028 535.75 43.7966 535.398C43.5562 535.045 43.2855 534.721 42.9844 534.426ZM51.0768 524.512C51.2257 524.582 51.3765 524.679 51.5293 524.803C51.6738 524.918 51.8025 525.054 51.9154 525.212C52.0201 525.359 52.1049 525.523 52.1698 525.704C52.2347 525.884 52.2625 526.07 52.253 526.261C52.2143 526.376 52.1747 526.455 52.134 526.497C52.1032 526.53 52.072 526.569 52.0404 526.611C52.0196 526.637 52.0034 526.663 51.9917 526.689C51.9718 526.705 51.9564 526.722 51.9456 526.739L51.8616 526.896L51.69 526.824C51.6192 526.799 51.5644 526.799 51.5254 526.822C51.4774 526.845 51.4132 526.894 51.3327 526.968C51.3028 526.993 51.2729 527.017 51.2431 527.042C51.2132 527.067 51.1838 527.087 51.1548 527.102L50.8738 527.308L50.8142 526.932C50.7728 526.699 50.7057 526.541 50.6129 526.459C50.5211 526.368 50.3563 526.319 50.1187 526.315C50.0648 526.493 50.0453 526.646 50.0601 526.776C50.0759 526.897 50.0957 527.022 50.1197 527.153C50.1492 527.32 50.1737 527.492 50.1932 527.668C50.2046 527.834 50.2006 528.017 50.1812 528.216C50.1741 528.289 50.1675 528.357 50.1614 528.42C50.1461 528.483 50.1304 528.55 50.1143 528.622L50.0739 528.755C49.9723 528.764 49.9161 528.777 49.9053 528.794C49.8854 528.81 49.8655 528.827 49.8456 528.843C49.7958 528.884 49.732 528.928 49.6541 528.976C49.5681 529.013 49.4674 529.012 49.3521 528.974C49.2661 529.011 49.1818 529.03 49.0992 529.032C49.2028 529.097 49.3122 529.148 49.4275 529.187L49.5583 529.255L49.5723 529.393C49.5796 529.412 49.601 529.428 49.6364 529.441C49.6627 529.453 49.685 529.459 49.7031 529.461L49.9278 529.552C49.9442 529.572 49.9606 529.591 49.977 529.611C49.9843 529.63 49.9961 529.65 50.0125 529.67C50.0924 529.696 50.1718 529.726 50.2508 529.762C50.3298 529.797 50.4043 529.831 50.4742 529.866C50.5878 529.923 50.7017 529.975 50.8161 530.023C50.9224 530.06 51.0303 530.08 51.1401 530.081L51.2845 530.15C51.3345 530.201 51.375 530.255 51.406 530.313C51.4279 530.37 51.4499 530.428 51.4718 530.485C51.4882 530.505 51.5037 530.533 51.5183 530.572C51.5247 530.6 51.5316 530.623 51.5389 530.642L51.6846 530.698L51.696 530.864C51.7044 530.965 51.711 531.039 51.7156 531.085C51.7212 531.122 51.7213 531.168 51.716 531.223L51.6892 531.357C51.5979 531.449 51.5269 531.52 51.4762 531.57C51.4165 531.619 51.3604 531.678 51.308 531.746C51.1912 531.817 51.1052 531.855 51.0499 531.858C50.9945 531.862 50.9438 531.866 50.8975 531.871C50.8413 531.884 50.7951 531.889 50.7588 531.885C50.7216 531.891 50.6931 531.902 50.6732 531.918L50.4927 532.079L50.3848 531.917L50.1548 531.881C49.7097 531.655 49.2837 531.421 48.8767 531.18C48.4706 530.93 48.0559 530.675 47.6325 530.414C47.4944 530.327 47.3559 530.245 47.2169 530.167C47.0788 530.081 46.9407 529.994 46.8026 529.907C46.7745 529.914 46.7423 529.915 46.706 529.912C46.6697 529.908 46.6298 529.895 46.5862 529.873C46.4417 529.758 46.3135 529.663 46.2018 529.588C46.0809 529.512 45.9601 529.436 45.8393 529.36C45.6921 529.273 45.5495 529.186 45.4114 529.099C45.2741 529.003 45.1341 528.889 44.9914 528.756L44.9173 528.529C44.9109 528.501 44.9049 528.468 44.8993 528.431C44.8847 528.393 44.8796 528.351 44.884 528.306L44.9311 528.105C44.8378 527.839 44.6961 527.601 44.506 527.39C44.3067 527.179 44.0671 526.958 43.7872 526.73L43.6099 526.575L43.7359 526.409C43.7675 526.366 43.8009 526.305 43.8361 526.226C43.8622 526.146 43.8932 526.062 43.9292 525.974C43.9814 525.815 44.0372 525.664 44.0967 525.524C44.1561 525.383 44.2356 525.271 44.3351 525.19C44.4856 525.149 44.5975 525.128 44.671 525.126C44.7444 525.124 44.8183 525.117 44.8927 525.106C45.0495 525.094 45.206 525.086 45.362 525.083C45.5188 525.071 45.6929 525.07 45.8843 525.079C46.043 525.049 46.2007 525.027 46.3576 525.015C46.5063 524.993 46.659 524.976 46.8159 524.964C47.038 524.939 47.2556 524.915 47.4687 524.89C47.6727 524.864 47.8689 524.823 48.0574 524.768C48.0644 524.696 48.0734 524.651 48.0842 524.634C48.0705 524.586 48.0613 524.54 48.0566 524.493C48.0528 524.438 48.0495 524.378 48.0466 524.314L48.0475 524.163L48.1889 524.122C48.2351 524.117 48.2849 524.076 48.3382 523.999C48.3587 523.882 48.3943 523.798 48.445 523.748C48.4865 523.697 48.5322 523.651 48.582 523.61C48.6218 523.578 48.6525 523.544 48.6742 523.51L48.7757 523.313L48.9692 523.442C49.1237 523.549 49.2697 523.696 49.4071 523.883C49.5364 524.06 49.6408 524.258 49.7204 524.477C49.7757 524.473 49.8305 524.474 49.885 524.479C49.9312 524.474 49.9824 524.465 50.0386 524.453C50.1955 524.44 50.3564 524.433 50.5215 524.431C50.6866 524.428 50.8544 524.445 51.025 524.48L51.0768 524.512ZM48.3405 528.216C48.3488 527.942 48.3545 527.695 48.3575 527.476C48.3523 527.247 48.3357 526.993 48.3078 526.716C48.0294 526.753 47.7416 526.793 47.4442 526.838C47.1378 526.881 46.8355 526.93 46.5373 526.983L46.6654 527.078C46.8383 527.278 47.0343 527.476 47.2534 527.671C47.4734 527.857 47.682 528.019 47.8792 528.158C47.9556 528.22 48.0319 528.282 48.1083 528.345C48.1846 528.407 48.2614 528.465 48.3387 528.518C48.3349 528.463 48.3352 528.412 48.3396 528.367C48.3449 528.313 48.3452 528.262 48.3405 528.216ZM52.8843 518.067C52.8793 518.213 52.8571 518.394 52.8178 518.61C52.7794 518.817 52.7922 519.015 52.8562 519.204C52.7914 519.683 52.6848 520.167 52.5365 520.657C52.3883 521.146 52.2213 521.592 52.0356 521.995C51.927 522.076 51.8274 522.158 51.737 522.241C51.6375 522.323 51.562 522.439 51.5108 522.59C51.3173 522.791 51.0914 522.948 50.8333 523.06C50.566 523.171 50.2878 523.254 49.9987 523.309C49.7095 523.363 49.4185 523.39 49.1255 523.389C48.8235 523.387 48.5369 523.368 48.2656 523.332C47.8706 523.157 47.5398 522.932 47.2733 522.659C46.9986 522.376 46.7289 522.089 46.4642 521.798C46.4212 521.674 46.3751 521.583 46.326 521.523C46.2686 521.453 46.2204 521.385 46.1812 521.317C46.1338 521.239 46.0905 521.166 46.0513 521.098C46.004 521.02 45.9466 520.951 45.8793 520.889C45.8525 520.694 45.8049 520.525 45.7364 520.381C45.6598 520.227 45.5828 520.077 45.5053 519.932C45.4187 519.787 45.3416 519.637 45.2741 519.484C45.2065 519.331 45.1593 519.157 45.1325 518.962C45.0579 518.882 45.0028 518.789 44.9671 518.685C44.9224 518.58 44.8822 518.475 44.8465 518.371C44.8026 518.257 44.7579 518.152 44.7123 518.056C44.6676 517.951 44.6025 517.867 44.517 517.803C44.594 517.765 44.6274 517.704 44.6172 517.621C44.5979 517.537 44.5782 517.457 44.558 517.382C44.5534 517.335 44.566 517.3 44.5958 517.275C44.6266 517.242 44.6569 517.213 44.6867 517.188C44.7166 517.163 44.7369 517.143 44.7478 517.125C44.7504 517.098 44.7299 517.073 44.6863 517.051C44.6907 517.005 44.7147 516.994 44.7583 517.016C44.8019 517.039 44.8324 517.056 44.8496 517.067C44.8476 516.993 44.8715 516.936 44.9212 516.895C44.9628 516.844 44.9934 516.765 45.0131 516.657C45.062 516.625 45.0991 516.619 45.1246 516.64C45.141 516.66 45.1764 516.672 45.2308 516.678C45.3389 516.413 45.4872 516.254 45.6757 516.199C45.8551 516.143 46.037 516.156 46.2213 516.238C46.4056 516.32 46.5715 516.451 46.719 516.63C46.8664 516.809 46.9581 516.997 46.994 517.192C47.0696 517.639 47.1611 518.065 47.2683 518.469C47.3674 518.863 47.5411 519.196 47.7894 519.468C47.8318 519.691 47.899 519.895 47.9911 520.078C48.0751 520.251 48.1776 520.421 48.2987 520.588C48.4116 520.746 48.534 520.9 48.6659 521.05C48.7896 521.19 48.9125 521.339 49.0345 521.498C49.1624 521.501 49.26 521.533 49.3272 521.595C49.3863 521.646 49.45 521.698 49.5181 521.751C49.656 521.746 49.7815 521.726 49.8948 521.691C49.999 521.656 50.1036 521.615 50.2087 521.571C50.4483 520.99 50.6234 520.366 50.734 519.699C50.8455 519.023 50.9388 518.345 51.014 517.665C51.1109 517.611 51.2041 517.547 51.2937 517.473C51.3751 517.389 51.4646 517.315 51.5624 517.252C51.6511 517.187 51.7521 517.137 51.8654 517.103C51.9696 517.067 52.0974 517.07 52.249 517.112C52.3728 517.253 52.4861 517.406 52.5891 517.571C52.6829 517.736 52.7813 517.901 52.8843 518.067ZM53.3098 508.314C53.2857 508.752 53.2391 509.136 53.1702 509.468C53.1022 509.791 52.9848 510.105 52.8178 510.409C52.807 510.427 52.7826 510.443 52.7445 510.457C52.7065 510.472 52.6775 510.487 52.6576 510.504C52.6251 510.555 52.6094 510.623 52.6105 510.705C52.6035 510.778 52.5882 510.84 52.5648 510.893C52.5215 510.962 52.4424 511.069 52.3276 511.213C52.2038 511.357 52.0903 511.488 51.9873 511.606C51.8444 511.757 51.7024 511.899 51.5613 512.032C51.4202 512.165 51.2718 512.278 51.1161 512.373C51.0771 512.397 51.0555 512.431 51.051 512.477C51.0376 512.521 51.02 512.561 50.9983 512.595C51.1361 512.874 51.3186 513.116 51.5459 513.321C51.7732 513.527 52.0059 513.723 52.2441 513.911C52.4822 514.099 52.7059 514.295 52.9151 514.498C53.1242 514.702 53.2741 514.95 53.3647 515.243C53.3568 515.324 53.3361 515.396 53.3028 515.456C53.2694 515.517 53.2273 515.573 53.1767 515.623C53.1351 515.674 53.0935 515.725 53.052 515.776C53.0104 515.826 52.9775 515.883 52.9531 515.944C52.8443 515.934 52.7423 515.947 52.6472 515.983C52.5529 516.011 52.4628 516.043 52.3767 516.081C52.2915 516.109 52.2118 516.129 52.1374 516.14C52.054 516.15 51.9787 516.125 51.9114 516.063C51.8517 516.112 51.7848 516.188 51.7107 516.291C51.6616 516.231 51.6139 516.204 51.5676 516.208C51.5223 516.204 51.476 516.208 51.4289 516.222C51.3818 516.236 51.3301 516.249 51.2739 516.262C51.2186 516.266 51.1655 516.247 51.1146 516.205C51.119 516.16 51.1152 516.105 51.1033 516.039C51.0254 516.087 50.9819 516.11 50.9728 516.109C50.9556 516.098 50.932 516.105 50.9022 516.13C50.846 516.143 50.8151 516.131 50.8096 516.093C50.7949 516.055 50.7803 516.017 50.7657 515.979C50.3247 515.9 49.9194 515.783 49.5499 515.628C49.1803 515.473 48.8257 515.305 48.486 515.126C48.1463 514.946 47.8016 514.771 47.4519 514.6C47.1032 514.419 46.7245 514.263 46.316 514.132C46.226 514.023 46.1155 513.934 45.9847 513.866C45.8548 513.79 45.7249 513.713 45.595 513.636C45.466 513.55 45.3419 513.46 45.2228 513.367C45.0956 513.263 44.9986 513.13 44.932 512.967C44.9534 512.841 45.0007 512.731 45.0739 512.638C45.138 512.543 45.1726 512.423 45.1776 512.277C45.2256 512.254 45.2732 512.236 45.3203 512.222C45.3683 512.199 45.4167 512.172 45.4656 512.14L45.4446 511.932C45.536 511.84 45.6487 511.764 45.7827 511.704C45.9086 511.634 46.0409 511.592 46.1796 511.578C46.3183 511.564 46.4494 511.581 46.5729 511.63C46.6873 511.677 46.7742 511.773 46.8336 511.916C46.8798 511.911 46.9161 511.915 46.9424 511.926C46.9606 511.928 46.9783 511.934 46.9955 511.945C47.0128 511.956 47.0305 511.962 47.0486 511.964C47.0668 511.966 47.0953 511.955 47.1343 511.931C47.2527 512.126 47.43 512.281 47.6661 512.395C47.9022 512.51 48.1151 512.581 48.3048 512.608C48.2065 512.489 48.1136 512.361 48.0261 512.224C47.9305 512.077 47.8394 511.931 47.7528 511.785C47.6671 511.631 47.5851 511.485 47.5067 511.349C47.4292 511.205 47.3504 511.073 47.2703 510.956C47.0272 510.63 46.8372 510.323 46.7004 510.035C46.5553 509.737 46.3935 509.423 46.2148 509.095C46.2037 509.02 46.209 508.966 46.2307 508.931C46.2441 508.887 46.2622 508.843 46.2847 508.799C46.2303 508.794 46.1968 508.809 46.1842 508.845C46.1724 508.871 46.1353 508.876 46.0727 508.861C46.0496 508.722 46.0202 508.6 45.9846 508.495C45.9398 508.39 45.9005 508.277 45.8666 508.154C45.9562 508.081 46.0499 508.012 46.1476 507.948C46.2363 507.883 46.2959 507.789 46.3264 507.663C46.4306 507.628 46.513 507.581 46.5736 507.522C46.6251 507.463 46.6767 507.404 46.7282 507.345C46.7797 507.286 46.8394 507.237 46.9073 507.198C46.9761 507.149 47.079 507.127 47.216 507.132C47.2759 507.174 47.34 507.221 47.4082 507.274C47.4772 507.317 47.5599 507.362 47.6562 507.408C47.8018 507.605 47.9289 507.805 48.0374 508.008C48.1468 508.202 48.2512 508.4 48.3506 508.602C48.45 508.804 48.549 509.01 48.6476 509.221C48.7461 509.432 48.8669 509.65 49.0099 509.875C49.069 509.926 49.1222 509.991 49.1696 510.069C49.2088 510.137 49.2521 510.209 49.2995 510.287C49.3378 510.364 49.3811 510.437 49.4293 510.506C49.4776 510.575 49.5362 510.631 49.6053 510.674C49.6117 510.702 49.6136 510.73 49.611 510.757C49.6083 510.784 49.6102 510.812 49.6166 510.84C49.6775 510.873 49.723 510.924 49.7531 510.991C49.7841 511.049 49.8305 511.09 49.8922 511.114C50.1957 511.006 50.4352 510.851 50.6106 510.648C50.7859 510.445 50.9231 510.212 51.0222 509.946C51.1121 509.68 51.177 509.389 51.2169 509.073C51.2478 508.755 51.28 508.424 51.3135 508.079C51.3079 508.042 51.2911 508.027 51.263 508.033C51.2267 508.029 51.2153 508.005 51.2288 507.961C51.3225 507.75 51.4431 507.593 51.5907 507.488C51.7291 507.382 51.8698 507.254 52.0127 507.103C52.3557 507.155 52.6313 507.287 52.8396 507.499C53.0479 507.712 53.2046 507.984 53.3098 508.314Z" fill="white"/>
<path d="M50.139 499.992L55.6383 489.492L54.1389 479.535" stroke="white"/>
</svg>
