<svg width="75" height="557" viewBox="0 0 75 557" fill="none" xmlns="http://www.w3.org/2000/svg">
<line x1="39.3721" y1="339.011" x2="39.3984" y2="4.42934e-05" stroke="white" stroke-width="2"/>
<rect x="23.3721" y="340.011" width="33" height="139" rx="16" fill="#35383B" stroke="white" stroke-width="2"/>
<path d="M36.3216 500.191L35.2703 489.322L40.1202 479.538" stroke="white"/>
<mask id="path-4-inside-1_85_15606" fill="white">
<path d="M52.5841 515.58C57.9412 523.895 65.5235 537.353 65.5235 537.353C65.4724 537.37 54.797 541.034 48.5828 544.277C42.3538 547.528 33.7778 552.531 33.7778 552.531C33.7626 552.502 28.623 542.646 23.4098 534.539C18.1964 526.432 6.40524 512.023 6.37092 511.981L23.41 504.654L38.1057 494.798C38.1057 494.798 47.227 507.266 52.5841 515.58ZM38.2434 500.524C38.3957 499.696 37.8476 498.901 37.0195 498.749C36.1913 498.597 35.3965 499.145 35.2442 499.973C35.092 500.801 35.64 501.596 36.4682 501.748C37.2963 501.9 38.0911 501.352 38.2434 500.524Z"/>
</mask>
<path d="M52.5841 515.58C57.9412 523.895 65.5235 537.353 65.5235 537.353C65.4724 537.37 54.797 541.034 48.5828 544.277C42.3538 547.528 33.7778 552.531 33.7778 552.531C33.7626 552.502 28.623 542.646 23.4098 534.539C18.1964 526.432 6.40524 512.023 6.37092 511.981L23.41 504.654L38.1057 494.798C38.1057 494.798 47.227 507.266 52.5841 515.58ZM38.2434 500.524C38.3957 499.696 37.8476 498.901 37.0195 498.749C36.1913 498.597 35.3965 499.145 35.2442 499.973C35.092 500.801 35.64 501.596 36.4682 501.748C37.2963 501.9 38.0911 501.352 38.2434 500.524Z" fill="#35383B"/>
<path d="M52.5841 515.58L53.4247 515.039L53.4247 515.039L52.5841 515.58ZM65.5235 537.353L65.8481 538.299L66.9846 537.909L66.3948 536.862L65.5235 537.353ZM48.5828 544.277L48.1202 543.391L48.1202 543.391L48.5828 544.277ZM33.7778 552.531L32.8911 552.994L33.376 553.923L34.2817 553.395L33.7778 552.531ZM23.4098 534.539L24.2509 533.998L24.2509 533.998L23.4098 534.539ZM6.37092 511.981L5.97588 511.062L4.75613 511.587L5.59706 512.614L6.37092 511.981ZM23.41 504.654L23.8051 505.572L23.8901 505.536L23.967 505.484L23.41 504.654ZM38.1057 494.798L38.9128 494.208L38.346 493.433L37.5488 493.968L38.1057 494.798ZM38.2434 500.524L39.2269 500.705L39.227 500.705L38.2434 500.524ZM37.0195 498.749L37.2004 497.765L37.2003 497.765L37.0195 498.749ZM35.2442 499.973L34.2607 499.792L34.2606 499.792L35.2442 499.973ZM36.4682 501.748L36.2873 502.732L36.2874 502.732L36.4682 501.748ZM52.5841 515.58L51.7435 516.122C54.4093 520.26 57.6348 525.687 60.1986 530.088C61.4795 532.287 62.5932 534.226 63.3867 535.616C63.7834 536.311 64.1 536.868 64.3173 537.251C64.426 537.443 64.5098 537.591 64.5665 537.691C64.5948 537.742 64.6163 537.78 64.6307 537.805C64.6379 537.818 64.6433 537.828 64.6469 537.834C64.6487 537.837 64.6501 537.84 64.651 537.841C64.6514 537.842 64.6518 537.843 64.652 537.843C64.6521 537.843 64.6522 537.843 64.6522 537.843C64.6523 537.844 64.6523 537.844 65.5235 537.353C66.3948 536.862 66.3947 536.862 66.3947 536.862C66.3946 536.862 66.3945 536.861 66.3944 536.861C66.3941 536.861 66.3938 536.86 66.3933 536.859C66.3924 536.858 66.391 536.855 66.3891 536.852C66.3854 536.845 66.3799 536.835 66.3726 536.822C66.358 536.797 66.3362 536.758 66.3077 536.708C66.2507 536.607 66.1664 536.458 66.0572 536.265C65.839 535.88 65.5213 535.321 65.1235 534.624C64.3279 533.231 63.2112 531.286 61.9268 529.081C59.3602 524.675 56.116 519.216 53.4247 515.039L52.5841 515.58ZM65.5235 537.353L65.199 536.407C65.1636 536.419 54.4135 540.106 48.1202 543.391L48.5828 544.277L49.0455 545.164C55.1806 541.962 65.7811 538.322 65.8481 538.299L65.5235 537.353ZM48.5828 544.277L48.1202 543.391C44.9899 545.024 41.2766 547.095 38.3512 548.753C36.8873 549.583 35.6185 550.312 34.7155 550.832C34.264 551.093 33.9039 551.301 33.6565 551.445C33.5328 551.517 33.4373 551.572 33.3727 551.61C33.3403 551.629 33.3157 551.643 33.2991 551.653C33.2909 551.658 33.2846 551.661 33.2804 551.664C33.2782 551.665 33.2766 551.666 33.2756 551.666C33.275 551.667 33.2746 551.667 33.2743 551.667C33.2742 551.667 33.2741 551.667 33.274 551.667C33.2739 551.667 33.2739 551.667 33.7778 552.531C34.2817 553.395 34.2818 553.395 34.2818 553.395C34.2819 553.395 34.2819 553.395 34.2821 553.395C34.2823 553.395 34.2827 553.394 34.2832 553.394C34.2842 553.394 34.2857 553.393 34.2877 553.391C34.2918 553.389 34.2979 553.386 34.3061 553.381C34.3223 553.371 34.3466 553.357 34.3786 553.339C34.4426 553.301 34.5375 553.246 34.6604 553.175C34.9064 553.032 35.2649 552.824 35.7148 552.565C36.6144 552.046 37.8789 551.32 39.3377 550.493C42.2575 548.838 45.9467 546.781 49.0455 545.164L48.5828 544.277ZM33.7778 552.531L34.6645 552.069C34.6486 552.038 29.4909 542.147 24.2509 533.998L23.4098 534.539L22.5687 535.08C27.7551 543.145 32.8767 552.966 32.8911 552.994L33.7778 552.531ZM23.4098 534.539L24.2509 533.998C18.9997 525.832 7.1664 511.374 7.14479 511.348L6.37092 511.981L5.59706 512.614C5.64408 512.672 17.3931 527.031 22.5687 535.08L23.4098 534.539ZM6.37092 511.981L6.76596 512.9L23.8051 505.572L23.41 504.654L23.015 503.735L5.97588 511.062L6.37092 511.981ZM23.41 504.654L23.967 505.484L38.6627 495.629L38.1057 494.798L37.5488 493.968L22.8531 503.823L23.41 504.654ZM38.1057 494.798C37.2987 495.389 37.2987 495.389 37.2988 495.389C37.2988 495.389 37.2989 495.389 37.299 495.389C37.2993 495.39 37.2997 495.39 37.3003 495.391C37.3013 495.393 37.303 495.395 37.3051 495.398C37.3095 495.404 37.316 495.413 37.3246 495.424C37.3419 495.448 37.3678 495.483 37.4017 495.53C37.4695 495.623 37.5699 495.761 37.6995 495.939C37.9589 496.295 38.3355 496.814 38.8042 497.462C39.7418 498.759 41.0476 500.575 42.5205 502.65C45.4689 506.804 49.0777 511.985 51.7435 516.122L52.5841 515.58L53.4247 515.039C50.7334 510.862 47.1031 505.651 44.1515 501.493C42.6745 499.412 41.3652 497.591 40.4251 496.291C39.955 495.64 39.5772 495.12 39.3167 494.762C39.1865 494.583 39.0857 494.445 39.0173 494.351C38.9831 494.304 38.957 494.269 38.9395 494.245C38.9307 494.233 38.9241 494.223 38.9196 494.217C38.9174 494.214 38.9157 494.212 38.9146 494.21C38.914 494.21 38.9136 494.209 38.9133 494.209C38.9131 494.208 38.913 494.208 38.9129 494.208C38.9129 494.208 38.9128 494.208 38.1057 494.798ZM38.2434 500.524L39.227 500.705C39.4791 499.333 38.5715 498.018 37.2004 497.765L37.0195 498.749L36.8386 499.732C37.1238 499.785 37.3123 500.058 37.2599 500.343L38.2434 500.524ZM37.0195 498.749L37.2003 497.765C35.8288 497.513 34.5129 498.421 34.2607 499.792L35.2442 499.973L36.2277 500.154C36.2801 499.869 36.5538 499.68 36.8387 499.732L37.0195 498.749ZM35.2442 499.973L34.2606 499.792C34.0087 501.163 34.9161 502.479 36.2873 502.732L36.4682 501.748L36.649 500.765C36.364 500.712 36.1754 500.438 36.2277 500.154L35.2442 499.973ZM36.4682 501.748L36.2874 502.732C37.6588 502.984 38.9748 502.076 39.2269 500.705L38.2434 500.524L37.2599 500.343C37.2075 500.628 36.9338 500.817 36.6489 500.765L36.4682 501.748Z" fill="white" mask="url(#path-4-inside-1_85_15606)"/>
<path d="M26.8779 515.05C26.7672 515.013 26.6571 515.018 26.5476 515.067C26.4458 515.111 26.3415 515.151 26.2348 515.188C26.128 515.224 26.0204 515.233 25.912 515.217C25.8161 515.202 25.7251 515.12 25.639 514.97C25.5809 514.964 25.553 514.971 25.5552 514.991C25.5624 515.019 25.5402 515.06 25.4888 515.115C25.435 514.998 25.378 514.926 25.3177 514.9C25.2575 514.874 25.1975 514.831 25.1377 514.772C25.0778 514.561 25.0773 514.35 25.1362 514.139C25.2078 513.93 25.2982 513.725 25.4075 513.525C25.5218 513.332 25.6448 513.144 25.7766 512.962C25.9133 512.787 26.0246 512.623 26.1104 512.47C26.1411 512.45 26.1624 512.458 26.1745 512.494C26.1893 512.517 26.2041 512.54 26.219 512.563C26.2709 512.475 26.3379 512.394 26.42 512.32C26.5048 512.232 26.5605 512.142 26.5873 512.049C27.2055 511.965 27.8527 511.884 28.529 511.806C29.2129 511.724 29.9006 511.638 30.5922 511.551C31.2964 511.465 31.9981 511.377 32.6974 511.284C33.4092 511.194 34.1021 511.1 34.7762 511.002C34.8378 511.266 34.8791 511.532 34.9002 511.8C34.9339 512.071 34.9361 512.335 34.9068 512.593C34.8775 512.85 34.8079 513.096 34.6981 513.329C34.6008 513.565 34.4496 513.776 34.2444 513.963C34.1886 513.977 34.1609 513.968 34.1615 513.935C34.162 513.902 34.142 513.888 34.1014 513.892C34.0802 513.96 34.058 514.002 34.035 514.016C34.0246 514.034 34.0055 514.046 33.9776 514.053C33.9573 514.056 33.9319 514.067 33.9012 514.086C33.8706 514.106 33.8408 514.152 33.8118 514.225C33.7948 514.182 33.7698 514.16 33.737 514.16C33.7118 514.154 33.6945 514.127 33.6852 514.079C33.6026 514.187 33.5257 514.252 33.4545 514.277C33.3834 514.301 33.3111 514.315 33.2377 514.319C33.172 514.318 33.1011 514.325 33.025 514.342C32.9615 514.361 32.8898 514.418 32.8099 514.513C32.7902 514.482 32.7677 514.464 32.7425 514.459C32.7299 514.456 32.7135 514.456 32.6932 514.458C32.673 514.46 32.6502 514.459 32.625 514.453C32.6124 514.45 32.6001 514.431 32.588 514.396C32.4036 514.547 32.2055 514.686 31.9937 514.811C31.7895 514.932 31.5777 515.057 31.3583 515.188C31.1464 515.314 30.9319 515.452 30.7147 515.603C30.4974 515.754 30.2873 515.932 30.0843 516.139C30.4881 516.345 30.9075 516.449 31.3423 516.451C31.7821 516.46 32.2267 516.401 32.6762 516.274C33.1306 516.155 33.5921 515.988 34.0606 515.773C34.5341 515.565 35.0153 515.353 35.5041 515.135C35.6427 515.165 35.7881 515.164 35.9403 515.131C36.0975 515.105 36.251 515.066 36.401 515.013C36.556 514.967 36.7084 514.918 36.8584 514.864C37.021 514.814 37.1757 514.785 37.3225 514.777C37.396 514.925 37.4279 515.067 37.4182 515.203C37.4211 515.342 37.4075 515.481 37.3776 515.62C37.3552 515.753 37.3392 515.888 37.3295 516.025C37.3198 516.161 37.3479 516.306 37.4137 516.458C37.3296 516.664 37.2444 516.86 37.158 517.046C37.0794 517.227 36.9618 517.389 36.8053 517.533C36.6991 517.537 36.5926 517.557 36.4858 517.593C36.3791 517.629 36.2699 517.662 36.1582 517.69C36.0514 517.726 35.9449 517.746 35.8387 517.75C35.7324 517.753 35.6253 517.73 35.5174 517.68C35.2727 517.805 35.036 517.909 34.8072 517.991C34.5783 518.074 34.3558 518.158 34.1396 518.243C33.9233 518.328 33.7019 518.422 33.4753 518.524C33.2487 518.627 33.0152 518.761 32.775 518.927C32.5084 519.001 32.2291 519.072 31.9373 519.141C31.6532 519.205 31.3991 519.282 31.1752 519.372C30.9665 519.3 30.7507 519.277 30.5279 519.301C30.305 519.325 30.0797 519.346 29.8519 519.363C29.7965 519.344 29.7741 519.326 29.7844 519.308C29.8025 519.286 29.7956 519.242 29.7638 519.175C29.6997 519.227 29.6439 519.242 29.5962 519.218C29.5612 519.198 29.51 519.236 29.4427 519.333C29.2975 519.243 29.143 519.18 28.9792 519.144C28.8155 519.109 28.6519 519.057 28.4887 518.989C28.3303 518.928 28.184 518.827 28.0497 518.686C27.928 518.547 27.8316 518.322 27.7607 518.01C27.7946 517.457 27.8954 516.915 28.0629 516.384C28.2305 515.853 28.5027 515.342 28.8796 514.85C28.8072 514.788 28.7204 514.762 28.6191 514.774C28.5178 514.785 28.4151 514.802 28.3111 514.826C28.207 514.849 28.1107 514.868 28.022 514.882C27.9333 514.896 27.8692 514.872 27.8297 514.81C27.7509 514.84 27.666 514.851 27.5751 514.844C27.4967 514.841 27.4146 514.839 27.3286 514.841C27.2503 514.837 27.1693 514.846 27.0855 514.867C27.0067 514.896 26.9375 514.957 26.8779 515.05ZM40.2505 523.966C40.2018 524.008 40.1597 524.035 40.1241 524.048C40.1011 524.062 40.0757 524.073 40.0478 524.081C40.0248 524.095 39.998 524.113 39.9673 524.132C39.9443 524.147 39.9109 524.18 39.8672 524.229C39.503 524.236 39.202 524.165 38.9642 524.014C38.7389 523.867 38.5244 523.685 38.3204 523.469C38.1241 523.249 37.9191 523.023 37.7053 522.792C37.4964 522.569 37.2339 522.381 36.9177 522.226C36.8919 522.102 36.8326 522.01 36.74 521.951C36.6523 521.899 36.5668 521.791 36.4834 521.628C36.4078 521.612 36.3363 521.576 36.2689 521.522C36.2091 521.463 36.1455 521.407 36.0781 521.352C36.0289 521.427 35.9635 521.486 35.882 521.528C35.813 521.572 35.763 521.621 35.7318 521.673C35.8816 521.956 36.0755 522.249 36.3135 522.551C36.5564 522.86 36.7829 523.17 36.9929 523.479C36.9596 523.511 36.9303 523.525 36.9051 523.519C36.8876 523.509 36.8659 523.518 36.8402 523.545C36.8365 523.623 36.8212 523.709 36.7945 523.802C36.7754 523.89 36.7563 523.978 36.7372 524.067C36.7182 524.155 36.7068 524.238 36.703 524.316C36.7118 524.397 36.7448 524.474 36.8018 524.545C36.7603 524.616 36.7036 524.679 36.632 524.736C36.5729 524.796 36.4952 524.835 36.3988 524.854C36.2355 524.786 36.0684 524.72 35.8975 524.657C35.7342 524.588 35.5737 524.507 35.4159 524.414C35.263 524.328 35.1142 524.223 34.9695 524.1C34.8374 523.979 34.7159 523.824 34.6051 523.635C34.5804 523.597 34.5607 523.566 34.5459 523.543C34.536 523.528 34.5327 523.497 34.5359 523.452C34.4581 523.415 34.3898 523.335 34.3311 523.21C34.2773 523.093 34.2115 523.016 34.1337 522.979C34.1177 522.87 34.0664 522.757 33.9798 522.639C33.9057 522.524 33.8544 522.411 33.8258 522.299C33.5859 522.28 33.342 522.28 33.0939 522.299C32.8458 522.318 32.5937 522.356 32.3374 522.413C32.467 522.698 32.5899 522.922 32.7061 523.086C32.8273 523.257 32.945 523.414 33.059 523.558C33.1807 523.696 33.3011 523.841 33.4201 523.992C33.5468 524.138 33.6852 524.336 33.8355 524.586C34.0186 524.685 34.1882 524.831 34.3445 525.023C34.5134 525.218 34.6852 525.383 34.86 525.52C34.8766 525.596 34.869 525.677 34.8373 525.762C34.8133 525.843 34.7868 525.92 34.7578 525.993C34.7415 526.068 34.729 526.141 34.7203 526.212C34.7116 526.283 34.7333 526.35 34.7854 526.414C34.7745 526.464 34.7485 526.508 34.7075 526.545C34.679 526.585 34.6481 526.622 34.6148 526.654C34.5814 526.686 34.5543 526.72 34.5335 526.755C34.5254 526.793 34.5399 526.832 34.5772 526.873C34.2503 526.921 33.9685 526.913 33.7319 526.849C33.5078 526.787 33.2996 526.683 33.1073 526.536C32.9149 526.388 32.723 526.208 32.5317 525.996C32.3453 525.79 32.1339 525.563 31.8976 525.314C31.8379 525.255 31.8047 525.195 31.7981 525.135C31.7838 525.079 31.7569 525.02 31.7174 524.959C31.5655 524.807 31.3953 524.619 31.2067 524.394C31.018 524.168 30.8461 523.926 30.6909 523.669C30.5356 523.411 30.4146 523.147 30.3278 522.878C30.2333 522.614 30.212 522.362 30.2638 522.122C30.2779 522.026 30.3121 521.945 30.3662 521.877C30.4329 521.813 30.4583 521.726 30.4423 521.617C30.537 521.545 30.6382 521.458 30.746 521.356C30.8538 521.254 30.9654 521.15 31.0808 521.043C31.2039 520.931 31.3257 520.825 31.4461 520.726C31.5714 520.635 31.6951 520.566 31.8172 520.52C31.9469 520.469 32.08 520.448 32.2163 520.458C32.3576 520.475 32.4745 520.438 32.567 520.346C32.5993 520.379 32.6333 520.39 32.6689 520.378C32.7121 520.36 32.7472 520.381 32.7741 520.44C32.9416 520.397 33.104 520.363 33.2611 520.337C33.4183 520.312 33.5716 520.289 33.7211 520.269C33.8755 520.256 34.0274 520.239 34.1769 520.219C34.339 520.201 34.5101 520.172 34.6902 520.132C34.7207 519.961 34.7762 519.811 34.8565 519.684C34.9495 519.559 35.0461 519.448 35.1462 519.351C35.254 519.249 35.3642 519.151 35.4769 519.056C35.5973 518.957 35.7103 518.846 35.8158 518.724C35.9801 518.727 36.1313 518.759 36.2694 518.822C36.4201 518.888 36.5603 518.971 36.6902 519.071C36.8201 519.172 36.9498 519.289 37.0792 519.423C37.2085 519.556 37.3467 519.695 37.4936 519.839C37.7907 520.081 38.0425 520.304 38.2492 520.507C38.4608 520.717 38.656 520.928 38.8347 521.138C39.0261 521.35 39.2185 521.573 39.4121 521.807C39.6056 522.04 39.8367 522.297 40.1054 522.58C40.0808 522.693 40.0883 522.78 40.1278 522.842C40.2165 522.828 40.2579 522.85 40.2519 522.908C40.2586 522.969 40.2939 522.973 40.3579 522.921C40.277 523.082 40.2276 523.249 40.2097 523.423C40.2044 523.6 40.218 523.781 40.2505 523.966ZM36.4706 531.655C36.7797 531.293 37.0389 530.888 37.2481 530.438C37.4624 529.997 37.6317 529.595 37.7562 529.233C37.3163 529.072 36.8594 528.943 36.3856 528.847C35.9244 528.754 35.455 528.699 34.9775 528.681C34.8067 528.769 34.6603 528.837 34.5382 528.883C34.4238 528.924 34.3123 528.936 34.2039 528.919C34.1004 528.91 33.996 528.874 33.8908 528.812C33.7829 528.762 33.6576 528.686 33.5152 528.582C33.5361 528.211 33.6437 527.881 33.8378 527.594C34.0396 527.301 34.3017 527.11 34.6242 527.022C34.8207 526.906 35.038 526.831 35.2762 526.797C35.5193 526.771 35.7608 526.767 36.0007 526.786C36.2532 526.807 36.4991 526.844 36.7385 526.896C36.9855 526.943 37.2161 526.989 37.4303 527.036C37.5217 527.009 37.614 527.009 37.7071 527.036C37.8129 527.066 37.9148 527.097 38.0128 527.132C38.1158 527.174 38.2202 527.21 38.3259 527.239C38.4366 527.276 38.5489 527.291 38.6628 527.282C38.8044 527.115 38.914 526.898 38.9915 526.631C39.0767 526.36 39.173 526.097 39.2807 525.843C39.3091 525.803 39.3009 525.765 39.2559 525.729C39.2159 525.701 39.2025 525.671 39.2156 525.641C39.325 525.592 39.4175 525.5 39.4929 525.365C39.5733 525.237 39.6285 525.104 39.6585 524.966C39.7576 524.934 39.8744 524.897 40.0091 524.854C40.1515 524.805 40.2806 524.711 40.3966 524.571C40.4579 524.532 40.5227 524.506 40.5912 524.495C40.6673 524.478 40.7357 524.467 40.7965 524.46C40.8649 524.449 40.9271 524.436 40.9829 524.421C41.0464 524.402 41.0938 524.366 41.1249 524.314C41.2044 524.403 41.2574 524.494 41.2838 524.585C41.3101 524.677 41.3302 524.767 41.344 524.855C41.3578 524.944 41.3743 525.02 41.3935 525.084C41.4177 525.155 41.461 525.214 41.5235 525.26C41.4802 525.277 41.4534 525.295 41.443 525.312C41.4327 525.33 41.4286 525.349 41.4308 525.369C41.433 525.389 41.4314 525.412 41.4259 525.437C41.4281 525.457 41.4177 525.475 41.3948 525.49C41.4354 525.637 41.4375 525.825 41.4011 526.055C41.3723 526.279 41.3232 526.506 41.2539 526.735C41.1895 526.972 41.1153 527.193 41.0312 527.399C40.947 527.605 40.8839 527.76 40.8419 527.863C41.0753 527.972 41.3377 528.085 41.6292 528.201C41.9283 528.312 42.2362 528.428 42.5529 528.549C42.8695 528.67 43.1747 528.799 43.4684 528.935C43.7746 529.074 44.0453 529.225 44.2804 529.388C44.3031 529.558 44.2906 529.706 44.2431 529.835C44.2082 529.966 44.1557 530.086 44.0858 530.196C44.0284 530.309 43.9584 530.419 43.8758 530.527C43.8009 530.629 43.7473 530.74 43.7151 530.858C43.5454 530.881 43.3899 530.883 43.2485 530.866C43.1198 530.851 42.9881 530.866 42.8535 530.909C42.6808 530.792 42.454 530.668 42.1729 530.534C41.922 530.414 41.5993 530.275 41.2048 530.117C40.8153 529.967 40.3173 529.8 39.7109 529.616C39.6628 529.777 39.6088 529.92 39.5487 530.046C39.4885 530.171 39.4364 530.275 39.3921 530.358C39.3325 530.451 39.2781 530.534 39.2289 530.61C39.2197 530.713 39.1954 530.81 39.1561 530.9C39.1167 530.991 39.0711 531.08 39.0191 531.168C38.9798 531.258 38.9429 531.352 38.9085 531.45C38.8818 531.543 38.8764 531.644 38.8924 531.753C38.6922 531.947 38.5273 532.146 38.3977 532.349C38.2758 532.546 38.1166 532.703 37.9201 532.819C37.7093 532.879 37.5119 532.892 37.3278 532.859C37.1487 532.833 36.9831 532.837 36.8309 532.87C36.7634 532.816 36.696 532.762 36.6286 532.708C36.5612 532.654 36.4922 532.622 36.4215 532.613L36.4706 531.655ZM47.187 536.802C47.0636 536.61 46.9149 536.413 46.7411 536.211C46.575 536.003 46.4075 535.802 46.2386 535.608C46.1169 535.469 46.0015 535.332 45.8923 535.196C45.7882 535.068 45.6952 534.949 45.6135 534.839C45.4104 534.894 45.2264 534.937 45.0616 534.967C44.8968 534.997 44.7333 535.021 44.5713 535.039C44.4015 535.062 44.2304 535.091 44.0579 535.126C43.8981 535.164 43.7267 535.209 43.5438 535.262C43.3719 535.264 43.215 535.273 43.0732 535.289C42.9439 535.307 42.8043 535.343 42.6543 535.396C42.4802 535.378 42.3131 535.388 42.1533 535.426C42.0011 535.459 41.8716 535.494 41.7648 535.53L41.5973 535.573C41.5217 535.557 41.4661 535.554 41.4305 535.566C41.4026 535.574 41.3673 535.569 41.3245 535.553C41.2353 535.6 41.1338 535.628 41.0199 535.636C40.9717 535.645 40.926 535.658 40.8827 535.675C40.8471 535.688 40.8217 535.699 40.8064 535.708C40.7297 535.758 40.6676 535.771 40.6199 535.747C40.5866 535.78 40.5444 535.807 40.4935 535.829C40.4503 535.846 40.407 535.863 40.3638 535.88C40.257 535.916 40.1793 535.955 40.1306 535.997C40.1148 536.04 40.1003 536.077 40.0872 536.107C40.079 536.145 40.0582 536.18 40.0248 536.212C40.0238 536.278 40.0269 536.324 40.034 536.352C40.0308 536.398 40.0336 536.461 40.0424 536.542L39.9941 536.72C39.7966 536.901 39.5982 536.98 39.3988 536.957C39.1792 536.936 38.9805 536.787 38.8028 536.511L38.714 536.373C38.7276 536.31 38.7434 536.268 38.7615 536.245C38.745 536.169 38.732 536.107 38.7227 536.059C38.7133 536.011 38.7217 535.956 38.748 535.896C38.7298 535.767 38.7162 535.662 38.7074 535.581L38.6982 535.44C38.7825 535.386 38.8285 535.356 38.8361 535.351C38.8705 535.253 38.92 535.162 38.9845 535.077C39.054 535 39.1259 534.926 39.2003 534.857C39.2594 534.797 39.3122 534.736 39.3587 534.673C39.4101 534.618 39.4489 534.561 39.4752 534.501C39.9097 534.199 40.3123 533.999 40.6829 533.901C41.0536 533.803 41.4152 533.717 41.7678 533.641C41.9606 533.604 42.1533 533.567 42.346 533.529C42.5464 533.487 42.7457 533.434 42.9439 533.372L43.1255 533.401C43.2826 533.376 43.4094 533.354 43.5057 533.335C43.6147 533.319 43.7237 533.303 43.8326 533.287C43.9011 533.275 43.9632 533.262 44.0191 533.248C44.0875 533.237 44.1458 533.226 44.194 533.217C44.1644 533.171 44.1334 533.131 44.101 533.098C44.0764 533.059 44.0478 533.024 44.0155 532.99C43.9782 532.949 43.9434 532.912 43.9111 532.879C43.8864 532.84 43.8617 532.802 43.837 532.764C43.8025 532.71 43.7816 532.669 43.7745 532.641C43.6818 532.582 43.6035 532.502 43.5393 532.402L43.4652 532.288C43.4504 532.265 43.4356 532.242 43.4208 532.219C43.4186 532.198 43.4125 532.181 43.4027 532.165C43.3533 532.089 43.3023 532.035 43.2497 532.004C43.1905 531.912 43.1337 531.823 43.0794 531.739L43.0053 531.624C42.9955 531.609 42.9793 531.592 42.9568 531.574C42.942 531.551 42.9297 531.532 42.9198 531.517C42.8853 531.463 42.8521 531.403 42.8202 531.337C42.7961 531.266 42.7809 531.183 42.7748 531.09C42.8381 530.919 42.8638 530.816 42.8517 530.78L42.923 530.588C42.964 530.55 42.9987 530.512 43.0272 530.472C43.0633 530.427 43.1032 530.379 43.147 530.33C43.2038 530.249 43.2645 530.167 43.3291 530.082C43.4062 530 43.5061 529.919 43.6287 529.84C43.6949 529.808 43.7507 529.794 43.7962 529.797C43.8417 529.801 43.8808 529.802 43.9137 529.803L44.1083 529.726L44.193 529.883L44.4004 530.205C44.5584 530.45 44.7265 530.694 44.9047 530.937C45.0906 531.175 45.2814 531.421 45.4772 531.674C45.5912 531.818 45.7053 531.961 45.8194 532.104C45.9383 532.255 46.0598 532.41 46.1837 532.569C46.2724 532.555 46.3573 532.544 46.4384 532.535L46.5699 532.613C46.6664 532.746 46.7089 532.854 46.6975 532.937C46.6987 533.023 46.6925 533.098 46.6789 533.161C46.8028 533.319 46.9267 533.478 47.0507 533.637C47.1872 533.798 47.3275 533.957 47.4717 534.114C47.6779 534.35 47.8802 534.588 48.0787 534.829C48.2821 535.077 48.4628 535.324 48.6208 535.569C48.6899 535.676 48.7527 535.782 48.8092 535.887C48.8658 535.991 48.9135 536.091 48.9525 536.185L48.9461 536.351C48.9149 536.404 48.8925 536.462 48.8789 536.525C48.8702 536.596 48.8615 536.666 48.8528 536.737C48.8278 536.883 48.7874 537.039 48.7317 537.205C48.676 537.371 48.5297 537.514 48.2927 537.634C48.1612 537.632 48.078 537.621 48.0429 537.6L47.8384 537.586L47.7758 537.463C47.7462 537.417 47.7114 537.38 47.6714 537.352C47.639 537.318 47.6028 537.287 47.5628 537.259C47.5278 537.238 47.4927 537.217 47.4576 537.197C47.4302 537.171 47.4003 537.141 47.368 537.108C47.3236 537.039 47.2865 536.982 47.2569 536.936C47.2399 536.892 47.2166 536.848 47.187 536.802Z" fill="white"/>
<path d="M36.3714 499.995L41.8708 489.495L40.3714 479.538" stroke="white"/>
</svg>
