<svg width="981" height="601" viewBox="0 0 981 601" fill="none" xmlns="http://www.w3.org/2000/svg">
<g id="thingy">
<g id="track-2">
<path id="Rectangle 99" d="M77.5 207H937.5C960.972 207 980 226.028 980 249.5C980 272.972 960.972 292 937.5 292H77.5C54.0279 292 35 272.972 35 249.5C35 226.028 54.0279 207 77.5 207ZM77.5 233C68.3873 233 61 240.387 61 249.5C61 258.613 68.3873 266 77.5 266H937.5C946.613 266 954 258.613 954 249.5C954 240.387 946.613 233 937.5 233H77.5Z" fill="#35383B" stroke="white" stroke-width="2"/>
</g>
<g id="arc-track">
<path id="Ellipse 1" d="M78.3115 0.785156C366.031 1.20759 599.189 234.367 599.611 522.087H547.69C547.43 262.839 337.483 52.6918 78.3115 52.1074V0.785156Z" fill="#35383B" stroke="white" stroke-width="1.56673"/>
<path id="Ellipse 5" d="M78.3115 105.359C308.276 105.781 494.616 292.122 495.038 522.086H440.713C440.453 321.921 278.4 159.669 78.3115 159.085V105.359Z" fill="#35383B" stroke="white" stroke-width="1.56673"/>
<path id="Ellipse 7" d="M80.0508 0.783203V52.1133C79.8119 52.1076 79.5723 52.1045 79.332 52.1045C71.2079 52.1045 63.8067 54.632 58.4238 59.2402C53.0299 63.8581 49.7002 70.5363 49.7002 78.7314C49.7003 86.9265 53.0298 93.6049 58.4238 98.2227C63.8067 102.831 71.208 105.357 79.332 105.357C79.5723 105.357 79.8118 105.353 80.0508 105.348V159.082H79.9316C36.219 159.081 0.783203 123.645 0.783203 79.9326C0.783428 36.2201 36.2191 0.783904 79.9316 0.783203H80.0508Z" fill="#35383B" stroke="white" stroke-width="1.56673"/>
<path id="Ellipse 8" d="M440.715 520.648H495.263C495.258 520.889 495.254 521.131 495.254 521.373C495.254 537.679 505.709 551.111 521.705 551.111C529.67 551.111 536.155 547.762 540.635 542.347C545.105 536.944 547.553 529.52 547.553 521.373C547.553 521.131 547.549 520.889 547.543 520.648H599.615V520.771C599.614 564.673 565.23 600.217 522.87 600.217C480.441 600.217 440.716 564.605 440.715 520.771V520.648Z" fill="#35383B" stroke="white" stroke-width="1.56673"/>
<path id="movement-path" d="M80.5 80.5C323.781 80.5 521 277.719 521 521" stroke="black"/>
</g>
<g id="knob">
<path id="outer" d="M427.524 180.972C465.095 180.972 495.552 211.43 495.552 249C495.552 286.571 465.095 317.027 427.524 317.028C389.954 317.028 359.496 286.571 359.496 249C359.496 211.43 389.954 180.972 427.524 180.972Z" fill="#35383B" stroke="white" stroke-width="0.993104"/>
<path id="outer-inner" d="M427.523 215.234C446.172 215.234 461.289 230.351 461.289 249C461.289 267.648 446.172 282.765 427.523 282.765C408.875 282.765 393.758 267.648 393.758 249C393.758 230.352 408.876 215.234 427.523 215.234Z" fill="#35383B" stroke="white" stroke-width="0.993104"/>
<path id="inner" d="M427.524 219.703C443.704 219.703 456.821 232.82 456.821 249C456.821 265.18 443.704 278.297 427.524 278.297C411.344 278.297 398.228 265.18 398.228 249C398.228 232.82 411.344 219.703 427.524 219.703Z" fill="#35383B" stroke="white" stroke-width="0.993104"/>
<g id="grips">
<path id="Rectangle 3" d="M425.539 177.993C425.539 177.445 425.983 177 426.532 177H428.021C428.57 177 429.014 177.445 429.014 177.993V180.476H425.539V177.993Z" fill="white"/>
<path id="Rectangle 5" d="M430.371 178.04C430.409 177.492 430.883 177.079 431.43 177.116L432.916 177.218C433.463 177.255 433.877 177.729 433.839 178.276L433.67 180.753L430.203 180.517L430.371 178.04Z" fill="white"/>
<path id="Rectangle 7" d="M435.19 178.415C435.265 177.871 435.766 177.491 436.309 177.565L437.785 177.768C438.328 177.842 438.709 178.343 438.634 178.886L438.297 181.346L434.853 180.874L435.19 178.415Z" fill="white"/>
<path id="Rectangle 9" d="M439.973 179.117C440.084 178.579 440.61 178.234 441.147 178.345L442.605 178.648C443.143 178.759 443.488 179.284 443.377 179.821L442.873 182.253L439.469 181.548L439.973 179.117Z" fill="white"/>
<path id="Rectangle 11" d="M444.697 180.142C444.844 179.614 445.392 179.305 445.92 179.452L447.355 179.853C447.883 180 448.192 180.548 448.045 181.077L447.377 183.468L444.029 182.533L444.697 180.142Z" fill="white"/>
<path id="Rectangle 13" d="M449.34 181.486C449.523 180.969 450.091 180.699 450.608 180.882L452.012 181.379C452.529 181.562 452.799 182.13 452.616 182.647L451.788 184.987L448.511 183.827L449.34 181.486Z" fill="white"/>
<path id="Rectangle 15" d="M453.881 183.144C454.099 182.64 454.684 182.409 455.187 182.627L456.554 183.218C457.058 183.436 457.289 184.021 457.071 184.524L456.085 186.803L452.895 185.422L453.881 183.144Z" fill="white"/>
<path id="Rectangle 17" d="M458.298 185.106C458.55 184.619 459.149 184.428 459.636 184.679L460.96 185.362C461.448 185.614 461.639 186.213 461.387 186.7L460.248 188.907L457.16 187.312L458.298 185.106Z" fill="white"/>
<path id="Rectangle 19" d="M462.572 187.364C462.857 186.895 463.467 186.745 463.936 187.029L465.211 187.801C465.68 188.085 465.83 188.696 465.546 189.165L464.26 191.289L461.286 189.488L462.572 187.364Z" fill="white"/>
<path id="Rectangle 21" d="M466.682 189.908C466.998 189.459 467.617 189.351 468.066 189.666L469.285 190.523C469.733 190.838 469.842 191.458 469.526 191.906L468.099 193.938L465.255 191.939L466.682 189.908Z" fill="white"/>
<path id="Rectangle 23" d="M470.61 192.725C470.956 192.299 471.581 192.233 472.007 192.578L473.165 193.516C473.591 193.861 473.657 194.486 473.312 194.912L471.749 196.842L469.048 194.654L470.61 192.725Z" fill="white"/>
<path id="Rectangle 25" d="M474.338 195.803C474.711 195.401 475.339 195.378 475.741 195.751L476.832 196.765C477.234 197.139 477.257 197.767 476.884 198.169L475.194 199.988L472.648 197.622L474.338 195.803Z" fill="white"/>
<path id="Rectangle 27" d="M477.846 199.127C478.246 198.752 478.875 198.771 479.25 199.171L480.27 200.257C480.645 200.657 480.626 201.285 480.226 201.661L478.416 203.36L476.037 200.827L477.846 199.127Z" fill="white"/>
<path id="Rectangle 29" d="M481.121 202.682C481.546 202.335 482.171 202.397 482.519 202.822L483.462 203.974C483.81 204.399 483.747 205.025 483.323 205.372L481.402 206.945L479.2 204.255L481.121 202.682Z" fill="white"/>
<path id="Rectangle 31" d="M484.147 206.452C484.594 206.134 485.214 206.239 485.532 206.686L486.395 207.9C486.713 208.348 486.608 208.968 486.161 209.285L484.137 210.723L482.123 207.89L484.147 206.452Z" fill="white"/>
<path id="Rectangle 33" d="M486.908 210.419C487.376 210.132 487.987 210.279 488.274 210.747L489.052 212.017C489.339 212.484 489.192 213.096 488.724 213.382L486.607 214.68L484.791 211.716L486.908 210.419Z" fill="white"/>
<path id="Rectangle 35" d="M489.395 214.564C489.881 214.31 490.481 214.498 490.736 214.984L491.426 216.304C491.68 216.791 491.492 217.391 491.006 217.645L488.806 218.795L487.195 215.715L489.395 214.564Z" fill="white"/>
<path id="Rectangle 37" d="M491.594 218.869C492.096 218.649 492.682 218.877 492.902 219.379L493.501 220.743C493.721 221.246 493.493 221.831 492.991 222.052L490.717 223.05L489.32 219.867L491.594 218.869Z" fill="white"/>
<path id="Rectangle 39" d="M493.494 223.314C494.01 223.128 494.579 223.396 494.765 223.912L495.269 225.313C495.455 225.829 495.187 226.398 494.671 226.584L492.335 227.425L491.158 224.155L493.494 223.314Z" fill="white"/>
<path id="Rectangle 41" d="M495.087 227.877C495.615 227.727 496.164 228.033 496.315 228.56L496.723 229.993C496.873 230.52 496.567 231.07 496.04 231.22L493.652 231.9L492.7 228.557L495.087 227.877Z" fill="white"/>
<path id="Rectangle 43" d="M496.367 232.539C496.903 232.424 497.431 232.767 497.545 233.303L497.855 234.761C497.969 235.297 497.626 235.824 497.09 235.938L494.661 236.455L493.938 233.055L496.367 232.539Z" fill="white"/>
<path id="Rectangle 45" d="M497.326 237.276C497.869 237.199 498.372 237.576 498.449 238.119L498.659 239.594C498.736 240.137 498.359 240.64 497.816 240.717L495.358 241.067L494.868 237.626L497.326 237.276Z" fill="white"/>
<path id="Rectangle 47" d="M497.962 242.068C498.509 242.028 498.985 242.439 499.025 242.986L499.134 244.471C499.174 245.018 498.763 245.494 498.216 245.534L495.74 245.716L495.486 242.25L497.962 242.068Z" fill="white"/>
<path id="Rectangle 49" d="M498.27 246.891C498.818 246.889 499.265 247.331 499.268 247.879L499.276 249.369C499.279 249.917 498.836 250.364 498.288 250.367L495.805 250.38L495.787 246.905L498.27 246.891Z" fill="white"/>
<path id="Rectangle 51" d="M498.248 251.725C498.796 251.759 499.211 252.231 499.177 252.778L499.083 254.265C499.049 254.813 498.577 255.228 498.03 255.194L495.552 255.038L495.77 251.569L498.248 251.725Z" fill="white"/>
<path id="Rectangle 53" d="M497.899 256.546C498.443 256.618 498.826 257.117 498.754 257.66L498.56 259.137C498.488 259.681 497.989 260.064 497.446 259.992L494.984 259.668L495.438 256.222L497.899 256.546Z" fill="white"/>
<path id="Rectangle 55" d="M497.222 261.332C497.759 261.441 498.107 261.964 497.999 262.502L497.705 263.962C497.596 264.5 497.073 264.848 496.535 264.74L494.101 264.249L494.788 260.842L497.222 261.332Z" fill="white"/>
<path id="Rectangle 57" d="M496.221 266.061C496.75 266.206 497.061 266.752 496.917 267.281L496.524 268.718C496.379 269.247 495.833 269.559 495.304 269.414L492.909 268.759L493.826 265.406L496.221 266.061Z" fill="white"/>
<path id="Rectangle 59" d="M494.901 270.711C495.419 270.891 495.693 271.457 495.512 271.975L495.022 273.382C494.842 273.9 494.276 274.174 493.758 273.993L491.413 273.177L492.556 269.894L494.901 270.711Z" fill="white"/>
<path id="Rectangle 61" d="M493.267 275.26C493.772 275.475 494.006 276.059 493.791 276.563L493.207 277.934C492.992 278.438 492.408 278.673 491.904 278.458L489.62 277.484L490.983 274.286L493.267 275.26Z" fill="white"/>
<path id="Rectangle 63" d="M491.329 279.688C491.817 279.937 492.012 280.535 491.763 281.024L491.086 282.351C490.837 282.84 490.239 283.034 489.751 282.785L487.538 281.658L489.116 278.561L491.329 279.688Z" fill="white"/>
<path id="Rectangle 65" d="M489.093 283.974C489.564 284.256 489.717 284.866 489.435 285.336L488.67 286.615C488.389 287.085 487.779 287.238 487.308 286.957L485.178 285.682L486.963 282.699L489.093 283.974Z" fill="white"/>
<path id="Rectangle 67" d="M486.571 288.098C487.022 288.411 487.133 289.03 486.82 289.48L485.97 290.703C485.657 291.154 485.038 291.265 484.588 290.952L482.549 289.535L484.532 286.681L486.571 288.098Z" fill="white"/>
<path id="Rectangle 69" d="M483.775 292.04C484.203 292.383 484.272 293.008 483.929 293.436L482.998 294.599C482.655 295.027 482.03 295.096 481.602 294.753L479.664 293.201L481.838 290.488L483.775 292.04Z" fill="white"/>
<path id="Rectangle 71" d="M480.717 295.783C481.121 296.155 481.147 296.783 480.776 297.187L479.768 298.283C479.397 298.687 478.768 298.713 478.365 298.342L476.537 296.662L478.89 294.103L480.717 295.783Z" fill="white"/>
<path id="Rectangle 73" d="M477.411 299.31C477.788 299.708 477.772 300.337 477.374 300.714L476.293 301.74C475.896 302.117 475.267 302.101 474.889 301.703L473.18 299.902L475.701 297.509L477.411 299.31Z" fill="white"/>
<path id="Rectangle 75" d="M473.873 302.603C474.223 303.026 474.164 303.652 473.741 304.002L472.593 304.951C472.171 305.301 471.545 305.242 471.195 304.819L469.613 302.906L472.291 300.691L473.873 302.603Z" fill="white"/>
<path id="Rectangle 77" d="M470.12 305.649C470.44 306.095 470.338 306.715 469.893 307.035L468.683 307.904C468.238 308.225 467.617 308.123 467.297 307.678L465.848 305.661L468.671 303.633L470.12 305.649Z" fill="white"/>
<path id="Rectangle 79" d="M466.168 308.432C466.457 308.898 466.314 309.51 465.847 309.799L464.581 310.585C464.115 310.874 463.503 310.73 463.214 310.264L461.906 308.154L464.86 306.322L466.168 308.432Z" fill="white"/>
<path id="Rectangle 81" d="M462.036 310.94C462.293 311.425 462.108 312.026 461.623 312.283L460.307 312.98C459.822 313.236 459.221 313.052 458.964 312.567L457.803 310.373L460.874 308.746L462.036 310.94Z" fill="white"/>
<path id="Rectangle 83" d="M457.742 313.161C457.965 313.662 457.74 314.249 457.239 314.472L455.878 315.078C455.377 315.301 454.79 315.076 454.567 314.575L453.557 312.307L456.732 310.893L457.742 313.161Z" fill="white"/>
<path id="Rectangle 85" d="M453.308 315.085C453.496 315.6 453.231 316.17 452.716 316.359L451.317 316.871C450.802 317.059 450.232 316.794 450.043 316.279L449.19 313.948L452.454 312.753L453.308 315.085Z" fill="white"/>
<path id="Rectangle 87" d="M448.752 316.703C448.905 317.229 448.602 317.78 448.076 317.933L446.645 318.349C446.118 318.502 445.567 318.199 445.414 317.673L444.722 315.288L448.059 314.318L448.752 316.703Z" fill="white"/>
<path id="Rectangle 4" d="M425.538 317.524H429.014V320.007C429.014 320.555 428.569 321 428.021 321H426.531C425.983 321 425.538 320.555 425.538 320.007V317.524Z" fill="white"/>
<path id="Rectangle 89" d="M444.098 318.007C444.215 318.542 443.875 319.072 443.339 319.188L441.884 319.506C441.348 319.623 440.819 319.283 440.702 318.747L440.173 316.321L443.569 315.581L444.098 318.007Z" fill="white"/>
<path id="Rectangle 91" d="M439.365 318.991C439.445 319.534 439.07 320.038 438.528 320.119L437.054 320.336C436.512 320.416 436.007 320.041 435.927 319.499L435.564 317.043L439.002 316.535L439.365 318.991Z" fill="white"/>
<path id="Rectangle 93" d="M434.577 319.651C434.62 320.198 434.212 320.676 433.665 320.719L432.18 320.836C431.633 320.879 431.155 320.471 431.112 319.924L430.917 317.449L434.382 317.176L434.577 319.651Z" fill="white"/>
<path id="Rectangle 6" d="M420.881 317.248L424.349 317.484L424.18 319.961C424.143 320.508 423.669 320.922 423.122 320.884L421.636 320.783C421.089 320.746 420.675 320.272 420.712 319.725L420.881 317.248Z" fill="white"/>
<path id="Rectangle 8" d="M416.254 316.655L419.698 317.126L419.361 319.586C419.286 320.129 418.785 320.51 418.242 320.435L416.766 320.233C416.223 320.159 415.843 319.658 415.917 319.114L416.254 316.655Z" fill="white"/>
<path id="Rectangle 10" d="M411.679 315.749L415.082 316.453L414.579 318.885C414.468 319.422 413.942 319.767 413.405 319.656L411.946 319.354C411.409 319.242 411.064 318.717 411.175 318.18L411.679 315.749Z" fill="white"/>
<path id="Rectangle 12" d="M407.174 314.533L410.522 315.468L409.854 317.859C409.707 318.387 409.159 318.696 408.631 318.549L407.196 318.148C406.668 318.001 406.359 317.453 406.507 316.925L407.174 314.533Z" fill="white"/>
<path id="Rectangle 14" d="M402.763 313.014L406.04 314.175L405.211 316.515C405.028 317.032 404.46 317.303 403.943 317.12L402.539 316.622C402.022 316.439 401.751 315.872 401.934 315.355L402.763 313.014Z" fill="white"/>
<path id="Rectangle 16" d="M398.466 311.199L401.656 312.58L400.67 314.858C400.452 315.362 399.868 315.593 399.364 315.375L397.997 314.784C397.494 314.566 397.262 313.981 397.48 313.478L398.466 311.199Z" fill="white"/>
<path id="Rectangle 18" d="M394.303 309.096L397.391 310.69L396.253 312.896C396.001 313.384 395.402 313.575 394.915 313.323L393.591 312.64C393.104 312.389 392.912 311.79 393.164 311.302L394.303 309.096Z" fill="white"/>
<path id="Rectangle 20" d="M390.291 306.715L393.264 308.515L391.978 310.639C391.694 311.108 391.083 311.258 390.614 310.974L389.34 310.202C388.871 309.918 388.721 309.307 389.005 308.838L390.291 306.715Z" fill="white"/>
<path id="Rectangle 22" d="M386.451 304.066L389.295 306.065L387.867 308.096C387.552 308.545 386.933 308.653 386.484 308.338L385.265 307.481C384.816 307.166 384.708 306.546 385.024 306.097L386.451 304.066Z" fill="white"/>
<path id="Rectangle 24" d="M382.801 301.162L385.502 303.349L383.94 305.279C383.594 305.705 382.969 305.771 382.543 305.426L381.385 304.488C380.959 304.143 380.893 303.518 381.238 303.091L382.801 301.162Z" fill="white"/>
<path id="Rectangle 26" d="M379.355 298.016L381.901 300.382L380.211 302.201C379.838 302.603 379.209 302.626 378.808 302.253L377.716 301.239C377.315 300.865 377.292 300.237 377.665 299.835L379.355 298.016Z" fill="white"/>
<path id="Rectangle 28" d="M376.132 294.644L378.512 297.177L376.702 298.877C376.302 299.252 375.674 299.233 375.298 298.833L374.278 297.747C373.903 297.347 373.923 296.719 374.322 296.343L376.132 294.644Z" fill="white"/>
<path id="Rectangle 30" d="M373.146 291.06L375.348 293.75L373.427 295.322C373.002 295.67 372.377 295.607 372.029 295.183L371.086 294.03C370.738 293.605 370.801 292.98 371.225 292.632L373.146 291.06Z" fill="white"/>
<path id="Rectangle 32" d="M370.41 287.281L372.424 290.114L370.4 291.552C369.953 291.87 369.333 291.765 369.015 291.318L368.152 290.104C367.834 289.657 367.939 289.037 368.386 288.719L370.41 287.281Z" fill="white"/>
<path id="Rectangle 34" d="M367.939 283.325L369.755 286.289L367.638 287.586C367.171 287.872 366.559 287.726 366.273 287.258L365.494 285.988C365.208 285.52 365.354 284.909 365.822 284.622L367.939 283.325Z" fill="white"/>
<path id="Rectangle 36" d="M365.741 279.21L367.352 282.29L365.151 283.441C364.665 283.695 364.065 283.507 363.811 283.021L363.121 281.7C362.867 281.214 363.055 280.614 363.541 280.36L365.741 279.21Z" fill="white"/>
<path id="Rectangle 38" d="M363.829 274.955L365.226 278.138L362.952 279.136C362.45 279.356 361.864 279.128 361.644 278.626L361.045 277.262C360.825 276.759 361.053 276.174 361.555 275.953L363.829 274.955Z" fill="white"/>
<path id="Rectangle 40" d="M362.211 270.58L363.388 273.85L361.052 274.691C360.536 274.877 359.967 274.61 359.782 274.094L359.277 272.692C359.091 272.176 359.359 271.607 359.875 271.421L362.211 270.58Z" fill="white"/>
<path id="Rectangle 42" d="M360.894 266.105L361.846 269.448L359.458 270.128C358.931 270.278 358.381 269.973 358.231 269.445L357.823 268.012C357.673 267.485 357.978 266.935 358.506 266.785L360.894 266.105Z" fill="white"/>
<path id="Rectangle 44" d="M359.884 261.551L360.607 264.951L358.179 265.467C357.642 265.581 357.115 265.239 357.001 264.702L356.691 263.245C356.577 262.708 356.919 262.181 357.456 262.067L359.884 261.551Z" fill="white"/>
<path id="Rectangle 46" d="M359.187 256.938L359.677 260.379L357.219 260.729C356.676 260.807 356.173 260.429 356.096 259.886L355.886 258.411C355.809 257.868 356.186 257.365 356.729 257.288L359.187 256.938Z" fill="white"/>
<path id="Rectangle 48" d="M358.804 252.289L359.059 255.756L356.583 255.937C356.036 255.978 355.56 255.567 355.52 255.02L355.41 253.534C355.37 252.987 355.781 252.511 356.328 252.471L358.804 252.289Z" fill="white"/>
<path id="Rectangle 50" d="M358.739 247.625L358.758 251.101L356.275 251.114C355.726 251.117 355.279 250.674 355.277 250.126L355.269 248.636C355.266 248.088 355.708 247.641 356.257 247.638L358.739 247.625Z" fill="white"/>
<path id="Rectangle 52" d="M358.992 242.967L358.774 246.436L356.296 246.28C355.748 246.246 355.332 245.774 355.367 245.227L355.46 243.74C355.495 243.192 355.966 242.777 356.514 242.811L358.992 242.967Z" fill="white"/>
<path id="Rectangle 54" d="M359.561 238.337L359.107 241.783L356.645 241.459C356.102 241.387 355.719 240.888 355.79 240.345L355.985 238.868C356.056 238.324 356.555 237.941 357.099 238.013L359.561 238.337Z" fill="white"/>
<path id="Rectangle 56" d="M360.442 233.756L359.755 237.163L357.321 236.673C356.784 236.564 356.436 236.04 356.544 235.503L356.838 234.042C356.947 233.505 357.47 233.157 358.008 233.265L360.442 233.756Z" fill="white"/>
<path id="Rectangle 58" d="M361.634 229.246L360.717 232.599L358.322 231.943C357.793 231.799 357.481 231.253 357.626 230.724L358.019 229.287C358.164 228.758 358.71 228.446 359.239 228.591L361.634 229.246Z" fill="white"/>
<path id="Rectangle 60" d="M363.129 224.827L361.986 228.109L359.641 227.293C359.123 227.113 358.85 226.547 359.03 226.029L359.52 224.622C359.7 224.104 360.266 223.83 360.784 224.01L363.129 224.827Z" fill="white"/>
<path id="Rectangle 62" d="M364.922 220.52L363.558 223.717L361.275 222.743C360.77 222.528 360.535 221.945 360.751 221.44L361.335 220.07C361.55 219.566 362.134 219.331 362.638 219.546L364.922 220.52Z" fill="white"/>
<path id="Rectangle 64" d="M367.003 216.345L365.426 219.443L363.213 218.315C362.725 218.066 362.53 217.468 362.779 216.98L363.456 215.652C363.705 215.164 364.303 214.969 364.791 215.218L367.003 216.345Z" fill="white"/>
<path id="Rectangle 66" d="M369.364 212.322L367.579 215.304L365.448 214.029C364.978 213.748 364.825 213.138 365.106 212.667L365.871 211.389C366.153 210.918 366.763 210.765 367.233 211.047L369.364 212.322Z" fill="white"/>
<path id="Rectangle 68" d="M371.992 208.468L370.009 211.322L367.97 209.905C367.519 209.592 367.408 208.974 367.721 208.523L368.571 207.3C368.884 206.85 369.503 206.738 369.953 207.051L371.992 208.468Z" fill="white"/>
<path id="Rectangle 70" d="M374.877 204.802L372.704 207.515L370.766 205.963C370.338 205.62 370.269 204.995 370.612 204.567L371.543 203.404C371.886 202.976 372.511 202.907 372.939 203.25L374.877 204.802Z" fill="white"/>
<path id="Rectangle 72" d="M378.004 201.341L375.652 203.899L373.824 202.219C373.42 201.848 373.394 201.22 373.765 200.816L374.774 199.719C375.145 199.316 375.773 199.289 376.177 199.66L378.004 201.341Z" fill="white"/>
<path id="Rectangle 74" d="M381.36 198.1L378.839 200.493L377.13 198.692C376.752 198.294 376.768 197.666 377.166 197.288L378.247 196.263C378.645 195.885 379.273 195.902 379.651 196.299L381.36 198.1Z" fill="white"/>
<path id="Rectangle 76" d="M384.928 195.095L382.25 197.311L380.667 195.398C380.318 194.976 380.377 194.35 380.8 194L381.947 193.05C382.37 192.701 382.996 192.76 383.346 193.183L384.928 195.095Z" fill="white"/>
<path id="Rectangle 78" d="M388.692 192.34L385.869 194.369L384.42 192.353C384.1 191.907 384.202 191.287 384.647 190.967L385.857 190.097C386.302 189.777 386.923 189.879 387.243 190.324L388.692 192.34Z" fill="white"/>
<path id="Rectangle 80" d="M392.635 189.847L389.681 191.679L388.373 189.569C388.084 189.103 388.227 188.491 388.693 188.202L389.959 187.417C390.426 187.128 391.038 187.271 391.327 187.737L392.635 189.847Z" fill="white"/>
<path id="Rectangle 82" d="M396.738 187.629L393.667 189.255L392.505 187.061C392.248 186.576 392.433 185.975 392.918 185.719L394.234 185.022C394.719 184.765 395.32 184.95 395.576 185.435L396.738 187.629Z" fill="white"/>
<path id="Rectangle 84" d="M400.983 185.694L397.808 187.108L396.798 184.84C396.575 184.339 396.8 183.752 397.301 183.529L398.662 182.923C399.163 182.7 399.75 182.925 399.973 183.426L400.983 185.694Z" fill="white"/>
<path id="Rectangle 86" d="M405.35 184.052L402.086 185.247L401.233 182.916C401.044 182.401 401.309 181.83 401.824 181.642L403.223 181.13C403.738 180.941 404.308 181.206 404.497 181.721L405.35 184.052Z" fill="white"/>
<path id="Rectangle 88" d="M409.818 182.712L406.48 183.682L405.787 181.298C405.634 180.771 405.937 180.22 406.464 180.067L407.894 179.651C408.421 179.498 408.972 179.801 409.125 180.328L409.818 182.712Z" fill="white"/>
<path id="Rectangle 90" d="M414.367 181.678L410.971 182.419L410.442 179.993C410.325 179.458 410.665 178.928 411.201 178.811L412.656 178.494C413.192 178.377 413.721 178.717 413.838 179.253L414.367 181.678Z" fill="white"/>
<path id="Rectangle 92" d="M418.976 180.957L415.538 181.465L415.175 179.008C415.095 178.466 415.469 177.961 416.012 177.881L417.486 177.663C418.028 177.583 418.533 177.958 418.613 178.5L418.976 180.957Z" fill="white"/>
<path id="Rectangle 94" d="M423.623 180.55L420.158 180.823L419.963 178.348C419.92 177.801 420.328 177.323 420.875 177.28L422.36 177.163C422.907 177.12 423.385 177.528 423.428 178.075L423.623 180.55Z" fill="white"/>
</g>
<path id="screw" d="M433.134 229.635H422.034V236.847C422.034 240.934 418.721 244.247 414.634 244.247H408.159V254.114H414.634C418.721 254.114 422.034 257.427 422.034 261.514V268.914H433.134V261.514C433.134 257.427 436.448 254.114 440.535 254.114H446.393V244.247H440.535C436.448 244.247 433.134 240.934 433.134 236.847V229.635Z" stroke="white" stroke-width="1.23337"/>
</g>
</g>
</svg>
